SplineFontDB: 3.0
FontName: Neuton-Italic
FullName: Neuton Italic
FamilyName: Neuton
Weight: Italic
Copyright: Copyright (c) 2010, Brian M Zick (http://21326.info/),\nwith Reserved Font Name "Neuton".\nThis Font Software is licensed under the SIL Open Font License, Version 1.1.\nThis license is available with a FAQ at: http://scripts.sil.org/OFL
Version: 1.32
ItalicAngle: -9
UnderlinePosition: -440
UnderlineWidth: 220
Ascent: 1638
Descent: 410
LayerCount: 2
Layer: 0 0 "Back"  1
Layer: 1 0 "Fore"  0
NeedsXUIDChange: 1
FSType: 0
OS2Version: 0
OS2_WeightWidthSlopeOnly: 0
OS2_UseTypoMetrics: 0
CreationTime: 1300472649
ModificationTime: 1314362938
PfmFamily: 17
TTFWeight: 400
TTFWidth: 5
LineGap: 0
VLineGap: 0
OS2TypoAscent: 2106
OS2TypoAOffset: 0
OS2TypoDescent: -485
OS2TypoDOffset: 0
OS2TypoLinegap: 0
OS2WinAscent: 2106
OS2WinAOffset: 0
OS2WinDescent: 485
OS2WinDOffset: 0
HheadAscent: 2106
HheadAOffset: 0
HheadDescent: -485
HheadDOffset: 0
OS2Vendor: 'PfEd'
Lookup: 258 0 0 "'kern' Horizontal Kerning lookup 0"  {"'kern' Horizontal Kerning lookup 0 subtable"  } ['kern' ('DFLT' <'dflt' > ) ]
Lookup: 258 0 0 "'kern' Horizontal Kerning in Latin lookup 0"  {"'kern' Horizontal Kerning in Latin lookup 0 subtable"  } ['kern' ('latn' <'dflt' > ) ]
MarkAttachClasses: 1
DEI: 91125
LangName: 1033 "" "" "" "" "" "" "" "" "" "Brian M Zick" "" "" "http://21326.info/" "Copyright (c) 2011, Brian (http://21326.info/),+AAoA-with Reserved Font Name +ACIA-Neuton+ACIA.+AAoACgAA-This Font Software is licensed under the SIL Open Font License, Version 1.1.+AAoA-This license is copied below, and is also available with a FAQ at:+AAoA-http://scripts.sil.org/OFL" "http://scripts.sil.org/OFL" 
Encoding: UnicodeBmp
Compacted: 1
UnicodeInterp: none
NameList: Adobe Glyph List
DisplaySize: -36
AntiAlias: 1
FitToEm: 1
WinInfo: 0 19 10
BeginPrivate: 12
BlueValues 37 [-32 0 1056 1082 1412 1432 1506 1542]
OtherBlues 11 [-460 -446]
BlueFuzz 1 1
BlueScale 6 0.0275
BlueShift 1 7
ExpansionFactor 4 0.06

StartChar: .notdef
Encoding: 65536 -1 0
Width: 1024
VWidth: 0
Flags: W
HStem: -468 102<204 820> 1478 102<204 820>
VStem: 102 102<-366 1478> 820 102<-366 1478>
LayerCount: 2
Fore
SplineSet
102 -468 m 1
 102 1580 l 1
 922 1580 l 1
 922 -468 l 1
 102 -468 l 1
204 -366 m 1
 820 -366 l 1
 820 1478 l 1
 204 1478 l 1
 204 -366 l 1
EndSplineSet
Validated: 1
EndChar

StartChar: A
Encoding: 65 65 1
Width: 1402
VWidth: 0
Flags: W
HStem: 0 98<851 873.722> 524 122<569 975> 1516 20G<963.316 1060.29>
DStem2: 163 156 321 150 0.470725 0.88228<69.0808 486.608 623.432 623.432> 1057 1536 879 1252 0.162321 -0.986738<251.341 864.887 987.866 1362.02>
LayerCount: 2
Fore
SplineSet
1057 1536 m 1
 1285 150 l 1
 1435 98 l 1
 1413 0 l 1
 827 0 l 1
 851 90 l 1
 1059 156 l 1
 991 524 l 1
 507 524 l 1
 321 150 l 1
 527 98 l 1
 501 0 l 1
 -39 0 l 1
 -17 90 l 1
 163 156 l 1
 879 1498 l 1
 1057 1536 l 1
569 646 m 1
 975 646 l 1
 879 1252 l 1
 569 646 l 1
EndSplineSet
Validated: 1
EndChar

StartChar: AE
Encoding: 198 198 2
Width: 1955
VWidth: 0
Flags: W
HStem: 0 116<1158 1694> 572 114<684 1020> 710 114<1270 1532> 1396 110<1362 1866>
VStem: 1536 104<514 573.648> 1872 96<1140 1181.05>
DStem2: 134 158 291 152 0.60937 0.792886<90.9137 615.877 753.797 946.074 1203.71 1498.56> 930.876 0 1139.63 0 0.156434 0.987688<150.102 578.9 693.999 751.494 866.906 1296.69>
LayerCount: 2
Fore
SplineSet
1132 1281 m 1
 684 686 l 1
 1036 686 l 1
 1132 1281 l 1
1020 572 m 1
 606 572 l 1
 291 152 l 1
 498 100 l 1
 472 0 l 1
 -54 0 l 1
 -32 92 l 1
 134 158 l 1
 1170 1506 l 1
 2064 1506 l 1
 1968 1124 l 1
 1872 1140 l 1
 1866 1396 l 1
 1362 1396 l 1
 1270 824 l 1
 1568 824 l 1
 1640 972 l 1
 1752 980 l 1
 1640 514 l 1
 1536 496 l 1
 1532 710 l 1
 1252 710 l 1
 1158 116 l 1
 1694 116 l 1
 1852 398 l 1
 1942 380 l 1
 1848 0 l 1
 1298 0 l 1
 788 0 l 1
 728 0 l 1
 752 90 l 1
 948 144 l 1
 954 146 l 1
 1020 572 l 1
EndSplineSet
Validated: 1
EndChar

StartChar: Aacute
Encoding: 193 193 3
Width: 1402
VWidth: 0
Flags: W
HStem: 0 98<851 873.722> 524 122<569 975> 1516 20G<963.316 1060.29>
DStem2: 163 156 321 150 0.470725 0.88228<69.0808 486.608 623.432 623.432> 1057 1536 879 1252 0.162321 -0.986738<251.341 864.887 987.866 1362.02>
LayerCount: 2
Fore
SplineSet
1057 1536 m 1
 1285 150 l 1
 1435 98 l 1
 1413 0 l 1
 827 0 l 1
 851 90 l 1
 1059 156 l 1
 991 524 l 1
 507 524 l 1
 321 150 l 1
 527 98 l 1
 501 0 l 1
 -39 0 l 1
 -17 90 l 1
 163 156 l 1
 879 1498 l 1
 1057 1536 l 1
569 646 m 1
 975 646 l 1
 879 1252 l 1
 569 646 l 1
1251 2018 m 1
 1029 1634 l 1
 967 1672 l 1
 1115 2066 l 1
 1251 2018 l 1
EndSplineSet
Validated: 1
EndChar

StartChar: Abreve
Encoding: 258 258 4
Width: 1402
VWidth: 0
Flags: W
HStem: 0 98<851 873.722> 524 122<569 975> 1516 20G<963.316 1060.29> 1664 132<860.228 1099.46>
VStem: 747 66<1852.15 1889.73>
DStem2: 163 156 321 150 0.470725 0.88228<69.0808 486.608 623.432 623.432> 1057 1536 879 1252 0.162321 -0.986738<251.341 864.887 987.866 1362.02>
LayerCount: 2
Fore
SplineSet
1057 1536 m 1
 1285 150 l 1
 1435 98 l 1
 1413 0 l 1
 827 0 l 1
 851 90 l 1
 1059 156 l 1
 991 524 l 1
 507 524 l 1
 321 150 l 1
 527 98 l 1
 501 0 l 1
 -39 0 l 1
 -17 90 l 1
 163 156 l 1
 879 1498 l 1
 1057 1536 l 1
569 646 m 1
 975 646 l 1
 879 1252 l 1
 569 646 l 1
747 1880 m 1
 803 1918 l 1
 813 1898 l 2
 841 1843 901 1796 977 1796 c 0
 1049 1796 1106 1831 1149 1900 c 1
 1161 1920 l 1
 1211 1886 l 1
 1203 1862 l 2
 1166 1750 1088 1664 977 1664 c 0
 858 1664 780 1749 753 1856 c 2
 747 1880 l 1
EndSplineSet
Validated: 1
EndChar

StartChar: Acaron
Encoding: 461 461 5
Width: 1402
VWidth: 0
Flags: W
HStem: 0 98<851 873.722> 524 122<569 975> 1516 20G<963.316 1060.29>
DStem2: 163 156 321 150 0.470725 0.88228<69.0808 486.608 623.432 623.432> 846 1918 748 1844 0.736873 -0.676031<0 250.267> 1057 1536 879 1252 0.162321 -0.986738<251.341 864.887 987.866 1362.02> 1038 1744 1032 1660 0.690318 0.723506<0 226.544>
LayerCount: 2
Fore
SplineSet
1057 1536 m 1
 1285 150 l 1
 1435 98 l 1
 1413 0 l 1
 827 0 l 1
 851 90 l 1
 1059 156 l 1
 991 524 l 1
 507 524 l 1
 321 150 l 1
 527 98 l 1
 501 0 l 1
 -39 0 l 1
 -17 90 l 1
 163 156 l 1
 879 1498 l 1
 1057 1536 l 1
569 646 m 1
 975 646 l 1
 879 1252 l 1
 569 646 l 1
966 1644 m 1
 748 1844 l 1
 846 1918 l 1
 1026 1744 l 1
 1038 1744 l 1
 1188 1914 l 1
 1240 1878 l 1
 1032 1660 l 1
 966 1644 l 1
EndSplineSet
Validated: 1
EndChar

StartChar: Acircumflex
Encoding: 194 194 6
Width: 1402
VWidth: 0
Flags: W
HStem: 0 98<851 873.722> 524 122<569 975> 1516 20G<963.316 1060.29>
DStem2: 163 156 321 150 0.470725 0.88228<69.0808 486.608 623.432 623.432> 1057 1536 879 1252 0.162321 -0.986738<251.341 864.887 987.866 1362.02>
LayerCount: 2
Fore
SplineSet
1057 1536 m 1
 1285 150 l 1
 1435 98 l 1
 1413 0 l 1
 827 0 l 1
 851 90 l 1
 1059 156 l 1
 991 524 l 1
 507 524 l 1
 321 150 l 1
 527 98 l 1
 501 0 l 1
 -39 0 l 1
 -17 90 l 1
 163 156 l 1
 879 1498 l 1
 1057 1536 l 1
569 646 m 1
 975 646 l 1
 879 1252 l 1
 569 646 l 1
1005 1914 m 1
 1221 1689 l 1
 1161 1646 l 1
 963 1778 l 1
 951 1778 l 1
 781 1644 l 1
 735 1680 l 1
 939 1898 l 1
 1005 1914 l 1
EndSplineSet
Validated: 1
EndChar

StartChar: Adieresis
Encoding: 196 196 7
Width: 1402
VWidth: 0
Flags: W
HStem: 0 98<851 873.722> 524 122<569 975> 1516 20G<963.316 1060.29> 1676 192<729.896 902.259 1053.9 1227.67>
VStem: 713 206<1693.28 1851.52> 1037 208<1694.62 1850.23>
DStem2: 163 156 321 150 0.470725 0.88228<69.0808 486.608 623.432 623.432> 1057 1536 879 1252 0.162321 -0.986738<251.341 864.887 987.866 1362.02>
LayerCount: 2
Fore
SplineSet
1057 1536 m 1
 1285 150 l 1
 1435 98 l 1
 1413 0 l 1
 827 0 l 1
 851 90 l 1
 1059 156 l 1
 991 524 l 1
 507 524 l 1
 321 150 l 1
 527 98 l 1
 501 0 l 1
 -39 0 l 1
 -17 90 l 1
 163 156 l 1
 879 1498 l 1
 1057 1536 l 1
569 646 m 1
 975 646 l 1
 879 1252 l 1
 569 646 l 1
1245 1774 m 0
 1245 1717 1195 1676 1139 1676 c 0
 1084 1676 1037 1717 1037 1774 c 0
 1037 1830 1086 1868 1139 1868 c 0
 1195 1868 1245 1829 1245 1774 c 0
919 1774 m 0
 919 1717 871 1676 815 1676 c 0
 760 1676 713 1717 713 1774 c 0
 713 1830 762 1868 815 1868 c 0
 871 1868 919 1829 919 1774 c 0
EndSplineSet
Validated: 1
EndChar

StartChar: Agrave
Encoding: 192 192 8
Width: 1402
VWidth: 0
Flags: W
HStem: 0 98<851 873.722> 524 122<569 975> 1516 20G<963.316 1060.29>
DStem2: 163 156 321 150 0.470725 0.88228<69.0808 486.608 623.432 623.432> 1057 1536 879 1252 0.162321 -0.986738<251.341 864.887 987.866 1362.02>
LayerCount: 2
Fore
SplineSet
1057 1536 m 1
 1285 150 l 1
 1435 98 l 1
 1413 0 l 1
 827 0 l 1
 851 90 l 1
 1059 156 l 1
 991 524 l 1
 507 524 l 1
 321 150 l 1
 527 98 l 1
 501 0 l 1
 -39 0 l 1
 -17 90 l 1
 163 156 l 1
 879 1498 l 1
 1057 1536 l 1
569 646 m 1
 975 646 l 1
 879 1252 l 1
 569 646 l 1
739 2010 m 1
 879 2056 l 1
 1039 1652 l 1
 969 1610 l 1
 739 2010 l 1
EndSplineSet
Validated: 1
EndChar

StartChar: Amacron
Encoding: 256 256 9
Width: 1402
VWidth: 0
Flags: W
HStem: 0 98<851 873.722> 524 122<569 975> 1516 20G<963.316 1060.29> 1670 121<719 1237>
DStem2: 163 156 321 150 0.470725 0.88228<69.0808 486.608 623.432 623.432> 1057 1536 879 1252 0.162321 -0.986738<251.341 864.887 987.866 1362.02>
LayerCount: 2
Fore
SplineSet
1057 1536 m 1
 1285 150 l 1
 1435 98 l 1
 1413 0 l 1
 827 0 l 1
 851 90 l 1
 1059 156 l 1
 991 524 l 1
 507 524 l 1
 321 150 l 1
 527 98 l 1
 501 0 l 1
 -39 0 l 1
 -17 90 l 1
 163 156 l 1
 879 1498 l 1
 1057 1536 l 1
569 646 m 1
 975 646 l 1
 879 1252 l 1
 569 646 l 1
719 1791 m 1
 1253 1791 l 1
 1237 1670 l 1
 703 1670 l 1
 719 1791 l 1
EndSplineSet
Validated: 1
EndChar

StartChar: Aogonek
Encoding: 260 260 10
Width: 1402
VWidth: 0
Flags: W
HStem: -452 62<1436.39 1448.71> 0 98<851 873.722> 524 122<569 975> 1516 20G<963.316 1060.29>
VStem: 1151 179<-294.939 -109.844>
DStem2: 163 156 321 150 0.470725 0.88228<69.0808 486.608 623.432 623.432> 1057 1536 879 1252 0.162321 -0.986738<251.341 864.887 987.866 1362.02>
LayerCount: 2
Fore
SplineSet
1393 0 m 1
 1360 -36 1340 -91 1331 -164 c 0
 1330 -168 1330 -172 1330 -177 c 0
 1330 -240 1377 -331 1481 -390 c 1
 1439 -452 l 1
 1268 -435 1151 -343 1151 -236 c 0
 1151 -167 1181 -105 1297 0 c 1
 827 0 l 1
 851 90 l 1
 1059 156 l 1
 991 524 l 1
 507 524 l 1
 321 150 l 1
 527 98 l 1
 501 0 l 1
 -39 0 l 1
 -17 90 l 1
 163 156 l 1
 879 1498 l 1
 1057 1536 l 1
 1285 150 l 1
 1435 98 l 1
 1413 0 l 1
 1393 0 l 1
569 646 m 1
 975 646 l 1
 879 1252 l 1
 569 646 l 1
EndSplineSet
Validated: 1
EndChar

StartChar: Aring
Encoding: 197 197 11
Width: 1402
VWidth: 0
Flags: W
HStem: 0 98<851 873.722> 524 122<569 975> 1516 20G<963.316 1060.29> 1650 58<916.253 1054.31> 2000 58<906.845 1043.01>
VStem: 783 86<1740.61 1975.19> 1089 86<1731.08 1966.8>
DStem2: 163 156 321 150 0.470725 0.88228<69.0808 486.608 623.432 623.432> 1057 1536 879 1252 0.162321 -0.986738<251.341 864.887 987.866 1362.02>
LayerCount: 2
Fore
SplineSet
1057 1536 m 1
 1285 150 l 1
 1435 98 l 1
 1413 0 l 1
 827 0 l 1
 851 90 l 1
 1059 156 l 1
 991 524 l 1
 507 524 l 1
 321 150 l 1
 527 98 l 1
 501 0 l 1
 -39 0 l 1
 -17 90 l 1
 163 156 l 1
 879 1498 l 1
 1057 1536 l 1
569 646 m 1
 975 646 l 1
 879 1252 l 1
 569 646 l 1
869 1864 m 0
 869 1783 912 1708 985 1708 c 0
 1052 1708 1089 1758 1089 1846 c 0
 1089 1929 1045 2000 973 2000 c 0
 905 2000 869 1939 869 1864 c 0
1175 1862 m 0
 1175 1747 1091 1650 971 1650 c 0
 858 1650 783 1727 783 1850 c 0
 783 1963 874 2058 987 2058 c 0
 1102 2058 1175 1978 1175 1862 c 0
EndSplineSet
Validated: 1
EndChar

StartChar: Atilde
Encoding: 195 195 12
Width: 1402
VWidth: 0
Flags: W
HStem: 0 98<851 873.722> 524 122<569 975> 1516 20G<963.316 1060.29> 1680 126<1023.48 1193.83> 1718 126<759.313 920.861>
DStem2: 163 156 321 150 0.470725 0.88228<69.0808 486.608 623.432 623.432> 1057 1536 879 1252 0.162321 -0.986738<251.341 864.887 987.866 1362.02>
LayerCount: 2
Fore
SplineSet
1057 1536 m 1xe0
 1285 150 l 1
 1435 98 l 1
 1413 0 l 1
 827 0 l 1
 851 90 l 1
 1059 156 l 1
 991 524 l 1
 507 524 l 1
 321 150 l 1
 527 98 l 1
 501 0 l 1
 -39 0 l 1
 -17 90 l 1
 163 156 l 1
 879 1498 l 1
 1057 1536 l 1xe0
569 646 m 1
 975 646 l 1
 879 1252 l 1
 569 646 l 1
697 1670 m 1
 698 1673 699 1676 700 1680 c 0xf0
 702 1688 712 1717 722 1739 c 0
 732 1761 749 1790 769 1810 c 0
 788 1829 816 1844 845 1844 c 0xe8
 847 1844 850 1844 853 1843 c 0
 856 1842 859 1842 861 1842 c 2
 1131 1806 l 1
 1135 1806 l 2xf0
 1154 1806 1180 1827 1193 1844 c 2xe8
 1203 1856 l 1
 1261 1854 l 1
 1260 1849 1258 1843 1256 1835 c 0
 1251 1819 1230 1771 1208 1741 c 0
 1186 1711 1146 1680 1103 1680 c 2
 1089 1680 l 1xf0
 819 1718 l 1
 815 1718 l 2xe8
 794 1718 766 1694 753 1674 c 1
 743 1660 l 1
 697 1670 l 1
EndSplineSet
Validated: 1
EndChar

StartChar: B
Encoding: 66 66 13
Width: 1379
VWidth: 0
Flags: W
HStem: 0 116<518 948.439> 0 90<100 152.224> 732 102<646 1022.42> 1374 92<342 394.459> 1418 104<745.432 1035.09>
VStem: 1142 232<332.753 625.735 1045.57 1313.44>
DStem2: 280.876 0 499.627 0 0.156434 0.987688<151.666 776.977>
LayerCount: 2
Fore
SplineSet
626 732 m 1xa4
 518 116 l 1
 752 116 l 2
 880 116 986 162 1048 231 c 0
 1110 299 1142 384 1142 472 c 0
 1142 616 1049 732 884 732 c 2
 626 732 l 1xa4
1066 814 m 1
 1265 802 1374 671 1374 510 c 0
 1374 415 1338 319 1258 231 c 0
 1178 142 1070 73 903 31 c 0
 820 10 729 0 630 0 c 2xac
 78 0 l 1
 100 90 l 1
 304 146 l 1
 510 1338 l 1
 318 1374 l 1
 342 1466 l 1x74
 589 1503 783 1522 926 1522 c 0x2c
 1081 1522 1202 1484 1271 1425 c 1
 1339 1365 1372 1293 1372 1214 c 0
 1372 1146 1351 1076 1307 1004 c 0
 1263 931 1177 863 1068 824 c 1
 1066 814 l 1
646 834 m 1
 886 834 l 2
 1041 834 1141 963 1144 1156 c 1
 1144 1225 1125 1284 1081 1336 c 0
 1037 1387 953 1418 838 1418 c 0
 805 1418 775 1415 746 1410 c 1
 646 834 l 1
EndSplineSet
Validated: 1
EndChar

StartChar: C
Encoding: 67 67 14
Width: 1389
VWidth: 0
Flags: W
HStem: -30 158<705.122 1034.16> 1422 116<819.957 1196.62>
VStem: 203 256<395.101 863.26> 1287 98<1030 1071.63>
LayerCount: 2
Fore
SplineSet
591 255 m 0
 673 171 779 128 899 128 c 0
 1046 128 1186 189 1319 312 c 1
 1365 246 l 1
 1200 53 990 -30 783 -30 c 0
 626 -30 483 26 376 127 c 0
 269 227 203 389 203 584 c 0
 203 696 226 819 275 943 c 0
 323 1067 391 1184 491 1285 c 0
 590 1385 703 1462 853 1506 c 0
 928 1527 1006 1538 1089 1538 c 0
 1264 1538 1396 1497 1485 1416 c 1
 1385 1014 l 1
 1287 1030 l 1
 1283 1296 l 1
 1239 1372 1142 1422 1001 1422 c 0
 860 1422 724 1343 624 1212 c 0
 524 1080 459 877 459 652 c 0
 459 477 509 338 591 255 c 0
EndSplineSet
Validated: 1
EndChar

StartChar: Cacute
Encoding: 262 262 15
Width: 1389
VWidth: 0
Flags: W
HStem: -30 158<705.122 1034.16> 1422 116<819.957 1196.62>
VStem: 203 256<395.101 863.26> 1287 98<1030 1071.63>
LayerCount: 2
Fore
SplineSet
591 255 m 0
 673 171 779 128 899 128 c 0
 1046 128 1186 189 1319 312 c 1
 1365 246 l 1
 1200 53 990 -30 783 -30 c 0
 626 -30 483 26 376 127 c 0
 269 227 203 389 203 584 c 0
 203 696 226 819 275 943 c 0
 323 1067 391 1184 491 1285 c 0
 590 1385 703 1462 853 1506 c 0
 928 1527 1006 1538 1089 1538 c 0
 1264 1538 1396 1497 1485 1416 c 1
 1385 1014 l 1
 1287 1030 l 1
 1283 1296 l 1
 1239 1372 1142 1422 1001 1422 c 0
 860 1422 724 1343 624 1212 c 0
 524 1080 459 877 459 652 c 0
 459 477 509 338 591 255 c 0
1411 2018 m 1
 1189 1634 l 1
 1127 1672 l 1
 1275 2066 l 1
 1411 2018 l 1
EndSplineSet
Validated: 1
EndChar

StartChar: Ccaron
Encoding: 268 268 16
Width: 1389
VWidth: 0
Flags: W
HStem: -30 158<705.122 1034.16> 1422 116<819.957 1196.62>
VStem: 203 256<395.101 863.26> 1287 98<1030 1071.63>
DStem2: 951 1918 853 1844 0.7286 -0.684939<0 250.327> 1143 1744 1137 1660 0.690318 0.723506<0 226.544>
LayerCount: 2
Fore
SplineSet
591 255 m 0
 673 171 779 128 899 128 c 0
 1046 128 1186 189 1319 312 c 1
 1365 246 l 1
 1200 53 990 -30 783 -30 c 0
 626 -30 483 26 376 127 c 0
 269 227 203 389 203 584 c 0
 203 696 226 819 275 943 c 0
 323 1067 391 1184 491 1285 c 0
 590 1385 703 1462 853 1506 c 0
 928 1527 1006 1538 1089 1538 c 0
 1264 1538 1396 1497 1485 1416 c 1
 1385 1014 l 1
 1287 1030 l 1
 1283 1296 l 1
 1239 1372 1142 1422 1001 1422 c 0
 860 1422 724 1343 624 1212 c 0
 524 1080 459 877 459 652 c 0
 459 477 509 338 591 255 c 0
1071 1644 m 1
 853 1844 l 1
 951 1918 l 1
 1131 1744 l 1
 1143 1744 l 1
 1293 1914 l 1
 1345 1878 l 1
 1137 1660 l 1
 1071 1644 l 1
EndSplineSet
Validated: 1
EndChar

StartChar: Ccedilla
Encoding: 199 199 17
Width: 1390
VWidth: 0
Flags: W
HStem: -30 158<707.845 776> 1422 116<820.957 1197.62>
VStem: 204 256<396.177 863.26> 770 162<-369.757 -212.83> 1288 98<1030 1071.63>
LayerCount: 2
Fore
SplineSet
824 -92 m 1
 896 -155 932 -215 932 -274 c 0
 932 -357 851 -423 690 -472 c 1
 666 -400 l 1
 733 -377 770 -337 770 -300 c 0
 770 -267 741 -222 682 -166 c 1
 776 -30 l 1
 620 -27 480 29 375 130 c 0
 270 230 204 392 204 584 c 0
 204 696 227 819 276 943 c 0
 324 1067 392 1184 492 1285 c 0
 591 1385 704 1462 854 1506 c 0
 929 1527 1007 1538 1090 1538 c 0
 1265 1538 1397 1497 1486 1416 c 1
 1386 1014 l 1
 1288 1030 l 1
 1284 1296 l 1
 1240 1372 1143 1422 1002 1422 c 0
 861 1422 725 1343 625 1212 c 0
 525 1080 460 877 460 652 c 0
 460 477 510 338 592 255 c 0
 674 171 780 128 900 128 c 0
 1047 128 1187 189 1320 312 c 1
 1366 246 l 1
 1231 88 1066 -3 870 -26 c 1
 824 -92 l 1
EndSplineSet
Validated: 1
EndChar

StartChar: Cdotaccent
Encoding: 266 266 18
Width: 1389
VWidth: 0
Flags: W
HStem: -30 158<705.122 1034.16> 1422 116<819.957 1196.62> 1642 286<1038 1244>
VStem: 203 256<395.101 863.26> 996 292<1685.62 1887.88> 1287 98<1030 1071.63>
LayerCount: 2
Fore
SplineSet
591 255 m 0xf4
 673 171 779 128 899 128 c 0
 1046 128 1186 189 1319 312 c 1
 1365 246 l 1
 1200 53 990 -30 783 -30 c 0
 626 -30 483 26 376 127 c 0
 269 227 203 389 203 584 c 0
 203 696 226 819 275 943 c 0
 323 1067 391 1184 491 1285 c 0
 590 1385 703 1462 853 1506 c 0
 928 1527 1006 1538 1089 1538 c 0
 1264 1538 1396 1497 1485 1416 c 1
 1385 1014 l 1
 1287 1030 l 1
 1283 1296 l 1
 1239 1372 1142 1422 1001 1422 c 0
 860 1422 724 1343 624 1212 c 0
 524 1080 459 877 459 652 c 0
 459 477 509 338 591 255 c 0xf4
1288 1790 m 0xf8
 1288 1709 1220 1642 1140 1642 c 0
 1060 1642 996 1708 996 1791 c 0
 996 1868 1063 1928 1140 1928 c 0
 1221 1928 1288 1867 1288 1790 c 0xf8
EndSplineSet
Validated: 1
EndChar

StartChar: D
Encoding: 68 68 19
Width: 1632
VWidth: 0
Flags: W
HStem: 0 126<533 952.39> 0 90<111 156.18> 1372 92<335 388.255> 1400 124<734.917 1112.08>
VStem: 1411 260<659.055 1093.91>
DStem2: 294.292 0 513.044 0 0.156434 0.987688<161.791 1352.51>
LayerCount: 2
Fore
SplineSet
533 126 m 1x98
 703 126 l 2
 912 126 1099 212 1219 345 c 0
 1339 478 1411 659 1411 850 c 0
 1411 1003 1367 1136 1282 1237 c 0
 1197 1338 1054 1400 875 1400 c 0
 823 1400 776 1397 733 1392 c 1
 533 126 l 1x98
1437 1406 m 0
 1547 1333 1619 1225 1649 1111 c 0
 1664 1054 1671 992 1671 926 c 0
 1671 741 1607 555 1486 399 c 0
 1365 243 1202 121 983 52 c 0
 873 17 757 0 635 0 c 2x98
 87 0 l 1
 111 90 l 1
 319 156 l 1
 505 1336 l 1
 311 1372 l 1
 335 1464 l 1x68
 581 1504 782 1524 939 1524 c 0
 1155 1524 1327 1478 1437 1406 c 0
EndSplineSet
Validated: 1
EndChar

StartChar: Dcaron
Encoding: 270 270 20
Width: 1632
VWidth: 0
Flags: W
HStem: 0 126<533 952.39> 0 90<111 156.18> 1372 92<335 388.255> 1400 124<734.917 1112.08>
VStem: 1411 260<659.055 1093.91>
DStem2: 294.292 0 513.044 0 0.156434 0.987688<161.791 1352.51> 915 1918 817 1844 0.736873 -0.676031<0 250.267> 1107 1744 1101 1660 0.690318 0.723506<0 226.544>
LayerCount: 2
Fore
SplineSet
533 126 m 1x98
 703 126 l 2
 912 126 1099 212 1219 345 c 0
 1339 478 1411 659 1411 850 c 0
 1411 1003 1367 1136 1282 1237 c 0
 1197 1338 1054 1400 875 1400 c 0
 823 1400 776 1397 733 1392 c 1
 533 126 l 1x98
1437 1406 m 0
 1547 1333 1619 1225 1649 1111 c 0
 1664 1054 1671 992 1671 926 c 0
 1671 741 1607 555 1486 399 c 0
 1365 243 1202 121 983 52 c 0
 873 17 757 0 635 0 c 2x98
 87 0 l 1
 111 90 l 1
 319 156 l 1
 505 1336 l 1
 311 1372 l 1
 335 1464 l 1x68
 581 1504 782 1524 939 1524 c 0
 1155 1524 1327 1478 1437 1406 c 0
1035 1644 m 1
 817 1844 l 1
 915 1918 l 1
 1095 1744 l 1
 1107 1744 l 1
 1257 1914 l 1
 1309 1878 l 1
 1101 1660 l 1
 1035 1644 l 1
EndSplineSet
Validated: 1
EndChar

StartChar: Dcroat
Encoding: 272 272 21
Width: 1632
VWidth: 0
Flags: W
HStem: 0 126<533 952.39> 0 90<111 156.18> 1372 92<335 388.255> 1400 124<734.917 1112.08> 1670 121<803 1321>
VStem: 1411 260<659.055 1093.91>
DStem2: 294.292 0 513.044 0 0.156434 0.987688<161.791 1352.51>
LayerCount: 2
Fore
SplineSet
533 126 m 1x9c
 703 126 l 2
 912 126 1099 212 1219 345 c 0
 1339 478 1411 659 1411 850 c 0
 1411 1003 1367 1136 1282 1237 c 0
 1197 1338 1054 1400 875 1400 c 0
 823 1400 776 1397 733 1392 c 1
 533 126 l 1x9c
1437 1406 m 0
 1547 1333 1619 1225 1649 1111 c 0
 1664 1054 1671 992 1671 926 c 0
 1671 741 1607 555 1486 399 c 0
 1365 243 1202 121 983 52 c 0
 873 17 757 0 635 0 c 2x9c
 87 0 l 1
 111 90 l 1
 319 156 l 1
 505 1336 l 1
 311 1372 l 1
 335 1464 l 1x6c
 581 1504 782 1524 939 1524 c 0
 1155 1524 1327 1478 1437 1406 c 0
803 1791 m 1
 1337 1791 l 1
 1321 1670 l 1
 787 1670 l 1
 803 1791 l 1
EndSplineSet
Validated: 1
EndChar

StartChar: E
Encoding: 69 69 22
Width: 1373
VWidth: 0
Flags: W
HStem: 0 116<534 1108> 0 90<118 169.2> 706 114<646 946> 1396 110<736 1282> 1414 92<328 365.917>
VStem: 952 102<510 570.16> 1288 98<1136 1177.64>
DStem2: 294.876 0 515.627 0 0.156434 0.987688<151.979 749.42 864.832 1380.86>
LayerCount: 2
Fore
SplineSet
328 1506 m 1x6e
 1482 1506 l 1x6e
 1386 1120 l 1
 1288 1136 l 1
 1282 1396 l 1
 736 1396 l 1
 646 820 l 1
 982 820 l 1
 1056 964 l 1
 1166 980 l 1
 1054 510 l 1
 952 494 l 1
 946 706 l 1
 628 706 l 1
 534 116 l 1
 1108 116 l 1xb6
 1266 394 l 1
 1360 380 l 1
 1264 0 l 1
 100 0 l 1
 118 90 l 1
 318 146 l 1
 510 1364 l 1
 308 1414 l 1
 328 1506 l 1x6e
EndSplineSet
Validated: 1
EndChar

StartChar: Eacute
Encoding: 201 201 23
Width: 1373
VWidth: 0
Flags: W
HStem: 0 116<534 1108> 0 90<118 169.2> 706 114<646 946> 1396 110<736 1282> 1414 92<328 365.917>
VStem: 952 102<510 570.16> 1288 98<1136 1177.64>
DStem2: 294.876 0 515.627 0 0.156434 0.987688<151.979 749.42 864.832 1380.86>
LayerCount: 2
Fore
SplineSet
328 1506 m 1x6e
 1482 1506 l 1x6e
 1386 1120 l 1
 1288 1136 l 1
 1282 1396 l 1
 736 1396 l 1
 646 820 l 1
 982 820 l 1
 1056 964 l 1
 1166 980 l 1
 1054 510 l 1
 952 494 l 1
 946 706 l 1
 628 706 l 1
 534 116 l 1
 1108 116 l 1xb6
 1266 394 l 1
 1360 380 l 1
 1264 0 l 1
 100 0 l 1
 118 90 l 1
 318 146 l 1
 510 1364 l 1
 308 1414 l 1
 328 1506 l 1x6e
1240 2018 m 1
 1018 1634 l 1
 956 1672 l 1
 1104 2066 l 1
 1240 2018 l 1
EndSplineSet
Validated: 1
EndChar

StartChar: Ecaron
Encoding: 282 282 24
Width: 1373
VWidth: 0
Flags: W
HStem: 0 116<534 1108> 0 90<118 169.2> 706 114<646 946> 1396 110<736 1282> 1414 92<328 365.917>
VStem: 952 102<510 570.16> 1288 98<1136 1177.64>
DStem2: 294.876 0 515.627 0 0.156434 0.987688<151.979 749.42 864.832 1380.86> 820 1918 721 1844 0.738412 -0.674349<0 250.251> 1012 1744 1006 1660 0.690318 0.723506<0 226.544>
LayerCount: 2
Fore
SplineSet
328 1506 m 1x6e
 1482 1506 l 1x6e
 1386 1120 l 1
 1288 1136 l 1
 1282 1396 l 1
 736 1396 l 1
 646 820 l 1
 982 820 l 1
 1056 964 l 1
 1166 980 l 1
 1054 510 l 1
 952 494 l 1
 946 706 l 1
 628 706 l 1
 534 116 l 1
 1108 116 l 1xb6
 1266 394 l 1
 1360 380 l 1
 1264 0 l 1
 100 0 l 1
 118 90 l 1
 318 146 l 1
 510 1364 l 1
 308 1414 l 1
 328 1506 l 1x6e
940 1644 m 1
 721 1844 l 1
 820 1918 l 1
 1000 1744 l 1
 1012 1744 l 1
 1162 1914 l 1
 1214 1878 l 1
 1006 1660 l 1
 940 1644 l 1
EndSplineSet
Validated: 1
EndChar

StartChar: Ecircumflex
Encoding: 202 202 25
Width: 1373
VWidth: 0
Flags: W
HStem: 0 116<534 1108> 0 90<118 169.2> 706 114<646 946> 1396 110<736 1282> 1414 92<328 365.917>
VStem: 952 102<510 570.16> 1288 98<1136 1177.64>
DStem2: 294.876 0 515.627 0 0.156434 0.987688<151.979 749.42 864.832 1380.86>
LayerCount: 2
Fore
SplineSet
328 1506 m 1x6e
 1482 1506 l 1x6e
 1386 1120 l 1
 1288 1136 l 1
 1282 1396 l 1
 736 1396 l 1
 646 820 l 1
 982 820 l 1
 1056 964 l 1
 1166 980 l 1
 1054 510 l 1
 952 494 l 1
 946 706 l 1
 628 706 l 1
 534 116 l 1
 1108 116 l 1xb6
 1266 394 l 1
 1360 380 l 1
 1264 0 l 1
 100 0 l 1
 118 90 l 1
 318 146 l 1
 510 1364 l 1
 308 1414 l 1
 328 1506 l 1x6e
994 1914 m 1
 1210 1689 l 1
 1150 1646 l 1
 952 1778 l 1
 940 1778 l 1
 770 1644 l 1
 724 1680 l 1
 928 1898 l 1
 994 1914 l 1
EndSplineSet
Validated: 1
EndChar

StartChar: Edieresis
Encoding: 203 203 26
Width: 1373
VWidth: 0
Flags: W
HStem: 0 116<534 1108> 0 90<118 169.2> 706 114<646 946> 1396 110<736 1282> 1414 92<328 365.917> 1676 192<718.896 891.259 1042.9 1215.96>
VStem: 702 206<1693.28 1851.52> 952 102<510 570.16> 1026 207<1694.62 1850.23> 1288 98<1136 1177.64>
DStem2: 294.876 0 515.627 0 0.156434 0.987688<151.979 749.42 864.832 1380.86>
LayerCount: 2
Fore
SplineSet
328 1506 m 1x6f40
 1482 1506 l 1x6f40
 1386 1120 l 1
 1288 1136 l 1
 1282 1396 l 1
 736 1396 l 1
 646 820 l 1
 982 820 l 1
 1056 964 l 1
 1166 980 l 1
 1054 510 l 1
 952 494 l 1
 946 706 l 1
 628 706 l 1
 534 116 l 1
 1108 116 l 1xb740
 1266 394 l 1
 1360 380 l 1
 1264 0 l 1
 100 0 l 1
 118 90 l 1
 318 146 l 1
 510 1364 l 1
 308 1414 l 1
 328 1506 l 1x6f40
1233 1774 m 0x26c0
 1233 1717 1184 1676 1128 1676 c 0
 1073 1676 1026 1717 1026 1774 c 0
 1026 1830 1075 1868 1128 1868 c 0
 1184 1868 1233 1829 1233 1774 c 0x26c0
908 1774 m 0
 908 1717 860 1676 804 1676 c 0
 749 1676 702 1717 702 1774 c 0
 702 1830 751 1868 804 1868 c 0
 860 1868 908 1829 908 1774 c 0
EndSplineSet
Validated: 1
EndChar

StartChar: Edotaccent
Encoding: 278 278 27
Width: 1373
VWidth: 0
Flags: W
HStem: 0 116<534 1108> 0 90<118 169.2> 706 114<646 946> 1396 110<736 1282> 1414 92<328 365.917> 1642 286<864 1070>
VStem: 822 292<1685.62 1887.88> 952 102<510 570.16> 1288 98<1136 1177.64>
DStem2: 294.876 0 515.627 0 0.156434 0.987688<151.979 749.42 864.832 1380.86>
LayerCount: 2
Fore
SplineSet
328 1506 m 1x6d80
 1482 1506 l 1x6d80
 1386 1120 l 1
 1288 1136 l 1
 1282 1396 l 1
 736 1396 l 1
 646 820 l 1
 982 820 l 1
 1056 964 l 1
 1166 980 l 1
 1054 510 l 1
 952 494 l 1
 946 706 l 1
 628 706 l 1
 534 116 l 1
 1108 116 l 1xb580
 1266 394 l 1
 1360 380 l 1
 1264 0 l 1
 100 0 l 1
 118 90 l 1
 318 146 l 1
 510 1364 l 1
 308 1414 l 1
 328 1506 l 1x6d80
1114 1790 m 0x2680
 1114 1709 1046 1642 966 1642 c 0
 886 1642 822 1708 822 1791 c 0
 822 1868 889 1928 966 1928 c 0
 1047 1928 1114 1867 1114 1790 c 0x2680
EndSplineSet
Validated: 1
EndChar

StartChar: Egrave
Encoding: 200 200 28
Width: 1373
VWidth: 0
Flags: W
HStem: 0 116<534 1108> 0 90<118 169.2> 706 114<646 946> 1396 110<736 1282> 1414 92<328 365.917>
VStem: 952 102<510 570.16> 1288 98<1136 1177.64>
DStem2: 294.876 0 515.627 0 0.156434 0.987688<151.979 749.42 864.832 1380.86>
LayerCount: 2
Fore
SplineSet
328 1506 m 1x6e
 1482 1506 l 1x6e
 1386 1120 l 1
 1288 1136 l 1
 1282 1396 l 1
 736 1396 l 1
 646 820 l 1
 982 820 l 1
 1056 964 l 1
 1166 980 l 1
 1054 510 l 1
 952 494 l 1
 946 706 l 1
 628 706 l 1
 534 116 l 1
 1108 116 l 1xb6
 1266 394 l 1
 1360 380 l 1
 1264 0 l 1
 100 0 l 1
 118 90 l 1
 318 146 l 1
 510 1364 l 1
 308 1414 l 1
 328 1506 l 1x6e
818 2010 m 1
 958 2056 l 1
 1118 1652 l 1
 1048 1610 l 1
 818 2010 l 1
EndSplineSet
Validated: 1
EndChar

StartChar: Emacron
Encoding: 274 274 29
Width: 1373
VWidth: 0
Flags: W
HStem: 0 116<534 1108> 0 90<118 169.2> 706 114<646 946> 1396 110<736 1282> 1414 92<328 365.917> 1670 121<708 1226>
VStem: 952 102<510 570.16> 1288 98<1136 1177.64>
DStem2: 294.876 0 515.627 0 0.156434 0.987688<151.979 749.42 864.832 1380.86>
LayerCount: 2
Fore
SplineSet
328 1506 m 1x6f
 1482 1506 l 1x6f
 1386 1120 l 1
 1288 1136 l 1
 1282 1396 l 1
 736 1396 l 1
 646 820 l 1
 982 820 l 1
 1056 964 l 1
 1166 980 l 1
 1054 510 l 1
 952 494 l 1
 946 706 l 1
 628 706 l 1
 534 116 l 1
 1108 116 l 1xb7
 1266 394 l 1
 1360 380 l 1
 1264 0 l 1
 100 0 l 1
 118 90 l 1
 318 146 l 1
 510 1364 l 1
 308 1414 l 1
 328 1506 l 1x6f
708 1791 m 1
 1242 1791 l 1
 1226 1670 l 1
 692 1670 l 1
 708 1791 l 1
EndSplineSet
Validated: 1
EndChar

StartChar: Eng
Encoding: 330 330 30
Width: 2158
VWidth: 0
Flags: W
HStem: 0 90<119 170.2 608.877 649> 1414 92<329 356.787 1267 1304.06 1730.67 1793>
DStem2: 221.752 -468 367.019 -468 0.156434 0.987688<636.279 1674.99> 733 1506 625 1164 0.427425 -0.904051<263.023 1300.81> 1162.61 -468 1303.4 -468 0.156434 0.987688<807.947 1854.56>
LayerCount: 2
Fore
SplineSet
1267 1506 m 1
 1815 1506 l 1
 1793 1414 l 1
 1593 1368 l 1
 1394 104 l 2
 1374 -25 1315 -148 1253 -228 c 0
 1191 -308 1103 -380 1044 -418 c 0
 1014 -437 984 -454 954 -468 c 1
 894 -372 l 1
 1038 -267 1133 -141 1180 7 c 1
 625 1164 l 1
 463 138 l 1
 671 98 l 1
 649 0 l 1
 101 0 l 1
 119 90 l 1
 319 146 l 1
 509 1354 l 1
 309 1414 l 1
 329 1506 l 1
 733 1506 l 1
 1289 330 l 1
 1451 1364 l 1
 1245 1414 l 1
 1267 1506 l 1
EndSplineSet
Validated: 1
EndChar

StartChar: Eogonek
Encoding: 280 280 31
Width: 1373
VWidth: 0
Flags: W
HStem: -452 62<1283.45 1295.71> 0 116<534 1108> 0 90<118 169.2> 706 114<646 946> 1396 110<736 1282> 1414 92<328 365.917>
VStem: 952 102<510 570.16> 998 180<-297.627 -109.62> 1288 98<1136 1177.64>
DStem2: 223.286 -452 444.038 -452 0.156434 0.987688<609.613 1207.05 1322.47 1838.49>
LayerCount: 2
Fore
SplineSet
1240 0 m 1xb280
 1199 -64 1178 -119 1178 -164 c 0
 1178 -247 1224 -330 1328 -390 c 1
 1286 -452 l 1
 1115 -435 998 -343 998 -236 c 0
 998 -167 1028 -105 1144 0 c 1
 100 0 l 1
 118 90 l 1
 318 146 l 1
 510 1364 l 1
 308 1414 l 1
 328 1506 l 1
 1482 1506 l 1xb580
 1386 1120 l 1
 1288 1136 l 1
 1282 1396 l 1
 736 1396 l 1
 646 820 l 1
 982 820 l 1
 1056 964 l 1
 1166 980 l 1
 1054 510 l 1
 952 494 l 1
 946 706 l 1
 628 706 l 1
 534 116 l 1
 1108 116 l 1xda80
 1266 394 l 1
 1360 380 l 1
 1264 0 l 1
 1240 0 l 1xb280
EndSplineSet
Validated: 1
EndChar

StartChar: Eth
Encoding: 208 208 32
Width: 1633
VWidth: 0
Flags: W
HStem: 0 126<534 952.904> 0 90<112 157.18> 662 122<250 402> 694 122<676.192 954> 1372 92<336 389.255> 1400 124<735.917 1120.52>
VStem: 1412 260<660.624 1099.22>
DStem2: 295.292 0 514.044 0 0.156434 0.987688<161.791 678.444 844.075 1352.51>
LayerCount: 2
Fore
SplineSet
622 680 m 1x96
 534 126 l 1
 704 126 l 2
 913 126 1100 213 1220 346 c 0
 1340 479 1412 661 1412 852 c 0
 1412 1009 1369 1141 1283 1241 c 0
 1197 1341 1055 1400 876 1400 c 0
 824 1400 777 1397 734 1392 c 1
 640 800 l 1
 988 816 l 1
 954 694 l 1
 622 680 l 1x96
1438 1406 m 0
 1548 1334 1620 1226 1650 1114 c 0
 1665 1057 1672 996 1672 930 c 0
 1672 742 1608 556 1487 400 c 0
 1366 243 1203 121 984 52 c 0
 874 17 758 0 636 0 c 2x86
 88 0 l 1
 112 90 l 1
 320 156 l 1
 402 670 l 1
 218 662 l 1
 250 784 l 1
 420 792 l 1
 506 1336 l 1
 312 1372 l 1
 336 1464 l 1x6a
 582 1504 783 1524 940 1524 c 0
 1156 1524 1328 1478 1438 1406 c 0
EndSplineSet
Validated: 1
EndChar

StartChar: Euro
Encoding: 8364 8364 33
Width: 1458
VWidth: 0
Flags: W
HStem: -30 132<753.62 1107.7> 588 128<207 289 563 1115> 800 128<247 317 599 1203> 1422 116<904.889 1265.04>
VStem: 287 270<327.018 588 716 798.272> 1345 102<1030 1070.5>
LayerCount: 2
Fore
SplineSet
1277 476 m 1
 1385 492 l 1
 1367 134 l 1
 1195 14 1060 -30 863 -30 c 0
 643 -30 466 55 364 231 c 0
 313 318 287 423 287 544 c 0
 287 549 287 556 288 566 c 0
 289 576 289 583 289 588 c 1
 165 588 l 1
 207 716 l 1
 301 716 l 1
 304 735 309 763 317 800 c 1
 205 800 l 1
 247 928 l 1
 355 928 l 1
 400 1056 464 1169 561 1275 c 0
 658 1381 770 1458 925 1504 c 0
 1002 1527 1084 1538 1171 1538 c 0
 1334 1538 1449 1503 1549 1416 c 1
 1447 1014 l 1
 1345 1030 l 1
 1337 1296 l 1
 1286 1380 1226 1422 1083 1422 c 0
 860 1422 680 1240 599 928 c 1
 1259 928 l 1
 1203 800 l 1
 573 800 l 1
 573 798 l 1
 568 761 564 733 563 716 c 1
 1171 716 l 1
 1115 588 l 1
 557 588 l 1
 557 586 l 2
 557 273 699 102 943 102 c 0
 1028 102 1120 135 1185 210 c 1
 1277 476 l 1
EndSplineSet
Validated: 1
EndChar

StartChar: F
Encoding: 70 70 34
Width: 1273
VWidth: 0
Flags: W
HStem: 0 90<118 169.2 739.758 782> 700 112<644 942> 1396 110<736 1274> 1414 92<330 365.917>
VStem: 944 106<500 565.339> 1274 98<1134 1169.5>
DStem2: 294.876 0 514.559 0 0.156434 0.987688<184.211 743.181 856.618 1380.86>
LayerCount: 2
Fore
SplineSet
330 1506 m 1xdc
 1480 1506 l 1xdc
 1372 1118 l 1
 1274 1134 l 1
 1274 1396 l 1
 736 1396 l 1xec
 644 812 l 1
 976 812 l 1
 1050 958 l 1
 1154 974 l 1
 1050 500 l 1
 944 482 l 1
 942 700 l 1
 626 700 l 1
 538 148 l 1
 806 102 l 1
 782 0 l 1
 100 0 l 1
 118 90 l 1
 318 146 l 1
 510 1364 l 1
 308 1414 l 1
 330 1506 l 1xdc
EndSplineSet
Validated: 1
EndChar

StartChar: G
Encoding: 71 71 35
Width: 1554
VWidth: 0
Flags: W
HStem: -38 130<714.431 1134.06> 572 100<967 1025.9> 1406 120<835.098 1262.66>
VStem: 205 260<369.427 870.349> 1385 98<1036 1077.48>
DStem2: 1119.54 -38 1348.19 -38 0.156434 0.987688<151.661 571.051>
LayerCount: 2
Fore
SplineSet
1483 1018 m 1
 1385 1036 l 1
 1381 1268 l 1
 1336 1343 1217 1406 1025 1406 c 0
 912 1406 809 1376 711 1300 c 0
 613 1224 541 1116 498 943 c 0
 476 856 465 759 465 652 c 0
 465 285 621 92 933 92 c 0
 1034 92 1106 111 1149 148 c 1
 1209 526 l 1
 943 572 l 1
 967 672 l 1
 1609 672 l 1
 1587 582 l 1
 1437 532 l 1
 1371 106 l 1
 1235 15 1025 -38 773 -38 c 0
 581 -38 429 31 340 143 c 0
 251 255 205 399 205 564 c 0
 205 801 280 1017 398 1168 c 0
 516 1319 673 1432 845 1486 c 0
 930 1513 1016 1526 1103 1526 c 0
 1317 1526 1475 1487 1577 1408 c 1
 1483 1018 l 1
EndSplineSet
Validated: 1
EndChar

StartChar: Gbreve
Encoding: 286 286 36
Width: 1554
VWidth: 0
Flags: W
HStem: -38 130<714.431 1134.06> 572 100<967 1025.9> 1406 120<835.098 1262.66> 1664 132<1014.23 1253.46>
VStem: 205 260<369.427 870.349> 901 66<1852.15 1889.73> 1385 98<1036 1077.48>
DStem2: 1119.54 -38 1348.19 -38 0.156434 0.987688<151.661 571.051>
LayerCount: 2
Fore
SplineSet
1483 1018 m 1
 1385 1036 l 1
 1381 1268 l 1
 1336 1343 1217 1406 1025 1406 c 0
 912 1406 809 1376 711 1300 c 0
 613 1224 541 1116 498 943 c 0
 476 856 465 759 465 652 c 0
 465 285 621 92 933 92 c 0
 1034 92 1106 111 1149 148 c 1
 1209 526 l 1
 943 572 l 1
 967 672 l 1
 1609 672 l 1
 1587 582 l 1
 1437 532 l 1
 1371 106 l 1
 1235 15 1025 -38 773 -38 c 0
 581 -38 429 31 340 143 c 0
 251 255 205 399 205 564 c 0
 205 801 280 1017 398 1168 c 0
 516 1319 673 1432 845 1486 c 0
 930 1513 1016 1526 1103 1526 c 0
 1317 1526 1475 1487 1577 1408 c 1
 1483 1018 l 1
901 1880 m 1
 957 1918 l 1
 967 1898 l 2
 995 1843 1055 1796 1131 1796 c 0
 1203 1796 1260 1831 1303 1900 c 1
 1315 1920 l 1
 1365 1886 l 1
 1357 1862 l 2
 1320 1750 1242 1664 1131 1664 c 0
 1012 1664 934 1749 907 1856 c 2
 901 1880 l 1
EndSplineSet
Validated: 1
EndChar

StartChar: Gcommaaccent
Encoding: 290 290 37
Width: 1554
VWidth: 0
Flags: W
HStem: -484 48<654.611 705.887> -236 128<716.685 830.5> -38 130<714.431 1134.06> 572 100<967 1025.9> 1406 120<835.098 1262.66>
VStem: 205 260<369.427 870.349> 797 108<-358.975 -191.38> 1385 98<1036 1077.48>
DStem2: 1048.9 -484 1277.55 -484 0.156434 0.987688<603.221 1022.61>
LayerCount: 2
Fore
SplineSet
1483 1018 m 1
 1385 1036 l 1
 1381 1268 l 1
 1336 1343 1217 1406 1025 1406 c 0
 912 1406 809 1376 711 1300 c 0
 613 1224 541 1116 498 943 c 0
 476 856 465 759 465 652 c 0
 465 285 621 92 933 92 c 0
 1034 92 1106 111 1149 148 c 1
 1209 526 l 1
 943 572 l 1
 967 672 l 1
 1609 672 l 1
 1587 582 l 1
 1437 532 l 1
 1371 106 l 1
 1235 15 1025 -38 773 -38 c 0
 581 -38 429 31 340 143 c 0
 251 255 205 399 205 564 c 0
 205 801 280 1017 398 1168 c 0
 516 1319 673 1432 845 1486 c 0
 930 1513 1016 1526 1103 1526 c 0
 1317 1526 1475 1487 1577 1408 c 1
 1483 1018 l 1
649 -436 m 1
 738 -411 797 -353 797 -306 c 0
 797 -263 773 -236 725 -236 c 0
 722 -236 716 -237 705 -240 c 1
 701 -226 699 -213 699 -202 c 0
 699 -149 757 -108 801 -108 c 0
 860 -108 905 -143 905 -240 c 0
 905 -277 889 -320 854 -368 c 0
 818 -416 748 -461 657 -484 c 1
 649 -436 l 1
EndSplineSet
Validated: 1
EndChar

StartChar: Gdotaccent
Encoding: 288 288 38
Width: 1554
VWidth: 0
Flags: W
HStem: -38 130<714.431 1134.06> 572 100<967 1025.9> 1406 120<835.098 1262.66> 1642 286<1029 1235>
VStem: 205 260<369.427 870.349> 987 292<1685.62 1887.88> 1385 98<1036 1077.48>
DStem2: 1119.54 -38 1348.19 -38 0.156434 0.987688<151.661 571.051>
LayerCount: 2
Fore
SplineSet
1483 1018 m 1
 1385 1036 l 1
 1381 1268 l 1
 1336 1343 1217 1406 1025 1406 c 0
 912 1406 809 1376 711 1300 c 0
 613 1224 541 1116 498 943 c 0
 476 856 465 759 465 652 c 0
 465 285 621 92 933 92 c 0
 1034 92 1106 111 1149 148 c 1
 1209 526 l 1
 943 572 l 1
 967 672 l 1
 1609 672 l 1
 1587 582 l 1
 1437 532 l 1
 1371 106 l 1
 1235 15 1025 -38 773 -38 c 0
 581 -38 429 31 340 143 c 0
 251 255 205 399 205 564 c 0
 205 801 280 1017 398 1168 c 0
 516 1319 673 1432 845 1486 c 0
 930 1513 1016 1526 1103 1526 c 0
 1317 1526 1475 1487 1577 1408 c 1
 1483 1018 l 1
1279 1790 m 0
 1279 1709 1211 1642 1131 1642 c 0
 1051 1642 987 1708 987 1791 c 0
 987 1868 1054 1928 1131 1928 c 0
 1212 1928 1279 1867 1279 1790 c 0
EndSplineSet
Validated: 1
EndChar

StartChar: Germandbls
Encoding: 7838 7838 39
Width: 1608
VWidth: 0
Flags: W
HStem: -30 124<911.278 1242.49> 0 90<63 116.76> 1428 110<879.707 1167.14>
VStem: 703 114<393.795 444> 801 236<930 1148.61> 1349 240<251.681 463.92>
DStem2: 245.124 -30 478.248 -30 0.156434 0.987688<178.194 1247.72>
LayerCount: 2
Fore
SplineSet
1037 1142 m 0x6c
 1037 1045 1082 967 1147 918 c 0
 1179 893 1215 870 1254 848 c 0
 1333 804 1415 757 1480 701 c 1
 1544 644 1589 552 1589 436 c 0
 1589 293 1515 168 1406 92 c 0
 1297 15 1157 -30 1017 -30 c 0
 840 -30 686 39 637 148 c 1
 703 462 l 1
 817 444 l 1
 825 226 l 1
 861 153 956 94 1065 94 c 0xb4
 1229 94 1349 179 1349 344 c 0
 1349 411 1315 466 1264 502 c 0
 1212 538 1143 578 1075 610 c 0
 1007 641 938 690 887 743 c 1
 835 795 801 880 801 980 c 0
 801 1171 984 1379 1167 1420 c 1
 1169 1424 l 1
 1137 1427 1102 1428 1063 1428 c 0
 827 1428 684 1269 633 952 c 1
 483 0 l 1
 37 0 l 1
 63 90 l 1
 273 146 l 1
 397 924 l 2
 464 1341 718 1538 1097 1538 c 0
 1222 1538 1342 1523 1457 1488 c 0
 1572 1453 1649 1385 1649 1296 c 0
 1649 1205 1578 1139 1471 1104 c 1
 1462 1155 1460 1166 1448 1212 c 0
 1436 1258 1428 1272 1409 1304 c 1
 1389 1335 1369 1347 1337 1359 c 0
 1320 1365 1302 1368 1283 1368 c 0
 1172 1368 1037 1258 1037 1142 c 0x6c
EndSplineSet
Validated: 1
EndChar

StartChar: Germandbls.alt
Encoding: 65537 -1 40
Width: 1585
VWidth: 0
Flags: W
HStem: -30 124<924.359 1222.83> 0 90<61 114.76> 1428 110<867.729 1337.24>
VStem: 705 120<413.693 464> 1347 208<248.132 488.814>
DStem2: 243.124 -30 476.248 -30 0.156434 0.987688<178.194 1231.08> 859 846 1179 924 0.66574 0.746184<271.239 721.002>
LayerCount: 2
Fore
SplineSet
1179 924 m 1x78
 1203 905 1270 866 1320 836 c 0
 1370 806 1436 748 1479 690 c 0
 1522 632 1555 539 1555 436 c 0
 1555 255 1440 102 1277 27 c 0
 1195 -11 1108 -30 1015 -30 c 0
 840 -30 686 46 637 158 c 1
 705 482 l 1
 825 464 l 1
 837 236 l 1
 876 157 958 94 1063 94 c 0xb8
 1130 94 1197 116 1253 159 c 0
 1309 202 1347 273 1347 360 c 0
 1347 423 1312 486 1267 532 c 0
 1222 578 1141 632 1082 667 c 0
 1052 684 1017 705 976 729 c 0
 935 752 902 771 879 786 c 1
 859 846 l 1
 1339 1384 l 1
 1339 1390 l 1
 1298 1409 1106 1428 1061 1428 c 0
 937 1428 850 1395 775 1308 c 0
 700 1221 651 1078 617 862 c 2
 481 0 l 1
 35 0 l 1
 61 90 l 1
 271 146 l 1
 379 834 l 1
 422 1097 508 1283 634 1389 c 0
 760 1495 906 1538 1095 1538 c 0
 1298 1538 1568 1516 1637 1492 c 1
 1625 1404 l 1
 1179 924 l 1x78
EndSplineSet
Validated: 1
EndChar

StartChar: Germandbls.alt2
Encoding: 65538 -1 41
Width: 1607
VWidth: 0
Flags: W
HStem: -30 124<913.176 1241.74> 0 90<63 116.76> 1074 21G<1443 1563.68> 1428 110<879.707 1163.89>
VStem: 705 120<403.693 454> 805 228<930.767 1167.97> 1349 234<213.764 455.632> 1443 116<1088 1135.29>
DStem2: 245.124 -30 478.248 -30 0.156434 0.987688<178.194 1247.72> 1143 911 1241 520 0.837997 -0.545674<-126.642 432.607>
LayerCount: 2
Fore
SplineSet
1445 1308 m 1x75
 1398 1349 1340 1370 1273 1370 c 0
 1213 1370 1131 1325 1075 1252 c 0
 1047 1215 1033 1178 1033 1140 c 0x75
 1033 1043 1078 964 1143 911 c 0
 1175 884 1211 859 1250 835 c 0
 1328 787 1409 735 1474 672 c 0
 1538 609 1583 511 1583 388 c 0
 1583 252 1512 140 1403 73 c 0
 1294 6 1158 -30 1017 -30 c 0
 840 -30 686 39 637 148 c 1
 705 472 l 1
 825 454 l 1
 837 226 l 1
 874 150 957 94 1065 94 c 0
 1133 94 1197 110 1254 144 c 0
 1311 178 1349 241 1349 324 c 0xba
 1349 407 1305 474 1241 520 c 0
 1209 543 1174 565 1135 586 c 0
 1058 628 977 675 913 732 c 0
 849 788 805 877 805 988 c 0
 805 1092 851 1197 920 1271 c 0
 988 1345 1078 1400 1167 1420 c 1
 1169 1424 l 1
 1137 1427 1102 1428 1063 1428 c 0
 827 1428 684 1269 633 952 c 1
 483 0 l 1
 37 0 l 1
 63 90 l 1
 273 146 l 1
 397 924 l 2
 464 1341 718 1538 1097 1538 c 0
 1324 1538 1532 1491 1639 1416 c 1
 1559 1074 l 1
 1443 1088 l 1
 1445 1308 l 1x75
EndSplineSet
Validated: 1
EndChar

StartChar: H
Encoding: 72 72 42
Width: 1700
VWidth: 0
Flags: W
HStem: 0 90<126 174.64 668.267 702 1030 1078.13 1567.46 1604> 714 124<640 1308> 1414 92<336 371.05 854.163 914 1238 1271.62 1756.16 1816>
DStem2: 292.876 0 506.143 0 0.156434 0.987688<173.083 756.07 881.985 1380.86> 1194.88 0 1408.14 0 0.156434 0.987688<173.083 724.881 848.508 1380.86>
LayerCount: 2
Fore
SplineSet
702 0 m 1
 108 0 l 1
 126 90 l 1
 316 146 l 1
 508 1364 l 1
 316 1414 l 1
 336 1506 l 1
 935 1506 l 1
 914 1414 l 1
 722 1368 l 1
 640 838 l 1
 1328 838 l 1
 1410 1364 l 1
 1216 1414 l 1
 1238 1506 l 1
 1836 1506 l 1
 1816 1414 l 1
 1624 1368 l 1
 1430 138 l 1
 1626 98 l 1
 1604 0 l 1
 1008 0 l 1
 1030 90 l 1
 1218 146 l 1
 1308 716 l 1
 618 714 l 1
 528 138 l 1
 728 98 l 1
 702 0 l 1
EndSplineSet
Validated: 1
EndChar

StartChar: Hbar
Encoding: 294 294 43
Width: 1700
VWidth: 0
Flags: W
HStem: 0 90<126 174.64 668.267 702 1030 1078.13 1567.46 1604> 714 124<640 1308> 1059 110<318 460 691 1362 1593 1729> 1414 92<336 371.05 854.163 914 1238 1271.62 1756.16 1816>
DStem2: 292.876 0 506.143 0 0.156434 0.987688<173.083 756.07 881.985 1072.11 1216.89 1380.86> 1194.88 0 1408.14 0 0.156434 0.987688<173.083 724.881 848.508 1072.11 1216.89 1380.86>
LayerCount: 2
Fore
SplineSet
1362 1059 m 1
 674 1059 l 1
 640 838 l 1
 1328 838 l 1
 1362 1059 l 1
293 1059 m 1
 318 1169 l 1
 477 1169 l 1
 508 1364 l 1
 316 1414 l 1
 336 1506 l 1
 935 1506 l 1
 914 1414 l 1
 722 1368 l 1
 691 1169 l 1
 1380 1169 l 1
 1410 1364 l 1
 1216 1414 l 1
 1238 1506 l 1
 1836 1506 l 1
 1816 1414 l 1
 1624 1368 l 1
 1593 1169 l 1
 1754 1169 l 1
 1729 1059 l 1
 1575 1059 l 1
 1430 138 l 1
 1626 98 l 1
 1604 0 l 1
 1008 0 l 1
 1030 90 l 1
 1218 146 l 1
 1308 716 l 1
 618 714 l 1
 528 138 l 1
 728 98 l 1
 702 0 l 1
 108 0 l 1
 126 90 l 1
 316 146 l 1
 460 1059 l 1
 293 1059 l 1
EndSplineSet
Validated: 1
EndChar

StartChar: I
Encoding: 73 73 44
Width: 811
VWidth: 0
Flags: W
HStem: 0 90<118 169.2 682.475 721> 1414 92<328 365.917 872.423 936>
DStem2: 294.876 0 516.143 0 0.156434 0.987688<174.334 1380.86>
LayerCount: 2
Fore
SplineSet
721 0 m 1
 100 0 l 1
 118 90 l 1
 318 146 l 1
 510 1364 l 1
 308 1414 l 1
 328 1506 l 1
 956 1506 l 1
 936 1414 l 1
 732 1368 l 1
 538 138 l 1
 744 98 l 1
 721 0 l 1
EndSplineSet
Validated: 1
EndChar

StartChar: Iacute
Encoding: 205 205 45
Width: 811
VWidth: 0
Flags: W
HStem: 0 90<118 169.2 682.475 721> 1414 92<328 365.917 872.423 936>
DStem2: 294.876 0 516.143 0 0.156434 0.987688<174.334 1380.86>
LayerCount: 2
Fore
SplineSet
721 0 m 1
 100 0 l 1
 118 90 l 1
 318 146 l 1
 510 1364 l 1
 308 1414 l 1
 328 1506 l 1
 956 1506 l 1
 936 1414 l 1
 732 1368 l 1
 538 138 l 1
 744 98 l 1
 721 0 l 1
914 2018 m 1
 692 1634 l 1
 630 1672 l 1
 778 2066 l 1
 914 2018 l 1
EndSplineSet
Validated: 1
EndChar

StartChar: Icaron
Encoding: 463 463 46
Width: 811
VWidth: 0
Flags: W
HStem: 0 90<118 169.2 682.475 721> 1414 92<328 365.917 872.423 936>
DStem2: 294.876 0 516.143 0 0.156434 0.987688<174.334 1380.86> 528 1918 430 1844 0.736873 -0.676031<0 250.267> 720 1744 714 1660 0.690318 0.723506<0 226.544>
LayerCount: 2
Fore
SplineSet
721 0 m 1
 100 0 l 1
 118 90 l 1
 318 146 l 1
 510 1364 l 1
 308 1414 l 1
 328 1506 l 1
 956 1506 l 1
 936 1414 l 1
 732 1368 l 1
 538 138 l 1
 744 98 l 1
 721 0 l 1
648 1644 m 1
 430 1844 l 1
 528 1918 l 1
 708 1744 l 1
 720 1744 l 1
 870 1914 l 1
 922 1878 l 1
 714 1660 l 1
 648 1644 l 1
EndSplineSet
Validated: 1
EndChar

StartChar: Icircumflex
Encoding: 206 206 47
Width: 811
VWidth: 0
Flags: W
HStem: 0 90<118 169.2 682.475 721> 1414 92<328 365.917 872.423 936>
DStem2: 294.876 0 516.143 0 0.156434 0.987688<174.334 1380.86>
LayerCount: 2
Fore
SplineSet
721 0 m 1
 100 0 l 1
 118 90 l 1
 318 146 l 1
 510 1364 l 1
 308 1414 l 1
 328 1506 l 1
 956 1506 l 1
 936 1414 l 1
 732 1368 l 1
 538 138 l 1
 744 98 l 1
 721 0 l 1
688 1914 m 1
 904 1689 l 1
 844 1646 l 1
 646 1778 l 1
 634 1778 l 1
 464 1644 l 1
 418 1680 l 1
 622 1898 l 1
 688 1914 l 1
EndSplineSet
Validated: 1
EndChar

StartChar: Idieresis
Encoding: 207 207 48
Width: 811
VWidth: 0
Flags: W
HStem: 0 90<118 169.2 682.475 721> 1414 92<328 365.917 872.423 936> 1676 192<412.897 585.259 736.896 910.67>
VStem: 396 206<1693.28 1851.52> 720 208<1694.62 1850.23>
DStem2: 294.876 0 516.143 0 0.156434 0.987688<174.334 1380.86>
LayerCount: 2
Fore
SplineSet
721 0 m 1
 100 0 l 1
 118 90 l 1
 318 146 l 1
 510 1364 l 1
 308 1414 l 1
 328 1506 l 1
 956 1506 l 1
 936 1414 l 1
 732 1368 l 1
 538 138 l 1
 744 98 l 1
 721 0 l 1
928 1774 m 0
 928 1717 878 1676 822 1676 c 0
 767 1676 720 1717 720 1774 c 0
 720 1830 769 1868 822 1868 c 0
 878 1868 928 1829 928 1774 c 0
602 1774 m 0
 602 1717 554 1676 498 1676 c 0
 443 1676 396 1717 396 1774 c 0
 396 1830 445 1868 498 1868 c 0
 554 1868 602 1829 602 1774 c 0
EndSplineSet
Validated: 1
EndChar

StartChar: Idotaccent
Encoding: 304 304 49
Width: 811
VWidth: 0
Flags: W
HStem: 0 90<118 169.2 682.475 721> 1414 92<328 365.917 872.423 936> 1642 286<572 778>
VStem: 530 292<1685.62 1887.88>
DStem2: 294.876 0 516.143 0 0.156434 0.987688<174.334 1380.86>
LayerCount: 2
Fore
SplineSet
721 0 m 1
 100 0 l 1
 118 90 l 1
 318 146 l 1
 510 1364 l 1
 308 1414 l 1
 328 1506 l 1
 956 1506 l 1
 936 1414 l 1
 732 1368 l 1
 538 138 l 1
 744 98 l 1
 721 0 l 1
822 1790 m 0
 822 1709 754 1642 674 1642 c 0
 594 1642 530 1708 530 1791 c 0
 530 1868 597 1928 674 1928 c 0
 755 1928 822 1867 822 1790 c 0
EndSplineSet
Validated: 1
EndChar

StartChar: Igrave
Encoding: 204 204 50
Width: 811
VWidth: 0
Flags: W
HStem: 0 90<118 169.2 682.475 721> 1414 92<328 365.917 872.423 936>
DStem2: 294.876 0 516.143 0 0.156434 0.987688<174.334 1380.86>
LayerCount: 2
Fore
SplineSet
721 0 m 1
 100 0 l 1
 118 90 l 1
 318 146 l 1
 510 1364 l 1
 308 1414 l 1
 328 1506 l 1
 956 1506 l 1
 936 1414 l 1
 732 1368 l 1
 538 138 l 1
 744 98 l 1
 721 0 l 1
412 2010 m 1
 552 2056 l 1
 712 1652 l 1
 642 1610 l 1
 412 2010 l 1
EndSplineSet
Validated: 1
EndChar

StartChar: Imacron
Encoding: 298 298 51
Width: 811
VWidth: 0
Flags: W
HStem: 0 90<118 169.2 682.475 721> 1414 92<328 365.917 872.423 936> 1670 121<402 920>
DStem2: 294.876 0 516.143 0 0.156434 0.987688<174.334 1380.86>
LayerCount: 2
Fore
SplineSet
721 0 m 1
 100 0 l 1
 118 90 l 1
 318 146 l 1
 510 1364 l 1
 308 1414 l 1
 328 1506 l 1
 956 1506 l 1
 936 1414 l 1
 732 1368 l 1
 538 138 l 1
 744 98 l 1
 721 0 l 1
402 1791 m 1
 936 1791 l 1
 920 1670 l 1
 386 1670 l 1
 402 1791 l 1
EndSplineSet
Validated: 1
EndChar

StartChar: Iogonek
Encoding: 302 302 52
Width: 812
VWidth: 0
Flags: W
HStem: -452 62<766.452 778.711> 0 90<118 169.2> 1414 92<328 365.917 872.423 936>
VStem: 481 180<-297.627 -109.356>
DStem2: 223.286 -452 444.553 -452 0.156434 0.987688<631.968 1838.49>
LayerCount: 2
Fore
SplineSet
735 20 m 1
 686 -61 661 -122 661 -164 c 0
 661 -247 707 -330 811 -390 c 1
 769 -452 l 1
 598 -435 481 -343 481 -236 c 0
 481 -167 511 -105 627 0 c 1
 100 0 l 1
 118 90 l 1
 318 146 l 1
 510 1364 l 1
 308 1414 l 1
 328 1506 l 1
 956 1506 l 1
 936 1414 l 1
 732 1368 l 1
 538 138 l 1
 744 98 l 1
 735 20 l 1
EndSplineSet
Validated: 1
EndChar

StartChar: J
Encoding: 74 74 53
Width: 768
VWidth: 0
Flags: W
HStem: 1414 92<313 352.344 861.423 925>
DStem2: 214.901 -394 438.789 -394 0.156434 0.987688<482.721 1780.17>
LayerCount: 2
Fore
SplineSet
575 466 m 2
 548 298 520 178 474 73 c 0
 428 -32 381 -103 300 -180 c 0
 219 -257 140 -313 9 -394 c 1
 -12 -362 -27 -327 -37 -288 c 1
 176 -104 284 50 315 238 c 2
 495 1364 l 1
 295 1414 l 1
 313 1506 l 1
 941 1506 l 1
 925 1414 l 1
 721 1368 l 1
 575 466 l 2
EndSplineSet
Validated: 1
EndChar

StartChar: K
Encoding: 75 75 54
Width: 1463
VWidth: 0
Flags: W
HStem: -26 21G<1266.5 1338.5> 0 90<113 158.615 704.824 733> 1414 92<327 352.698 887.752 941 1075 1102.57 1572.22 1627>
DStem2: 294.174 -26 517.124 -26 0.156434 0.987688<213.071 1396.93> 821 892 885 786 0.67828 0.734803<-34.4792 623.226>
LayerCount: 2
Fore
SplineSet
749 616 m 1
 714 673 688 712 669 732 c 1
 675 762 l 1
 737 809 786 852 821 892 c 2
 1235 1358 l 1
 1057 1414 l 1
 1075 1506 l 1
 1649 1506 l 1
 1627 1414 l 1
 1413 1358 l 1
 885 786 l 1
 1095 460 l 1
 1246 228 1318 149 1451 102 c 2
 1491 88 l 1
 1465 0 l 1
 1415 -17 1364 -26 1313 -26 c 0
 1220 -26 1138 9 1071 74 c 0
 1004 139 956 213 903 316 c 2
 749 616 l 1
545 150 m 1
 755 98 l 1
 733 0 l 1
 95 0 l 1
 113 90 l 1
 323 156 l 1
 511 1354 l 1
 303 1414 l 1
 327 1506 l 1
 961 1506 l 1
 941 1414 l 1
 733 1358 l 1
 545 150 l 1
EndSplineSet
Validated: 1
EndChar

StartChar: Kcommaaccent
Encoding: 310 310 55
Width: 1459
VWidth: 0
Flags: W
HStem: -484 48<614.611 665.887> -236 128<676.685 790.5> -26 21G<1266.5 1338.5> 0 90<113 158.615 704.824 733> 1414 92<327 352.698 887.752 941 1075 1102.57 1572.22 1627>
VStem: 757 108<-358.975 -191.38>
DStem2: 221.634 -484 444.584 -484 0.156434 0.987688<676.78 1860.64> 821 892 885 786 0.67828 0.734803<-34.4792 623.226>
LayerCount: 2
Fore
SplineSet
749 616 m 1
 714 673 688 712 669 732 c 1
 675 762 l 1
 737 809 786 852 821 892 c 2
 1235 1358 l 1
 1057 1414 l 1
 1075 1506 l 1
 1649 1506 l 1
 1627 1414 l 1
 1413 1358 l 1
 885 786 l 1
 1095 460 l 1
 1246 228 1318 149 1451 102 c 2
 1491 88 l 1
 1465 0 l 1
 1415 -17 1364 -26 1313 -26 c 0
 1220 -26 1138 9 1071 74 c 0
 1004 139 956 213 903 316 c 2
 749 616 l 1
545 150 m 1
 755 98 l 1
 733 0 l 1
 95 0 l 1
 113 90 l 1
 323 156 l 1
 511 1354 l 1
 303 1414 l 1
 327 1506 l 1
 961 1506 l 1
 941 1414 l 1
 733 1358 l 1
 545 150 l 1
609 -436 m 1
 698 -411 757 -353 757 -306 c 0
 757 -263 733 -236 685 -236 c 0
 682 -236 676 -237 665 -240 c 1
 661 -226 659 -213 659 -202 c 0
 659 -149 717 -108 761 -108 c 0
 820 -108 865 -143 865 -240 c 0
 865 -277 849 -320 814 -368 c 0
 778 -416 708 -461 617 -484 c 1
 609 -436 l 1
EndSplineSet
Validated: 1
EndChar

StartChar: L
Encoding: 76 76 56
Width: 1302
VWidth: 0
Flags: W
HStem: 0 116<535 1045> 0 90<117 168.712> 1414 92<325 350.698 885.752 939>
DStem2: 295.876 0 516.627 0 0.156434 0.987688<151.979 1370.67>
LayerCount: 2
Fore
SplineSet
959 1506 m 1x60
 939 1414 l 1
 731 1358 l 1
 535 116 l 1
 1045 116 l 1xa0
 1243 416 l 1
 1341 400 l 1
 1235 0 l 1
 101 0 l 1
 117 90 l 1
 319 146 l 1
 509 1354 l 1
 301 1414 l 1
 325 1506 l 1
 959 1506 l 1x60
EndSplineSet
Validated: 1
EndChar

StartChar: Lacute
Encoding: 313 313 57
Width: 1302
VWidth: 0
Flags: W
HStem: 0 116<535 1045> 0 90<117 168.712> 1414 92<325 350.698 885.752 939>
DStem2: 295.876 0 516.627 0 0.156434 0.987688<151.979 1370.67>
LayerCount: 2
Fore
SplineSet
959 1506 m 1x60
 939 1414 l 1
 731 1358 l 1
 535 116 l 1
 1045 116 l 1xa0
 1243 416 l 1
 1341 400 l 1
 1235 0 l 1
 101 0 l 1
 117 90 l 1
 319 146 l 1
 509 1354 l 1
 301 1414 l 1
 325 1506 l 1
 959 1506 l 1x60
1007 2018 m 1
 785 1634 l 1
 723 1672 l 1
 871 2066 l 1
 1007 2018 l 1
EndSplineSet
Validated: 1
EndChar

StartChar: Lcaron
Encoding: 317 317 58
Width: 1305
VWidth: 0
Flags: W
HStem: 0 116<535 1045> 0 90<117 168.712> 908 84<956.611 1050.08> 1332 220<1074.5 1229.5> 1414 92<325 350.698 885.752 939>
VStem: 1199 186<1173.38 1370>
DStem2: 295.876 0 516.627 0 0.156434 0.987688<151.979 1370.67>
LayerCount: 2
Fore
SplineSet
945 992 m 1x34
 1100 1032 1199 1131 1199 1214 c 0
 1199 1285 1158 1332 1077 1332 c 0
 1072 1332 1060 1329 1041 1324 c 1
 1036 1347 1033 1369 1033 1390 c 0
 1033 1482 1133 1552 1206 1552 c 0
 1253 1552 1290 1540 1327 1509 c 1
 1363 1477 1385 1414 1385 1326 c 0
 1385 1277 1372 1221 1330 1154 c 0
 1288 1086 1232 1028 1130 973 c 0
 1079 946 1022 924 959 908 c 1
 945 992 l 1x34
959 1506 m 1x6c
 939 1414 l 1
 731 1358 l 1
 535 116 l 1
 1045 116 l 1xac
 1243 416 l 1
 1341 400 l 1
 1235 0 l 1
 101 0 l 1
 117 90 l 1
 319 146 l 1
 509 1354 l 1
 301 1414 l 1
 325 1506 l 1
 959 1506 l 1x6c
EndSplineSet
Validated: 1
EndChar

StartChar: Lcommaaccent
Encoding: 315 315 59
Width: 1300
VWidth: 0
Flags: W
HStem: -484 48<506.611 557.887> -236 128<568.685 682.5> 0 116<535 1045> 0 90<117 168.712> 1414 92<325 350.698 885.752 939>
VStem: 649 108<-358.975 -191.38>
DStem2: 219.218 -484 439.969 -484 0.156434 0.987688<642.012 1860.7>
LayerCount: 2
Fore
SplineSet
959 1506 m 1xdc
 939 1414 l 1
 731 1358 l 1
 535 116 l 1
 1045 116 l 1xec
 1243 416 l 1
 1341 400 l 1
 1235 0 l 1
 101 0 l 1
 117 90 l 1
 319 146 l 1
 509 1354 l 1
 301 1414 l 1
 325 1506 l 1
 959 1506 l 1xdc
501 -436 m 1
 590 -411 649 -353 649 -306 c 0
 649 -263 625 -236 577 -236 c 0
 574 -236 568 -237 557 -240 c 1
 553 -226 551 -213 551 -202 c 0
 551 -149 609 -108 653 -108 c 0
 712 -108 757 -143 757 -240 c 0
 757 -277 741 -320 706 -368 c 0
 670 -416 600 -461 509 -484 c 1
 501 -436 l 1
EndSplineSet
Validated: 1
EndChar

StartChar: Lslash
Encoding: 321 321 60
Width: 1302
VWidth: 0
Flags: W
HStem: 0 116<535 1045> 0 90<117 168.712> 1414 92<325 350.698 885.752 939>
DStem2: 203 756 226 636 0.940323 0.340283<0 172.17 488.095 750.401> 295.876 0 516.627 0 0.156434 0.987688<151.979 709.597 967.923 1370.67>
LayerCount: 2
Fore
SplineSet
959 1506 m 1x60
 939 1414 l 1
 731 1358 l 1
 662 922 l 1
 927 1018 l 1
 950 897 l 1
 641 785 l 1
 535 116 l 1
 1045 116 l 1xa0
 1243 416 l 1
 1341 400 l 1
 1235 0 l 1
 101 0 l 1
 117 90 l 1
 319 146 l 1
 406 701 l 1
 226 636 l 1
 203 756 l 1
 428 837 l 1
 509 1354 l 1
 301 1414 l 1
 325 1506 l 1
 959 1506 l 1x60
EndSplineSet
Validated: 1
EndChar

StartChar: M
Encoding: 77 77 61
Width: 1992
VWidth: 0
Flags: W
HStem: 0 90<73 124.2 568.28 605 1341 1391.69 1896.07 1935> 1414 92<367 403.491 2024.05 2087>
DStem2: 273 146 421 138 0.220998 0.975274<24.9055 1083.54> 881 1272 657 1170 0.190777 -0.981633<57.3926 912.031> 1041 374 1021 62 0.474464 0.880275<0 1026.82> 1643 1216 1885 1368 0.106704 0.994291<-1060.11 0>
LayerCount: 2
Fore
SplineSet
877 38 m 1
 657 1170 l 1
 421 138 l 1
 631 98 l 1
 605 0 l 1
 51 0 l 1
 73 90 l 1
 273 146 l 1
 549 1364 l 1
 345 1414 l 1
 367 1506 l 1
 829 1506 l 1
 881 1272 l 1
 1041 374 l 1
 1547 1312 l 1
 1651 1506 l 1
 2107 1506 l 1
 2087 1414 l 1
 1885 1368 l 1
 1753 138 l 1
 1957 98 l 1
 1935 0 l 1
 1319 0 l 1
 1341 90 l 1
 1539 146 l 1
 1643 1216 l 1
 1021 62 l 1
 877 38 l 1
EndSplineSet
Validated: 1
EndChar

StartChar: N
Encoding: 78 78 62
Width: 1644
VWidth: 0
Flags: W
HStem: 0 90<119 170.2 608.877 649> 1414 92<329 356.787 1267 1304.06 1730.67 1793>
DStem2: 290.174 -36 435.441 -36 0.156434 0.987688<198.894 1237.6> 733 1506 625 1164 0.432731 -0.901523<261.586 1300.79> 1231.03 -36 1371.3 -36 0.156434 0.987688<370.562 1417.17>
LayerCount: 2
Fore
SplineSet
1201 -36 m 1
 625 1164 l 1
 463 138 l 1
 671 98 l 1
 649 0 l 1
 101 0 l 1
 119 90 l 1
 319 146 l 1
 509 1354 l 1
 309 1414 l 1
 329 1506 l 1
 733 1506 l 1
 1289 330 l 1
 1451 1364 l 1
 1245 1414 l 1
 1267 1506 l 1
 1815 1506 l 1
 1793 1414 l 1
 1593 1368 l 1
 1377 0 l 1
 1201 -36 l 1
EndSplineSet
Validated: 1
EndChar

StartChar: Nacute
Encoding: 323 323 64
Width: 1644
VWidth: 0
Flags: W
HStem: 0 90<119 170.2 608.877 649> 1414 92<329 356.787 1267 1304.06 1730.67 1793>
DStem2: 290.174 -36 435.441 -36 0.156434 0.987688<198.894 1237.6> 733 1506 625 1164 0.432731 -0.901523<261.586 1300.79> 1231.03 -36 1371.3 -36 0.156434 0.987688<370.562 1417.17>
LayerCount: 2
Fore
SplineSet
1201 -36 m 1
 625 1164 l 1
 463 138 l 1
 671 98 l 1
 649 0 l 1
 101 0 l 1
 119 90 l 1
 319 146 l 1
 509 1354 l 1
 309 1414 l 1
 329 1506 l 1
 733 1506 l 1
 1289 330 l 1
 1451 1364 l 1
 1245 1414 l 1
 1267 1506 l 1
 1815 1506 l 1
 1793 1414 l 1
 1593 1368 l 1
 1377 0 l 1
 1201 -36 l 1
1381 2018 m 1
 1159 1634 l 1
 1097 1672 l 1
 1245 2066 l 1
 1381 2018 l 1
EndSplineSet
Validated: 1
EndChar

StartChar: Ncaron
Encoding: 327 327 65
Width: 1644
VWidth: 0
Flags: W
HStem: 0 90<119 170.2 608.877 649> 1414 92<329 356.787 1267 1304.06 1730.67 1793>
DStem2: 290.174 -36 435.441 -36 0.156434 0.987688<198.894 1237.6> 733 1506 625 1164 0.432731 -0.901523<261.586 1300.79> 921 1918 823 1844 0.736873 -0.676031<0 250.267> 1113 1744 1107 1660 0.690318 0.723506<0 226.544> 1231.03 -36 1371.3 -36 0.156434 0.987688<370.562 1417.17>
LayerCount: 2
Fore
SplineSet
1201 -36 m 1
 625 1164 l 1
 463 138 l 1
 671 98 l 1
 649 0 l 1
 101 0 l 1
 119 90 l 1
 319 146 l 1
 509 1354 l 1
 309 1414 l 1
 329 1506 l 1
 733 1506 l 1
 1289 330 l 1
 1451 1364 l 1
 1245 1414 l 1
 1267 1506 l 1
 1815 1506 l 1
 1793 1414 l 1
 1593 1368 l 1
 1377 0 l 1
 1201 -36 l 1
1041 1644 m 1
 823 1844 l 1
 921 1918 l 1
 1101 1744 l 1
 1113 1744 l 1
 1263 1914 l 1
 1315 1878 l 1
 1107 1660 l 1
 1041 1644 l 1
EndSplineSet
Validated: 1
EndChar

StartChar: Ncommaaccent
Encoding: 325 325 66
Width: 1644
VWidth: 0
Flags: W
HStem: -484 48<678.611 729.887> -236 128<739.678 853.5> 0 90<119 170.2 608.877 649> 1414 92<329 356.787 1267 1304.06 1730.67 1793>
VStem: 821 108<-358.975 -191.38>
DStem2: 219.218 -484 364.485 -484 0.156434 0.987688<652.478 1691.19> 733 1506 625 1164 0.432731 -0.901523<261.586 1300.79> 1160.08 -484 1300.34 -484 0.156434 0.987688<824.147 1870.76>
LayerCount: 2
Fore
SplineSet
1201 -36 m 1
 625 1164 l 1
 463 138 l 1
 671 98 l 1
 649 0 l 1
 101 0 l 1
 119 90 l 1
 319 146 l 1
 509 1354 l 1
 309 1414 l 1
 329 1506 l 1
 733 1506 l 1
 1289 330 l 1
 1451 1364 l 1
 1245 1414 l 1
 1267 1506 l 1
 1815 1506 l 1
 1793 1414 l 1
 1593 1368 l 1
 1377 0 l 1
 1201 -36 l 1
673 -436 m 1
 762 -411 821 -353 821 -306 c 0
 821 -263 797 -236 749 -236 c 0
 746 -236 740 -237 729 -240 c 1
 724 -223 722 -211 722 -202 c 0
 722 -149 780 -108 824 -108 c 0
 883 -108 929 -143 929 -240 c 0
 929 -277 913 -320 878 -368 c 0
 842 -416 772 -461 681 -484 c 1
 673 -436 l 1
EndSplineSet
Validated: 1
EndChar

StartChar: Ntilde
Encoding: 209 209 67
Width: 1644
VWidth: 0
Flags: W
HStem: 0 90<119 170.2 608.877 649> 1414 92<329 356.787 1267 1304.06 1730.67 1793> 1680 126<1113.48 1283.83> 1718 126<849.313 1010.86>
DStem2: 290.174 -36 435.441 -36 0.156434 0.987688<198.894 1237.6> 733 1506 625 1164 0.432731 -0.901523<261.586 1300.79> 1231.03 -36 1371.3 -36 0.156434 0.987688<370.562 1417.17>
LayerCount: 2
Fore
SplineSet
1201 -36 m 1xc0
 625 1164 l 1
 463 138 l 1
 671 98 l 1
 649 0 l 1
 101 0 l 1
 119 90 l 1
 319 146 l 1
 509 1354 l 1
 309 1414 l 1
 329 1506 l 1
 733 1506 l 1
 1289 330 l 1
 1451 1364 l 1
 1245 1414 l 1
 1267 1506 l 1
 1815 1506 l 1
 1793 1414 l 1
 1593 1368 l 1
 1377 0 l 1
 1201 -36 l 1xc0
787 1670 m 1
 788 1673 789 1676 790 1680 c 0xe0
 792 1688 802 1717 812 1739 c 0
 822 1761 839 1790 859 1810 c 0
 878 1829 906 1844 935 1844 c 0xd0
 937 1844 940 1844 943 1843 c 0
 946 1842 949 1842 951 1842 c 2
 1221 1806 l 1
 1225 1806 l 2xe0
 1244 1806 1270 1827 1283 1844 c 2xd0
 1293 1856 l 1
 1351 1854 l 1
 1350 1849 1348 1843 1346 1835 c 0
 1341 1819 1320 1771 1298 1741 c 0
 1276 1711 1236 1680 1193 1680 c 2
 1179 1680 l 1xe0
 909 1718 l 1
 905 1718 l 2xd0
 884 1718 856 1694 843 1674 c 1
 833 1660 l 1
 787 1670 l 1
EndSplineSet
Validated: 1
EndChar

StartChar: O
Encoding: 79 79 68
Width: 1622
VWidth: 0
Flags: W
HStem: -32 128<679.75 1052.69> 1424 118<809.105 1180.75>
VStem: 212 264<354.257 918.564> 1390 258<584.375 1148.49>
LayerCount: 2
Fore
SplineSet
1305 1247 m 0
 1248 1355 1147 1424 1020 1424 c 0
 888 1424 775 1382 702 1320 c 0
 629 1258 571 1161 539 1070 c 0
 507 978 487 861 481 774 c 0
 478 730 476 685 476 638 c 0
 476 491 504 365 561 262 c 0
 617 159 716 96 844 96 c 0
 975 96 1086 138 1160 200 c 0
 1234 262 1292 357 1325 447 c 0
 1357 537 1378 650 1385 735 c 0
 1388 778 1390 821 1390 864 c 0
 1390 1008 1361 1139 1305 1247 c 0
1507 1348 m 0
 1598 1228 1648 1066 1648 882 c 0
 1648 690 1596 504 1494 352 c 0
 1392 199 1254 82 1066 17 c 0
 972 -16 872 -32 766 -32 c 0
 541 -32 365 91 278 284 c 0
 234 381 212 490 212 612 c 0
 212 876 303 1112 456 1277 c 0
 609 1441 837 1542 1094 1542 c 0
 1270 1542 1415 1468 1507 1348 c 0
EndSplineSet
Validated: 1
EndChar

StartChar: OE
Encoding: 338 338 69
Width: 1959
VWidth: 0
Flags: W
HStem: -32 128<678.75 979.295> 0 116<1207 1694> 706 114<1319 1532> 1396 110<1409 1868> 1424 118<808.105 1181.62>
VStem: 211 264<354.257 918.564> 1538 102<510 570.16> 1874 98<1136 1177.64>
DStem2: 956.193 -32 1183.56 -32 0.156434 0.987688<185.413 782.854 898.266 1444.39>
LayerCount: 2
Fore
SplineSet
979 112 m 1xaf
 1184 1379 l 1
 1137 1408 1081 1424 1019 1424 c 0
 887 1424 774 1382 701 1320 c 0
 628 1258 570 1161 538 1070 c 0
 506 978 486 861 480 774 c 0
 477 730 475 685 475 638 c 0
 475 491 503 365 560 262 c 0
 616 159 715 96 843 96 c 0
 891 96 937 102 979 112 c 1xaf
2068 1506 m 1x37
 1972 1120 l 1
 1874 1136 l 1
 1868 1396 l 1
 1409 1396 l 1
 1319 820 l 1
 1568 820 l 1
 1642 964 l 1
 1752 980 l 1
 1640 510 l 1
 1538 494 l 1
 1532 706 l 1
 1301 706 l 1
 1207 116 l 1
 1694 116 l 1
 1852 394 l 1
 1946 380 l 1
 1850 0 l 1
 1011 0 l 1x77
 933 -21 851 -32 765 -32 c 0
 540 -32 364 91 277 284 c 0
 233 381 211 490 211 612 c 0
 211 876 302 1112 455 1277 c 0
 608 1441 836 1542 1093 1542 c 0xaf
 1165 1542 1232 1530 1294 1506 c 1
 2068 1506 l 1x37
EndSplineSet
Validated: 1
EndChar

StartChar: Oacute
Encoding: 211 211 70
Width: 1622
VWidth: 0
Flags: W
HStem: -32 128<681.265 1052.69> 1424 118<809.105 1180.75>
VStem: 212 264<353.82 919.502> 1390 258<584.375 1148.49>
LayerCount: 2
Fore
SplineSet
1305 1247 m 0
 1248 1355 1147 1424 1020 1424 c 0
 888 1424 775 1382 702 1320 c 0
 629 1258 571 1162 539 1071 c 0
 507 980 487 863 481 776 c 0
 478 732 476 687 476 640 c 0
 476 524 492 420 530 327 c 0
 568 234 621 165 705 126 c 0
 746 106 793 96 844 96 c 0
 975 96 1086 138 1160 200 c 0
 1234 262 1292 357 1325 447 c 0
 1357 537 1378 650 1385 735 c 0
 1388 778 1390 821 1390 864 c 0
 1390 1008 1361 1139 1305 1247 c 0
1507 1348 m 0
 1598 1228 1648 1066 1648 882 c 0
 1648 690 1596 504 1494 352 c 0
 1392 199 1254 82 1066 17 c 0
 972 -16 872 -32 766 -32 c 0
 541 -32 365 91 278 284 c 0
 234 381 212 490 212 612 c 0
 212 876 303 1112 456 1277 c 0
 609 1441 837 1542 1094 1542 c 0
 1270 1542 1415 1468 1507 1348 c 0
1418 2022 m 1
 1196 1638 l 1
 1134 1676 l 1
 1282 2070 l 1
 1418 2022 l 1
EndSplineSet
Validated: 1
EndChar

StartChar: Ocaron
Encoding: 465 465 71
Width: 1622
VWidth: 0
Flags: W
HStem: -32 128<679.75 1052.69> 1424 118<809.105 1180.75>
VStem: 212 264<354.257 918.564> 1390 258<584.375 1148.49>
DStem2: 963 1918 865 1844 0.736873 -0.676031<0 250.267> 1155 1744 1149 1660 0.690318 0.723506<0 226.544>
LayerCount: 2
Fore
SplineSet
1305 1247 m 0
 1248 1355 1147 1424 1020 1424 c 0
 888 1424 775 1382 702 1320 c 0
 629 1258 571 1161 539 1070 c 0
 507 978 487 861 481 774 c 0
 478 730 476 685 476 638 c 0
 476 491 504 365 561 262 c 0
 617 159 716 96 844 96 c 0
 975 96 1086 138 1160 200 c 0
 1234 262 1292 357 1325 447 c 0
 1357 537 1378 650 1385 735 c 0
 1388 778 1390 821 1390 864 c 0
 1390 1008 1361 1139 1305 1247 c 0
1507 1348 m 0
 1598 1228 1648 1066 1648 882 c 0
 1648 690 1596 504 1494 352 c 0
 1392 199 1254 82 1066 17 c 0
 972 -16 872 -32 766 -32 c 0
 541 -32 365 91 278 284 c 0
 234 381 212 490 212 612 c 0
 212 876 303 1112 456 1277 c 0
 609 1441 837 1542 1094 1542 c 0
 1270 1542 1415 1468 1507 1348 c 0
1083 1644 m 1
 865 1844 l 1
 963 1918 l 1
 1143 1744 l 1
 1155 1744 l 1
 1305 1914 l 1
 1357 1878 l 1
 1149 1660 l 1
 1083 1644 l 1
EndSplineSet
Validated: 1
EndChar

StartChar: Ocircumflex
Encoding: 212 212 72
Width: 1622
VWidth: 0
Flags: W
HStem: -32 128<681.265 1052.69> 1424 118<809.105 1180.75>
VStem: 212 264<353.82 919.502> 1390 258<584.375 1148.49>
LayerCount: 2
Fore
SplineSet
1305 1247 m 0
 1248 1355 1147 1424 1020 1424 c 0
 888 1424 775 1382 702 1320 c 0
 629 1258 571 1162 539 1071 c 0
 507 980 487 863 481 776 c 0
 478 732 476 687 476 640 c 0
 476 524 492 420 530 327 c 0
 568 234 621 165 705 126 c 0
 746 106 793 96 844 96 c 0
 975 96 1086 138 1160 200 c 0
 1234 262 1292 357 1325 447 c 0
 1357 537 1378 650 1385 735 c 0
 1388 778 1390 821 1390 864 c 0
 1390 1008 1361 1139 1305 1247 c 0
1507 1348 m 0
 1598 1228 1648 1066 1648 882 c 0
 1648 690 1596 504 1494 352 c 0
 1392 199 1254 82 1066 17 c 0
 972 -16 872 -32 766 -32 c 0
 541 -32 365 91 278 284 c 0
 234 381 212 490 212 612 c 0
 212 876 303 1112 456 1277 c 0
 609 1441 837 1542 1094 1542 c 0
 1270 1542 1415 1468 1507 1348 c 0
1132 1918 m 1
 1348 1694 l 1
 1288 1650 l 1
 1090 1782 l 1
 1078 1782 l 1
 908 1648 l 1
 862 1684 l 1
 1066 1902 l 1
 1132 1918 l 1
EndSplineSet
Validated: 1
EndChar

StartChar: Odieresis
Encoding: 214 214 73
Width: 1622
VWidth: 0
Flags: W
HStem: -32 128<681.265 1052.69> 1424 118<809.105 1180.75> 1680 192<856.896 1029.26 1180.9 1354.67>
VStem: 212 264<353.82 919.502> 840 206<1697.28 1855.52> 1164 208<1698.62 1854.23> 1390 258<584.375 1148.49>
LayerCount: 2
Fore
SplineSet
1305 1247 m 0
 1248 1355 1147 1424 1020 1424 c 0
 888 1424 775 1382 702 1320 c 0
 629 1258 571 1162 539 1071 c 0
 507 980 487 863 481 776 c 0
 478 732 476 687 476 640 c 0
 476 524 492 420 530 327 c 0
 568 234 621 165 705 126 c 0
 746 106 793 96 844 96 c 0
 975 96 1086 138 1160 200 c 0
 1234 262 1292 357 1325 447 c 0
 1357 537 1378 650 1385 735 c 0
 1388 778 1390 821 1390 864 c 0
 1390 1008 1361 1139 1305 1247 c 0
1507 1348 m 0
 1598 1228 1648 1066 1648 882 c 0
 1648 690 1596 504 1494 352 c 0
 1392 199 1254 82 1066 17 c 0
 972 -16 872 -32 766 -32 c 0
 541 -32 365 91 278 284 c 0
 234 381 212 490 212 612 c 0
 212 876 303 1112 456 1277 c 0
 609 1441 837 1542 1094 1542 c 0
 1270 1542 1415 1468 1507 1348 c 0
1372 1778 m 0
 1372 1721 1322 1680 1266 1680 c 0
 1211 1680 1164 1721 1164 1778 c 0
 1164 1834 1213 1872 1266 1872 c 0
 1322 1872 1372 1833 1372 1778 c 0
1046 1778 m 0
 1046 1721 998 1680 942 1680 c 0
 887 1680 840 1721 840 1778 c 0
 840 1834 889 1872 942 1872 c 0
 998 1872 1046 1833 1046 1778 c 0
EndSplineSet
Validated: 1
EndChar

StartChar: Ograve
Encoding: 210 210 74
Width: 1622
VWidth: 0
Flags: W
HStem: -32 128<681.265 1052.69> 1424 118<809.105 1180.75>
VStem: 212 264<353.82 919.502> 1390 258<584.375 1148.49>
LayerCount: 2
Fore
SplineSet
1305 1247 m 0
 1248 1355 1147 1424 1020 1424 c 0
 888 1424 775 1382 702 1320 c 0
 629 1258 571 1162 539 1071 c 0
 507 980 487 863 481 776 c 0
 478 732 476 687 476 640 c 0
 476 524 492 420 530 327 c 0
 568 234 621 165 705 126 c 0
 746 106 793 96 844 96 c 0
 975 96 1086 138 1160 200 c 0
 1234 262 1292 357 1325 447 c 0
 1357 537 1378 650 1385 735 c 0
 1388 778 1390 821 1390 864 c 0
 1390 1008 1361 1139 1305 1247 c 0
1507 1348 m 0
 1598 1228 1648 1066 1648 882 c 0
 1648 690 1596 504 1494 352 c 0
 1392 199 1254 82 1066 17 c 0
 972 -16 872 -32 766 -32 c 0
 541 -32 365 91 278 284 c 0
 234 381 212 490 212 612 c 0
 212 876 303 1112 456 1277 c 0
 609 1441 837 1542 1094 1542 c 0
 1270 1542 1415 1468 1507 1348 c 0
956 2014 m 1
 1096 2060 l 1
 1256 1656 l 1
 1186 1614 l 1
 956 2014 l 1
EndSplineSet
Validated: 1
EndChar

StartChar: Ohungarumlaut
Encoding: 336 336 75
Width: 1622
VWidth: 0
Flags: W
HStem: -32 128<679.75 1052.69> 1424 118<809.105 1180.75>
VStem: 212 264<354.257 918.564> 1390 258<584.375 1148.49>
LayerCount: 2
Fore
SplineSet
1305 1247 m 0
 1248 1355 1147 1424 1020 1424 c 0
 888 1424 775 1382 702 1320 c 0
 629 1258 571 1161 539 1070 c 0
 507 978 487 861 481 774 c 0
 478 730 476 685 476 638 c 0
 476 491 504 365 561 262 c 0
 617 159 716 96 844 96 c 0
 975 96 1086 138 1160 200 c 0
 1234 262 1292 357 1325 447 c 0
 1357 537 1378 650 1385 735 c 0
 1388 778 1390 821 1390 864 c 0
 1390 1008 1361 1139 1305 1247 c 0
1507 1348 m 0
 1598 1228 1648 1066 1648 882 c 0
 1648 690 1596 504 1494 352 c 0
 1392 199 1254 82 1066 17 c 0
 972 -16 872 -32 766 -32 c 0
 541 -32 365 91 278 284 c 0
 234 381 212 490 212 612 c 0
 212 876 303 1112 456 1277 c 0
 609 1441 837 1542 1094 1542 c 0
 1270 1542 1415 1468 1507 1348 c 0
1594 1852 m 1
 1242 1650 l 1
 1208 1710 l 1
 1506 1952 l 1
 1594 1852 l 1
1350 1858 m 1
 986 1650 l 1
 952 1710 l 1
 1260 1962 l 1
 1350 1858 l 1
EndSplineSet
Validated: 1
EndChar

StartChar: Omacron
Encoding: 332 332 76
Width: 1622
VWidth: 0
Flags: W
HStem: -32 128<679.75 1052.69> 1424 118<809.105 1180.75> 1674 122<846 1364>
VStem: 212 264<354.257 918.564> 1390 258<584.375 1148.49>
LayerCount: 2
Fore
SplineSet
1305 1247 m 0
 1248 1355 1147 1424 1020 1424 c 0
 888 1424 775 1382 702 1320 c 0
 629 1258 571 1161 539 1070 c 0
 507 978 487 861 481 774 c 0
 478 730 476 685 476 638 c 0
 476 491 504 365 561 262 c 0
 617 159 716 96 844 96 c 0
 975 96 1086 138 1160 200 c 0
 1234 262 1292 357 1325 447 c 0
 1357 537 1378 650 1385 735 c 0
 1388 778 1390 821 1390 864 c 0
 1390 1008 1361 1139 1305 1247 c 0
1507 1348 m 0
 1598 1228 1648 1066 1648 882 c 0
 1648 690 1596 504 1494 352 c 0
 1392 199 1254 82 1066 17 c 0
 972 -16 872 -32 766 -32 c 0
 541 -32 365 91 278 284 c 0
 234 381 212 490 212 612 c 0
 212 876 303 1112 456 1277 c 0
 609 1441 837 1542 1094 1542 c 0
 1270 1542 1415 1468 1507 1348 c 0
846 1796 m 1
 1380 1796 l 1
 1364 1674 l 1
 830 1674 l 1
 846 1796 l 1
EndSplineSet
Validated: 1
EndChar

StartChar: Oslash
Encoding: 216 216 77
Width: 1622
VWidth: 0
Flags: W
HStem: -32 128<512.201 1052.69> 1424 118<809.105 1181.53>
VStem: 212 264<354.257 918.564> 1390 258<584.375 1151.55>
DStem2: 1351 1480 1457 1404 0.551095 0.834443<-1795.59 -1667.06 -1386.13 -227.883 -5.78909 93.1924>
LayerCount: 2
Fore
SplineSet
570 247 m 1
 1266 1306 l 1
 1207 1379 1122 1424 1020 1424 c 0
 888 1424 775 1382 702 1320 c 0
 629 1258 571 1161 539 1070 c 0
 507 978 487 861 481 774 c 0
 478 730 476 685 476 638 c 0
 476 491 504 365 561 262 c 0
 564 257 567 252 570 247 c 1
1313 1232 m 1
 620 183 l 1
 622 181 624 178 624 176 c 0
 624 146 417 123 417 110 c 0
 417 101 514 96 844 96 c 0
 975 96 1086 138 1160 200 c 0
 1234 262 1292 357 1325 447 c 0
 1357 537 1378 650 1385 735 c 0
 1388 778 1390 821 1390 864 c 0
 1390 1001 1364 1127 1313 1232 c 1
1507 1348 m 0
 1598 1228 1648 1066 1648 882 c 0
 1648 690 1596 504 1494 352 c 0
 1392 199 1254 82 1066 17 c 0
 972 -16 872 -32 766 -32 c 0
 683 -32 607 -16 539 15 c 1
 470 -90 l 1
 311 -100 l 1
 431 82 l 1
 366 134 314 203 278 284 c 0
 234 381 212 490 212 612 c 0
 212 876 303 1112 456 1277 c 0
 609 1441 837 1542 1094 1542 c 0
 1190 1542 1277 1520 1351 1480 c 1
 1402 1558 l 1
 1565 1568 l 1
 1457 1404 l 1
 1475 1387 1492 1368 1507 1348 c 0
EndSplineSet
Validated: 1
EndChar

StartChar: Otilde
Encoding: 213 213 78
Width: 1622
VWidth: 0
Flags: W
HStem: -32 128<681.265 1052.69> 1424 118<809.105 1180.75> 1684 126<1150.48 1320.83> 1722 126<886.313 1047.86>
VStem: 212 264<353.82 919.502> 1390 258<584.375 1148.49>
LayerCount: 2
Fore
SplineSet
1305 1247 m 0xcc
 1248 1355 1147 1424 1020 1424 c 0
 888 1424 775 1382 702 1320 c 0
 629 1258 571 1162 539 1071 c 0
 507 980 487 863 481 776 c 0
 478 732 476 687 476 640 c 0
 476 524 492 420 530 327 c 0
 568 234 621 165 705 126 c 0
 746 106 793 96 844 96 c 0
 975 96 1086 138 1160 200 c 0
 1234 262 1292 357 1325 447 c 0
 1357 537 1378 650 1385 735 c 0
 1388 778 1390 821 1390 864 c 0
 1390 1008 1361 1139 1305 1247 c 0xcc
1507 1348 m 0
 1598 1228 1648 1066 1648 882 c 0
 1648 690 1596 504 1494 352 c 0
 1392 199 1254 82 1066 17 c 0
 972 -16 872 -32 766 -32 c 0
 541 -32 365 91 278 284 c 0
 234 381 212 490 212 612 c 0
 212 876 303 1112 456 1277 c 0
 609 1441 837 1542 1094 1542 c 0
 1270 1542 1415 1468 1507 1348 c 0
824 1674 m 1
 825 1677 826 1680 827 1684 c 0xec
 829 1692 839 1721 849 1743 c 0
 859 1765 876 1794 896 1814 c 0
 915 1833 943 1848 972 1848 c 0xdc
 974 1848 977 1848 980 1847 c 0
 983 1846 986 1846 988 1846 c 2
 1258 1810 l 1
 1262 1810 l 2xec
 1281 1810 1307 1831 1320 1848 c 2xdc
 1330 1860 l 1
 1388 1858 l 1
 1387 1853 1385 1847 1383 1839 c 0
 1378 1823 1357 1775 1335 1745 c 0
 1313 1715 1273 1684 1230 1684 c 2
 1216 1684 l 1xec
 946 1722 l 1
 942 1722 l 2xdc
 921 1722 893 1698 880 1678 c 1
 870 1664 l 1
 824 1674 l 1
EndSplineSet
Validated: 1
EndChar

StartChar: P
Encoding: 80 80 79
Width: 1296
VWidth: 0
Flags: W
HStem: 0 90<113 164.968 736.758 777> 594 110<683 962.092> 1374 92<337 386.662> 1420 100<735 1031.5>
VStem: 1163 248<943.815 1289.69>
DStem2: 292.876 0 511.559 0 0.156434 0.987688<184.054 1354.08>
LayerCount: 2
Fore
SplineSet
1411 1158 m 0xd8
 1411 995 1339 847 1228 751 c 0
 1117 654 966 594 813 594 c 0
 775 594 732 597 683 604 c 1
 675 704 l 1
 737 704 l 2
 1022 704 1163 847 1163 1110 c 0
 1163 1295 1063 1420 859 1420 c 1xd8
 735 1414 l 1
 535 148 l 1
 803 102 l 1
 777 0 l 1
 93 0 l 1
 113 90 l 1
 316 146 l 1
 501 1338 l 1
 311 1374 l 1
 337 1466 l 1xe8
 565 1502 752 1520 897 1520 c 0
 1240 1520 1411 1399 1411 1158 c 0xd8
EndSplineSet
Validated: 1
EndChar

StartChar: Q
Encoding: 81 81 80
Width: 1638
VWidth: 0
Flags: W
HStem: -466 132<1248.71 1397.23> -32 21G<655.5 787.5> 1414 128<827.197 1182.85>
VStem: 210 246<404.796 901.165> 1416 250<598.335 1110.83>
LayerCount: 2
Fore
SplineSet
1353 1161 m 0
 1309 1261 1250 1338 1164 1382 c 0
 1121 1403 1074 1414 1024 1414 c 0
 675 1414 456 1138 456 678 c 0
 456 567 472 466 517 363 c 1
 561 259 624 180 732 128 c 1
 785 101 846 86 914 82 c 1
 1037 113 1140 170 1208 232 c 0
 1276 294 1329 379 1359 456 c 0
 1389 533 1406 630 1412 705 c 0
 1415 742 1416 782 1416 824 c 0
 1416 945 1396 1061 1353 1161 c 0
840 -76 m 0
 840 -55 841 -38 842 -26 c 1
 832 -30 807 -32 768 -32 c 0
 543 -32 366 91 277 284 c 0
 232 381 210 490 210 612 c 0
 210 872 307 1111 466 1276 c 0
 625 1440 857 1542 1110 1542 c 0
 1285 1542 1431 1470 1523 1352 c 0
 1615 1234 1666 1073 1666 892 c 0
 1666 609 1550 351 1342 175 c 0
 1237 86 1117 25 980 -8 c 1
 1001 -96 1032 -154 1098 -210 c 0
 1164 -266 1269 -306 1426 -334 c 1
 1421 -371 1413 -401 1400 -424 c 1
 1341 -452 1271 -466 1190 -466 c 0
 986 -466 840 -316 840 -76 c 0
EndSplineSet
Validated: 1
EndChar

StartChar: R
Encoding: 82 82 81
Width: 1411
VWidth: 0
Flags: W
HStem: -26 21G<1219.5 1327> 0 90<114 165.968 699.443 725> 650 110<632 816> 1370 92<338 387.255> 1416 102<736 1025.84>
VStem: 1146 250<1010.27 1293.19>
DStem2: 289.758 -26 509.808 -26 0.156434 0.987688<214.642 718.713 829.862 1376.77>
LayerCount: 2
Fore
SplineSet
1328 1376 m 0xec
 1370 1328 1396 1259 1396 1183 c 0
 1396 1099 1365 1005 1291 918 c 0
 1220 835 1122 771 996 726 c 1
 996 724 l 1
 1156 422 l 2
 1192 354 1206 329 1234 281 c 0
 1262 232 1278 214 1306 183 c 1
 1333 151 1357 137 1390 119 c 0
 1406 110 1424 101 1444 94 c 2
 1478 82 l 1
 1448 0 l 1
 1398 -17 1350 -26 1304 -26 c 0
 1135 -26 1028 97 948 306 c 2
 816 650 l 1
 616 650 l 1
 538 152 l 1
 748 100 l 1
 725 0 l 1
 94 0 l 1
 114 90 l 1
 317 146 l 1
 504 1334 l 1
 310 1370 l 1
 338 1462 l 1xf4
 567 1499 746 1518 874 1518 c 0
 1086 1518 1239 1476 1328 1376 c 0xec
632 760 m 1
 824 760 l 2
 987 760 1146 916 1146 1120 c 0
 1146 1288 1046 1416 878 1416 c 0xec
 830 1416 777 1413 754 1412 c 1
 736 1410 l 1
 632 760 l 1
EndSplineSet
Validated: 1
EndChar

StartChar: Racute
Encoding: 340 340 82
Width: 1411
VWidth: 0
Flags: W
HStem: -26 21G<1219.5 1327> 0 90<114 165.968 699.443 725> 650 110<632 816> 1370 92<338 387.255> 1416 102<736 1030.36>
VStem: 1146 250<1010.27 1297.96>
DStem2: 289.758 -26 509.808 -26 0.156434 0.987688<214.642 718.713 829.862 1376.77>
LayerCount: 2
Fore
SplineSet
1328 1376 m 0xec
 1370 1328 1396 1259 1396 1183 c 0
 1396 1099 1365 1005 1291 918 c 0
 1220 835 1122 771 996 726 c 1
 996 724 l 1
 1156 422 l 2
 1192 354 1206 329 1234 281 c 0
 1262 232 1278 214 1306 183 c 1
 1333 151 1357 137 1390 119 c 0
 1406 110 1424 101 1444 94 c 2
 1478 82 l 1
 1448 0 l 1
 1398 -17 1350 -26 1304 -26 c 0
 1135 -26 1028 97 948 306 c 2
 816 650 l 1
 616 650 l 1
 538 152 l 1
 748 100 l 1
 725 0 l 1
 94 0 l 1
 114 90 l 1
 317 146 l 1
 504 1334 l 1
 310 1370 l 1
 338 1462 l 1xf4
 567 1499 746 1518 874 1518 c 0
 1086 1518 1239 1476 1328 1376 c 0xec
632 760 m 1
 824 760 l 2
 987 760 1146 916 1146 1120 c 0
 1146 1296 1047 1416 878 1416 c 0xec
 830 1416 777 1413 754 1412 c 1
 736 1410 l 1
 632 760 l 1
1260 2018 m 1
 1038 1634 l 1
 976 1672 l 1
 1124 2066 l 1
 1260 2018 l 1
EndSplineSet
Validated: 1
EndChar

StartChar: Rcaron
Encoding: 344 344 83
Width: 1411
VWidth: 0
Flags: W
HStem: -26 21G<1219.5 1327> 0 90<114 165.968 699.443 725> 650 110<632 816> 1370 92<338 387.255> 1416 102<736 1030.36>
VStem: 1146 250<1010.27 1297.96>
DStem2: 289.758 -26 509.808 -26 0.156434 0.987688<214.642 718.713 829.862 1376.77> 800 1918 702 1844 0.736873 -0.676031<0 250.267> 992 1744 986 1660 0.690318 0.723506<0 226.544>
LayerCount: 2
Fore
SplineSet
1328 1376 m 0xec
 1370 1328 1396 1259 1396 1183 c 0
 1396 1099 1365 1005 1291 918 c 0
 1220 835 1122 771 996 726 c 1
 996 724 l 1
 1156 422 l 2
 1192 354 1206 329 1234 281 c 0
 1262 232 1278 214 1306 183 c 1
 1333 151 1357 137 1390 119 c 0
 1406 110 1424 101 1444 94 c 2
 1478 82 l 1
 1448 0 l 1
 1398 -17 1350 -26 1304 -26 c 0
 1135 -26 1028 97 948 306 c 2
 816 650 l 1
 616 650 l 1
 538 152 l 1
 748 100 l 1
 725 0 l 1
 94 0 l 1
 114 90 l 1
 317 146 l 1
 504 1334 l 1
 310 1370 l 1
 338 1462 l 1xf4
 567 1499 746 1518 874 1518 c 0
 1086 1518 1239 1476 1328 1376 c 0xec
632 760 m 1
 824 760 l 2
 987 760 1146 916 1146 1120 c 0
 1146 1296 1047 1416 878 1416 c 0xec
 830 1416 777 1413 754 1412 c 1
 736 1410 l 1
 632 760 l 1
920 1644 m 1
 702 1844 l 1
 800 1918 l 1
 980 1744 l 1
 992 1744 l 1
 1142 1914 l 1
 1194 1878 l 1
 986 1660 l 1
 920 1644 l 1
EndSplineSet
Validated: 1
EndChar

StartChar: Rcommaaccent
Encoding: 342 342 84
Width: 1411
VWidth: 0
Flags: W
HStem: -26 21G<1219.5 1327> 0 90<114 165.968 699.443 725> 650 110<632 816> 1370 92<338 387.255> 1416 102<736 1030.36>
VStem: 1146 250<1010.27 1297.96>
DStem2: 289.758 -26 509.808 -26 0.156434 0.987688<214.642 718.713 829.862 1376.77>
LayerCount: 2
Fore
SplineSet
1328 1376 m 0xec
 1370 1328 1396 1259 1396 1183 c 0
 1396 1099 1365 1005 1291 918 c 0
 1220 835 1122 771 996 726 c 1
 996 724 l 1
 1156 422 l 2
 1192 354 1206 329 1234 281 c 0
 1262 232 1278 214 1306 183 c 1
 1333 151 1357 137 1390 119 c 0
 1406 110 1424 101 1444 94 c 2
 1478 82 l 1
 1448 0 l 1
 1398 -17 1350 -26 1304 -26 c 0
 1135 -26 1028 97 948 306 c 2
 816 650 l 1
 616 650 l 1
 538 152 l 1
 748 100 l 1
 725 0 l 1
 94 0 l 1
 114 90 l 1
 317 146 l 1
 504 1334 l 1
 310 1370 l 1
 338 1462 l 1xf4
 567 1499 746 1518 874 1518 c 0
 1086 1518 1239 1476 1328 1376 c 0xec
632 760 m 1
 824 760 l 2
 987 760 1146 916 1146 1120 c 0
 1146 1296 1047 1416 878 1416 c 0xec
 830 1416 777 1413 754 1412 c 1
 736 1410 l 1
 632 760 l 1
EndSplineSet
Validated: 1
EndChar

StartChar: S
Encoding: 83 83 85
Width: 1105
VWidth: 0
Flags: W
HStem: -30 124<389.587 724.248> 1074 21G<944 1062.56> 1434 104<633.359 896.232>
VStem: 202 114<403.693 454> 310 214<1019.93 1237.17> 858 228<274.212 482.861> 944 114<1088 1136.86>
DStem2: 636 947 584 668 0.773957 -0.633238<-165.864 520.796>
LayerCount: 2
Fore
SplineSet
1058 1074 m 1xea
 944 1088 l 1
 950 1320 l 1
 939 1364 862 1434 774 1434 c 0
 635 1434 524 1325 524 1152 c 0xea
 524 1073 570 1001 636 947 c 0
 669 920 705 893 745 867 c 0
 825 814 909 760 975 700 c 0
 1041 640 1086 557 1086 464 c 0
 1086 316 1011 185 899 102 c 0
 786 19 641 -30 494 -30 c 0
 331 -30 181 48 134 148 c 1
 202 472 l 1
 316 454 l 1
 322 226 l 1
 355 145 431 94 542 94 c 0
 598 94 654 105 711 131 c 0
 767 157 810 194 838 256 c 0
 851 287 858 321 858 359 c 0xf4
 858 422 824 483 773 529 c 0
 721 575 652 625 584 668 c 0
 516 711 447 767 396 822 c 0
 344 877 310 953 310 1034 c 0
 310 1154 353 1266 421 1346 c 0
 489 1426 579 1486 679 1516 c 0
 729 1531 779 1538 830 1538 c 0
 947 1538 1067 1503 1136 1416 c 1
 1058 1074 l 1xea
EndSplineSet
Validated: 1
EndChar

StartChar: Sacute
Encoding: 346 346 86
Width: 1105
VWidth: 0
Flags: W
HStem: -30 124<389.587 724.248> 1074 21G<944 1062.56> 1434 104<633.359 896.232>
VStem: 202 114<403.693 454> 310 214<1019.93 1237.17> 858 228<274.212 482.861> 944 114<1088 1136.86>
DStem2: 636 947 584 668 0.773957 -0.633238<-165.864 520.796>
LayerCount: 2
Fore
SplineSet
1058 1074 m 1xea
 944 1088 l 1
 950 1320 l 1
 939 1364 862 1434 774 1434 c 0
 635 1434 524 1325 524 1152 c 0xea
 524 1073 570 1001 636 947 c 0
 669 920 705 893 745 867 c 0
 825 814 909 760 975 700 c 0
 1041 640 1086 557 1086 464 c 0
 1086 316 1011 185 899 102 c 0
 786 19 641 -30 494 -30 c 0
 331 -30 181 48 134 148 c 1
 202 472 l 1
 316 454 l 1
 322 226 l 1
 355 145 431 94 542 94 c 0
 598 94 654 105 711 131 c 0
 767 157 810 194 838 256 c 0
 851 287 858 321 858 359 c 0xf4
 858 422 824 483 773 529 c 0
 721 575 652 625 584 668 c 0
 516 711 447 767 396 822 c 0
 344 877 310 953 310 1034 c 0
 310 1154 353 1266 421 1346 c 0
 489 1426 579 1486 679 1516 c 0
 729 1531 779 1538 830 1538 c 0
 947 1538 1067 1503 1136 1416 c 1
 1058 1074 l 1xea
1170 2022 m 1
 948 1638 l 1
 886 1676 l 1
 1034 2070 l 1
 1170 2022 l 1
EndSplineSet
Validated: 1
EndChar

StartChar: Scaron
Encoding: 352 352 87
Width: 1105
VWidth: 0
Flags: W
HStem: -30 124<389.587 724.248> 1074 21G<944 1062.56> 1434 104<633.359 896.232>
VStem: 202 114<403.693 454> 310 214<1019.51 1237.17> 858 228<274.212 482.68> 944 114<1088 1136.86>
DStem2: 636 945 584 668 0.768221 -0.640184<-168.452 528.874> 710 1922 612 1848 0.736873 -0.676031<0 250.267> 902 1748 896 1664 0.690318 0.723506<0 226.544>
LayerCount: 2
Fore
SplineSet
1058 1074 m 1xea
 944 1088 l 1
 950 1320 l 1
 939 1364 862 1434 774 1434 c 0
 635 1434 524 1325 524 1152 c 0xea
 524 1073 570 1000 636 945 c 0
 669 918 705 891 745 864 c 0
 825 810 909 756 975 697 c 0
 1041 637 1086 555 1086 464 c 0
 1086 316 1011 185 899 102 c 0
 786 19 641 -30 494 -30 c 0
 331 -30 181 48 134 148 c 1
 202 472 l 1
 316 454 l 1
 322 226 l 1
 355 145 431 94 542 94 c 0
 598 94 654 105 711 131 c 0
 767 157 810 194 838 256 c 0
 851 287 858 321 858 359 c 0xf4
 858 422 824 483 773 529 c 0
 721 575 652 625 584 668 c 0
 516 711 447 767 396 822 c 0
 344 877 310 953 310 1034 c 0
 310 1154 353 1266 421 1346 c 0
 489 1426 579 1486 679 1516 c 0
 729 1531 779 1538 830 1538 c 0
 947 1538 1067 1503 1136 1416 c 1
 1058 1074 l 1xea
830 1648 m 1
 612 1848 l 1
 710 1922 l 1
 890 1748 l 1
 902 1748 l 1
 1052 1918 l 1
 1104 1882 l 1
 896 1664 l 1
 830 1648 l 1
EndSplineSet
Validated: 1
EndChar

StartChar: Scedilla
Encoding: 350 350 88
Width: 1108
VWidth: 0
Flags: W
HStem: -30 124<390.84 519> 1074 21G<945 1063.56> 1434 104<634.359 897.232>
VStem: 203 114<403.693 454> 311 214<1019.93 1237.17> 513 162<-369.757 -212.83> 859 228<271.983 482.861> 945 114<1088 1136.86>
DStem2: 637 947 585 668 0.777738 -0.628588<-163.843 516.885>
LayerCount: 2
Fore
SplineSet
567 -92 m 1xea
 639 -155 675 -215 675 -274 c 0
 675 -357 594 -423 433 -472 c 1
 409 -400 l 1
 476 -377 513 -337 513 -300 c 0
 513 -267 484 -222 425 -166 c 1
 519 -30 l 1
 495 -30 l 2
 332 -30 182 48 135 148 c 1
 203 472 l 1
 317 454 l 1
 323 226 l 1
 356 145 432 94 543 94 c 0
 599 94 655 105 712 131 c 0
 768 157 811 194 839 256 c 0
 852 287 859 321 859 359 c 0xf6
 859 422 825 483 774 529 c 0
 722 575 653 625 585 668 c 0
 517 711 448 767 397 822 c 0
 345 877 311 953 311 1034 c 0
 311 1154 354 1266 422 1346 c 0
 490 1426 580 1486 680 1516 c 0
 730 1531 780 1538 831 1538 c 0
 948 1538 1068 1503 1137 1416 c 1
 1059 1074 l 1
 945 1088 l 1xe9
 951 1320 l 1
 940 1364 863 1434 775 1434 c 0
 636 1434 525 1325 525 1152 c 0
 525 1073 571 1001 637 947 c 0
 670 920 706 893 746 867 c 0
 826 814 910 760 976 700 c 0
 1042 640 1087 557 1087 464 c 0
 1087 336 1032 219 944 139 c 0
 856 58 742 3 617 -20 c 1
 567 -92 l 1xea
EndSplineSet
Validated: 1
EndChar

StartChar: Scommaaccent
Encoding: 536 536 89
Width: 1105
VWidth: 0
Flags: W
HStem: -484 48<430.611 481.887> -236 128<492.685 606.5> -30 124<389.587 724.248> 1074 21G<944 1062.56> 1434 104<633.359 896.232>
VStem: 202 114<403.693 454> 310 214<1019.93 1237.17> 573 108<-358.975 -191.38> 858 228<274.212 482.861> 944 114<1088 1136.86>
DStem2: 636 947 584 668 0.773957 -0.633238<-165.864 520.796>
LayerCount: 2
Fore
SplineSet
1058 1074 m 1xfb40
 944 1088 l 1
 950 1320 l 1
 939 1364 862 1434 774 1434 c 0
 635 1434 524 1325 524 1152 c 0xfb40
 524 1073 570 1001 636 947 c 0
 669 920 705 893 745 867 c 0
 825 814 909 760 975 700 c 0
 1041 640 1086 557 1086 464 c 0
 1086 316 1011 185 899 102 c 0
 786 19 641 -30 494 -30 c 0
 331 -30 181 48 134 148 c 1
 202 472 l 1
 316 454 l 1
 322 226 l 1
 355 145 431 94 542 94 c 0
 598 94 654 105 711 131 c 0
 767 157 810 194 838 256 c 0
 851 287 858 321 858 359 c 0xfd80
 858 422 824 483 773 529 c 0
 721 575 652 625 584 668 c 0
 516 711 447 767 396 822 c 0
 344 877 310 953 310 1034 c 0
 310 1154 353 1266 421 1346 c 0
 489 1426 579 1486 679 1516 c 0
 729 1531 779 1538 830 1538 c 0
 947 1538 1067 1503 1136 1416 c 1
 1058 1074 l 1xfb40
425 -436 m 1
 514 -411 573 -353 573 -306 c 0
 573 -263 549 -236 501 -236 c 0
 498 -236 492 -237 481 -240 c 1
 477 -226 475 -213 475 -202 c 0
 475 -149 533 -108 577 -108 c 0
 636 -108 681 -143 681 -240 c 0
 681 -277 665 -320 630 -368 c 0
 594 -416 524 -461 433 -484 c 1
 425 -436 l 1
EndSplineSet
Validated: 1
EndChar

StartChar: T
Encoding: 84 84 90
Width: 1345
VWidth: 0
Flags: W
HStem: 0 90<376 427.712 942.475 980> 1396 110<436 776 998 1348>
VStem: 1348 108<1116 1155.34>
DStem2: 554.876 0 776.143 0 0.156434 0.987688<174.334 1413.4>
LayerCount: 2
Fore
SplineSet
276 1506 m 1
 1558 1506 l 1
 1456 1098 l 1
 1348 1116 l 1
 1348 1396 l 1
 998 1396 l 1
 798 138 l 1
 1004 98 l 1
 980 0 l 1
 356 0 l 1
 376 90 l 1
 578 146 l 1
 776 1396 l 1
 436 1396 l 1
 328 1102 l 1
 224 1118 l 1
 276 1506 l 1
EndSplineSet
Validated: 1
EndChar

StartChar: Tbar
Encoding: 358 358 91
Width: 1345
VWidth: 0
Flags: W
HStem: 0 90<376 427.712 942.475 980> 1396 110<436 776 998 1348> 1670 121<646 1164>
VStem: 1348 108<1116 1155.34>
DStem2: 554.876 0 776.143 0 0.156434 0.987688<174.334 1413.4>
LayerCount: 2
Fore
SplineSet
276 1506 m 1
 1558 1506 l 1
 1456 1098 l 1
 1348 1116 l 1
 1348 1396 l 1
 998 1396 l 1
 798 138 l 1
 1004 98 l 1
 980 0 l 1
 356 0 l 1
 376 90 l 1
 578 146 l 1
 776 1396 l 1
 436 1396 l 1
 328 1102 l 1
 224 1118 l 1
 276 1506 l 1
646 1791 m 1
 1180 1791 l 1
 1164 1670 l 1
 630 1670 l 1
 646 1791 l 1
EndSplineSet
Validated: 1
EndChar

StartChar: Tcaron
Encoding: 356 356 92
Width: 1345
VWidth: 0
Flags: W
HStem: 0 90<376 427.712 942.475 980> 1396 110<436 776 998 1348>
VStem: 1348 108<1116 1155.34>
DStem2: 554.876 0 776.143 0 0.156434 0.987688<174.334 1413.4> 794 1918 696 1844 0.736873 -0.676031<0 250.267> 986 1744 980 1660 0.690318 0.723506<0 226.544>
LayerCount: 2
Fore
SplineSet
276 1506 m 1
 1558 1506 l 1
 1456 1098 l 1
 1348 1116 l 1
 1348 1396 l 1
 998 1396 l 1
 798 138 l 1
 1004 98 l 1
 980 0 l 1
 356 0 l 1
 376 90 l 1
 578 146 l 1
 776 1396 l 1
 436 1396 l 1
 328 1102 l 1
 224 1118 l 1
 276 1506 l 1
914 1644 m 1
 696 1844 l 1
 794 1918 l 1
 974 1744 l 1
 986 1744 l 1
 1136 1914 l 1
 1188 1878 l 1
 980 1660 l 1
 914 1644 l 1
EndSplineSet
Validated: 1
EndChar

StartChar: Tcedilla
Encoding: 354 354 93
Width: 1345
VWidth: 0
Flags: W
HStem: 0 90<376 427.712 942.475 980> 1396 110<436 776 998 1348>
VStem: 636 162<-369.757 -212.83> 1348 108<1116 1155.34>
DStem2: 480.118 -472 701.385 -472 0.156434 0.987688<652.218 1891.29>
LayerCount: 2
Fore
SplineSet
690 -92 m 1
 762 -155 798 -215 798 -274 c 0
 798 -357 717 -423 556 -472 c 1
 532 -400 l 1
 599 -377 636 -337 636 -300 c 0
 636 -267 607 -222 548 -166 c 1
 664 0 l 1
 356 0 l 1
 376 90 l 1
 578 146 l 1
 776 1396 l 1
 436 1396 l 1
 328 1102 l 1
 224 1118 l 1
 276 1506 l 1
 1558 1506 l 1
 1456 1098 l 1
 1348 1116 l 1
 1348 1396 l 1
 998 1396 l 1
 798 138 l 1
 1004 98 l 1
 980 0 l 1
 754 0 l 1
 690 -92 l 1
EndSplineSet
Validated: 1
EndChar

StartChar: Tcommaaccent
Encoding: 538 538 94
Width: 1345
VWidth: 0
Flags: W
HStem: -484 48<550.611 601.887> -236 128<612.685 726.5> 0 90<376 427.712 942.475 980> 1396 110<436 776 998 1348>
VStem: 693 108<-358.975 -191.38> 1348 108<1116 1155.34>
DStem2: 478.218 -484 699.485 -484 0.156434 0.987688<664.367 1903.44>
LayerCount: 2
Fore
SplineSet
276 1506 m 1
 1558 1506 l 1
 1456 1098 l 1
 1348 1116 l 1
 1348 1396 l 1
 998 1396 l 1
 798 138 l 1
 1004 98 l 1
 980 0 l 1
 356 0 l 1
 376 90 l 1
 578 146 l 1
 776 1396 l 1
 436 1396 l 1
 328 1102 l 1
 224 1118 l 1
 276 1506 l 1
545 -436 m 1
 634 -411 693 -353 693 -306 c 0
 693 -263 669 -236 621 -236 c 0
 618 -236 612 -237 601 -240 c 1
 597 -226 595 -213 595 -202 c 0
 595 -149 653 -108 697 -108 c 0
 756 -108 801 -143 801 -240 c 0
 801 -277 785 -320 750 -368 c 0
 714 -416 644 -461 553 -484 c 1
 545 -436 l 1
EndSplineSet
Validated: 1
EndChar

StartChar: Thorn
Encoding: 222 222 95
Width: 1311
VWidth: 0
Flags: W
HStem: 0 90<118 169.2 682.475 721> 334 110<654 933.092> 1160 100<716.437 1003.67> 1414 92<328 365.917 872.423 936>
VStem: 1134 248<683.815 1031.61>
DStem2: 294.876 0 516.143 0 0.156434 0.987688<174.334 1198.9 1304.13 1380.86>
LayerCount: 2
Fore
SplineSet
732 1368 m 1
 714 1254 l 1
 766 1258 817 1260 868 1260 c 0
 981 1260 1076 1248 1165 1214 c 0
 1254 1180 1317 1128 1354 1044 c 0
 1373 1001 1382 953 1382 898 c 0
 1382 735 1310 587 1199 491 c 0
 1088 394 937 334 784 334 c 0
 746 334 703 337 654 344 c 1
 646 444 l 1
 708 444 l 2
 993 444 1134 587 1134 850 c 0
 1134 1035 1034 1160 830 1160 c 1
 706 1154 l 1
 698 1150 l 1
 538 138 l 1
 744 98 l 1
 721 0 l 1
 100 0 l 1
 118 90 l 1
 318 146 l 1
 510 1364 l 1
 308 1414 l 1
 328 1506 l 1
 956 1506 l 1
 936 1414 l 1
 732 1368 l 1
EndSplineSet
Validated: 1
EndChar

StartChar: U
Encoding: 85 85 96
Width: 1643
VWidth: 0
Flags: W
HStem: -32 144<702.832 1074.51> 1414 92<287 324.064 829.423 893 1287 1326.34 1756.05 1819>
VStem: 333 224<261.092 766.719>
DStem2: 249.969 -32 469.218 -32 0.156434 0.987688<539.734 1413.39> 1245.37 -32 1390.27 -32 0.156434 0.987688<363.049 1413.8>
LayerCount: 2
Fore
SplineSet
569 598 m 2
 561 548 557 503 557 464 c 0
 557 225 684 112 895 112 c 0
 991 112 1074 136 1131 172 c 0
 1187 207 1236 265 1265 318 c 0
 1293 370 1317 444 1329 496 c 0
 1335 522 1340 551 1345 582 c 2
 1469 1364 l 1
 1269 1414 l 1
 1287 1506 l 1
 1839 1506 l 1
 1819 1414 l 1
 1617 1368 l 1
 1491 604 l 1
 1420 180 1189 -32 797 -32 c 0
 710 -32 637 -22 551 18 c 0
 465 58 404 116 364 226 c 0
 343 281 333 344 333 416 c 0
 333 461 337 512 345 568 c 2
 471 1364 l 1
 265 1414 l 1
 287 1506 l 1
 911 1506 l 1
 893 1414 l 1
 689 1368 l 1
 569 598 l 2
EndSplineSet
Validated: 1
EndChar

StartChar: Uacute
Encoding: 218 218 97
Width: 1643
VWidth: 0
Flags: W
HStem: -32 144<702.832 1074.51> 1414 92<287 324.064 829.423 893 1287 1326.34 1756.05 1819>
VStem: 333 224<261.092 766.719>
DStem2: 249.969 -32 469.218 -32 0.156434 0.987688<539.734 1413.39> 1245.37 -32 1390.27 -32 0.156434 0.987688<363.049 1413.8>
LayerCount: 2
Fore
SplineSet
569 598 m 2
 561 548 557 503 557 464 c 0
 557 225 684 112 895 112 c 0
 991 112 1074 136 1131 172 c 0
 1187 207 1236 265 1265 318 c 0
 1293 370 1317 444 1329 496 c 0
 1335 522 1340 551 1345 582 c 2
 1469 1364 l 1
 1269 1414 l 1
 1287 1506 l 1
 1839 1506 l 1
 1819 1414 l 1
 1617 1368 l 1
 1491 604 l 1
 1420 180 1189 -32 797 -32 c 0
 710 -32 637 -22 551 18 c 0
 465 58 404 116 364 226 c 0
 343 281 333 344 333 416 c 0
 333 461 337 512 345 568 c 2
 471 1364 l 1
 265 1414 l 1
 287 1506 l 1
 911 1506 l 1
 893 1414 l 1
 689 1368 l 1
 569 598 l 2
1351 2008 m 1
 1129 1624 l 1
 1067 1662 l 1
 1215 2056 l 1
 1351 2008 l 1
EndSplineSet
Validated: 1
EndChar

StartChar: Ucaron
Encoding: 467 467 98
Width: 1643
VWidth: 0
Flags: W
HStem: -32 144<702.832 1074.51> 1414 92<287 324.064 829.423 893 1287 1326.34 1756.05 1819>
VStem: 333 224<261.092 766.719>
DStem2: 249.969 -32 469.218 -32 0.156434 0.987688<539.734 1413.39> 1006 1918 908 1844 0.736873 -0.676031<0 250.267> 1198 1744 1192 1660 0.690318 0.723506<0 226.544> 1245.37 -32 1390.27 -32 0.156434 0.987688<363.049 1413.8>
LayerCount: 2
Fore
SplineSet
569 598 m 2
 561 548 557 503 557 464 c 0
 557 225 684 112 895 112 c 0
 991 112 1074 136 1131 172 c 0
 1187 207 1236 265 1265 318 c 0
 1293 370 1317 444 1329 496 c 0
 1335 522 1340 551 1345 582 c 2
 1469 1364 l 1
 1269 1414 l 1
 1287 1506 l 1
 1839 1506 l 1
 1819 1414 l 1
 1617 1368 l 1
 1491 604 l 1
 1420 180 1189 -32 797 -32 c 0
 710 -32 637 -22 551 18 c 0
 465 58 404 116 364 226 c 0
 343 281 333 344 333 416 c 0
 333 461 337 512 345 568 c 2
 471 1364 l 1
 265 1414 l 1
 287 1506 l 1
 911 1506 l 1
 893 1414 l 1
 689 1368 l 1
 569 598 l 2
1126 1644 m 1
 908 1844 l 1
 1006 1918 l 1
 1186 1744 l 1
 1198 1744 l 1
 1348 1914 l 1
 1400 1878 l 1
 1192 1660 l 1
 1126 1644 l 1
EndSplineSet
Validated: 1
EndChar

StartChar: Ucircumflex
Encoding: 219 219 99
Width: 1643
VWidth: 0
Flags: W
HStem: -32 144<702.832 1074.51> 1414 92<287 324.064 829.423 893 1287 1326.34 1756.05 1819>
VStem: 333 224<261.092 766.719>
DStem2: 249.969 -32 469.218 -32 0.156434 0.987688<539.734 1413.39> 1245.37 -32 1390.27 -32 0.156434 0.987688<363.049 1413.8>
LayerCount: 2
Fore
SplineSet
569 598 m 2
 561 548 557 503 557 464 c 0
 557 225 684 112 895 112 c 0
 991 112 1074 136 1131 172 c 0
 1187 207 1236 265 1265 318 c 0
 1293 370 1317 444 1329 496 c 0
 1335 522 1340 551 1345 582 c 2
 1469 1364 l 1
 1269 1414 l 1
 1287 1506 l 1
 1839 1506 l 1
 1819 1414 l 1
 1617 1368 l 1
 1491 604 l 1
 1420 180 1189 -32 797 -32 c 0
 710 -32 637 -22 551 18 c 0
 465 58 404 116 364 226 c 0
 343 281 333 344 333 416 c 0
 333 461 337 512 345 568 c 2
 471 1364 l 1
 265 1414 l 1
 287 1506 l 1
 911 1506 l 1
 893 1414 l 1
 689 1368 l 1
 569 598 l 2
1145 1914 m 1
 1361 1689 l 1
 1301 1646 l 1
 1103 1778 l 1
 1091 1778 l 1
 921 1644 l 1
 875 1680 l 1
 1079 1898 l 1
 1145 1914 l 1
EndSplineSet
Validated: 1
EndChar

StartChar: Udieresis
Encoding: 220 220 100
Width: 1643
VWidth: 0
Flags: W
HStem: -32 144<702.832 1074.51> 1414 92<287 324.064 829.423 893 1287 1326.34 1756.05 1819> 1676 192<869.896 1042.26 1193.9 1367.67>
VStem: 333 224<261.092 766.719> 853 206<1693.28 1851.52> 1177 208<1694.62 1850.23>
DStem2: 249.969 -32 469.218 -32 0.156434 0.987688<539.734 1413.39> 1245.37 -32 1390.27 -32 0.156434 0.987688<363.049 1413.8>
LayerCount: 2
Fore
SplineSet
569 598 m 2
 561 548 557 503 557 464 c 0
 557 225 684 112 895 112 c 0
 991 112 1074 136 1131 172 c 0
 1187 207 1236 265 1265 318 c 0
 1293 370 1317 444 1329 496 c 0
 1335 522 1340 551 1345 582 c 2
 1469 1364 l 1
 1269 1414 l 1
 1287 1506 l 1
 1839 1506 l 1
 1819 1414 l 1
 1617 1368 l 1
 1491 604 l 1
 1420 180 1189 -32 797 -32 c 0
 710 -32 637 -22 551 18 c 0
 465 58 404 116 364 226 c 0
 343 281 333 344 333 416 c 0
 333 461 337 512 345 568 c 2
 471 1364 l 1
 265 1414 l 1
 287 1506 l 1
 911 1506 l 1
 893 1414 l 1
 689 1368 l 1
 569 598 l 2
1385 1774 m 0
 1385 1717 1335 1676 1279 1676 c 0
 1224 1676 1177 1717 1177 1774 c 0
 1177 1830 1226 1868 1279 1868 c 0
 1335 1868 1385 1829 1385 1774 c 0
1059 1774 m 0
 1059 1717 1011 1676 955 1676 c 0
 900 1676 853 1717 853 1774 c 0
 853 1830 902 1868 955 1868 c 0
 1011 1868 1059 1829 1059 1774 c 0
EndSplineSet
Validated: 1
EndChar

StartChar: Udieresisacute
Encoding: 471 471 101
Width: 1643
VWidth: 0
Flags: W
HStem: -32 144<702.832 1074.51> 1414 92<287 324.064 829.423 893 1287 1326.34 1756.05 1819> 1676 192<904.896 1077.26 1228.9 1402.67>
VStem: 333 224<261.092 766.719> 888 206<1693.28 1851.52> 1212 208<1694.62 1850.23>
DStem2: 249.969 -32 469.218 -32 0.156434 0.987688<539.734 1413.39> 1245.37 -32 1390.27 -32 0.156434 0.987688<363.049 1413.8>
LayerCount: 2
Fore
SplineSet
1418 2282 m 1
 1196 1898 l 1
 1134 1936 l 1
 1282 2330 l 1
 1418 2282 l 1
569 598 m 2
 561 548 557 503 557 464 c 0
 557 225 684 112 895 112 c 0
 991 112 1074 136 1131 172 c 0
 1187 207 1236 265 1265 318 c 0
 1293 370 1317 444 1329 496 c 0
 1335 522 1340 551 1345 582 c 2
 1469 1364 l 1
 1269 1414 l 1
 1287 1506 l 1
 1839 1506 l 1
 1819 1414 l 1
 1617 1368 l 1
 1491 604 l 1
 1420 180 1189 -32 797 -32 c 0
 710 -32 637 -22 551 18 c 0
 465 58 404 116 364 226 c 0
 343 281 333 344 333 416 c 0
 333 461 337 512 345 568 c 2
 471 1364 l 1
 265 1414 l 1
 287 1506 l 1
 911 1506 l 1
 893 1414 l 1
 689 1368 l 1
 569 598 l 2
1420 1774 m 0
 1420 1717 1370 1676 1314 1676 c 0
 1259 1676 1212 1717 1212 1774 c 0
 1212 1830 1261 1868 1314 1868 c 0
 1370 1868 1420 1829 1420 1774 c 0
1094 1774 m 0
 1094 1717 1046 1676 990 1676 c 0
 935 1676 888 1717 888 1774 c 0
 888 1830 937 1868 990 1868 c 0
 1046 1868 1094 1829 1094 1774 c 0
EndSplineSet
Validated: 1
EndChar

StartChar: Udieresiscaron
Encoding: 473 473 102
Width: 1643
VWidth: 0
Flags: W
HStem: -32 144<702.832 1074.51> 1414 92<287 324.064 829.423 893 1287 1326.34 1756.05 1819> 1676 192<904.896 1077.26 1228.9 1402.67>
VStem: 333 224<261.092 766.719> 888 206<1693.28 1851.52> 1212 208<1694.62 1850.23>
DStem2: 249.969 -32 469.218 -32 0.156434 0.987688<539.734 1413.39> 1026 2196 928 2122 0.736873 -0.676031<0 250.267> 1218 2022 1212 1938 0.690318 0.723506<0 226.544> 1245.37 -32 1390.27 -32 0.156434 0.987688<363.049 1413.8>
LayerCount: 2
Fore
SplineSet
1146 1922 m 1
 928 2122 l 1
 1026 2196 l 1
 1206 2022 l 1
 1218 2022 l 1
 1368 2192 l 1
 1420 2156 l 1
 1212 1938 l 1
 1146 1922 l 1
569 598 m 2
 561 548 557 503 557 464 c 0
 557 225 684 112 895 112 c 0
 991 112 1074 136 1131 172 c 0
 1187 207 1236 265 1265 318 c 0
 1293 370 1317 444 1329 496 c 0
 1335 522 1340 551 1345 582 c 2
 1469 1364 l 1
 1269 1414 l 1
 1287 1506 l 1
 1839 1506 l 1
 1819 1414 l 1
 1617 1368 l 1
 1491 604 l 1
 1420 180 1189 -32 797 -32 c 0
 710 -32 637 -22 551 18 c 0
 465 58 404 116 364 226 c 0
 343 281 333 344 333 416 c 0
 333 461 337 512 345 568 c 2
 471 1364 l 1
 265 1414 l 1
 287 1506 l 1
 911 1506 l 1
 893 1414 l 1
 689 1368 l 1
 569 598 l 2
1420 1774 m 0
 1420 1717 1370 1676 1314 1676 c 0
 1259 1676 1212 1717 1212 1774 c 0
 1212 1830 1261 1868 1314 1868 c 0
 1370 1868 1420 1829 1420 1774 c 0
1094 1774 m 0
 1094 1717 1046 1676 990 1676 c 0
 935 1676 888 1717 888 1774 c 0
 888 1830 937 1868 990 1868 c 0
 1046 1868 1094 1829 1094 1774 c 0
EndSplineSet
Validated: 1
EndChar

StartChar: Udieresisgrave
Encoding: 475 475 103
Width: 1643
VWidth: 0
Flags: W
HStem: -32 144<702.832 1074.51> 1414 92<287 324.064 829.423 893 1287 1326.34 1756.05 1819> 1676 192<904.896 1077.26 1228.9 1402.67>
VStem: 333 224<261.092 766.719> 888 206<1693.28 1851.52> 1212 208<1694.62 1850.23>
DStem2: 249.969 -32 469.218 -32 0.156434 0.987688<539.734 1413.39> 1245.37 -32 1390.27 -32 0.156434 0.987688<363.049 1413.8>
LayerCount: 2
Fore
SplineSet
884 2283 m 1
 1024 2329 l 1
 1184 1925 l 1
 1114 1883 l 1
 884 2283 l 1
1420 1774 m 0
 1420 1717 1370 1676 1314 1676 c 0
 1259 1676 1212 1717 1212 1774 c 0
 1212 1830 1261 1868 1314 1868 c 0
 1370 1868 1420 1829 1420 1774 c 0
1094 1774 m 0
 1094 1717 1046 1676 990 1676 c 0
 935 1676 888 1717 888 1774 c 0
 888 1830 937 1868 990 1868 c 0
 1046 1868 1094 1829 1094 1774 c 0
569 598 m 2
 561 548 557 503 557 464 c 0
 557 225 684 112 895 112 c 0
 991 112 1074 136 1131 172 c 0
 1187 207 1236 265 1265 318 c 0
 1293 370 1317 444 1329 496 c 0
 1335 522 1340 551 1345 582 c 2
 1469 1364 l 1
 1269 1414 l 1
 1287 1506 l 1
 1839 1506 l 1
 1819 1414 l 1
 1617 1368 l 1
 1491 604 l 1
 1420 180 1189 -32 797 -32 c 0
 710 -32 637 -22 551 18 c 0
 465 58 404 116 364 226 c 0
 343 281 333 344 333 416 c 0
 333 461 337 512 345 568 c 2
 471 1364 l 1
 265 1414 l 1
 287 1506 l 1
 911 1506 l 1
 893 1414 l 1
 689 1368 l 1
 569 598 l 2
EndSplineSet
Validated: 1
EndChar

StartChar: Udieresismacron
Encoding: 469 469 104
Width: 1643
VWidth: 0
Flags: W
HStem: -32 144<702.832 1074.51> 1414 92<287 324.064 829.423 893 1287 1326.34 1756.05 1819> 1676 192<904.896 1077.26 1228.9 1402.67> 1941 121<923 1441>
VStem: 333 224<261.092 766.719> 888 206<1693.28 1851.52> 1212 208<1694.62 1850.23>
DStem2: 249.969 -32 469.218 -32 0.156434 0.987688<539.734 1413.39> 1245.37 -32 1390.27 -32 0.156434 0.987688<363.049 1413.8>
LayerCount: 2
Fore
SplineSet
923 2062 m 1
 1457 2062 l 1
 1441 1941 l 1
 907 1941 l 1
 923 2062 l 1
569 598 m 2
 561 548 557 503 557 464 c 0
 557 225 684 112 895 112 c 0
 991 112 1074 136 1131 172 c 0
 1187 207 1236 265 1265 318 c 0
 1293 370 1317 444 1329 496 c 0
 1335 522 1340 551 1345 582 c 2
 1469 1364 l 1
 1269 1414 l 1
 1287 1506 l 1
 1839 1506 l 1
 1819 1414 l 1
 1617 1368 l 1
 1491 604 l 1
 1420 180 1189 -32 797 -32 c 0
 710 -32 637 -22 551 18 c 0
 465 58 404 116 364 226 c 0
 343 281 333 344 333 416 c 0
 333 461 337 512 345 568 c 2
 471 1364 l 1
 265 1414 l 1
 287 1506 l 1
 911 1506 l 1
 893 1414 l 1
 689 1368 l 1
 569 598 l 2
1420 1774 m 0
 1420 1717 1370 1676 1314 1676 c 0
 1259 1676 1212 1717 1212 1774 c 0
 1212 1830 1261 1868 1314 1868 c 0
 1370 1868 1420 1829 1420 1774 c 0
1094 1774 m 0
 1094 1717 1046 1676 990 1676 c 0
 935 1676 888 1717 888 1774 c 0
 888 1830 937 1868 990 1868 c 0
 1046 1868 1094 1829 1094 1774 c 0
EndSplineSet
Validated: 1
EndChar

StartChar: Ugrave
Encoding: 217 217 105
Width: 1643
VWidth: 0
Flags: W
HStem: -32 144<702.832 1074.51> 1414 92<287 324.064 829.423 893 1287 1326.34 1756.05 1819>
VStem: 333 224<261.092 766.719>
DStem2: 249.969 -32 469.218 -32 0.156434 0.987688<539.734 1413.39> 1245.37 -32 1390.27 -32 0.156434 0.987688<363.049 1413.8>
LayerCount: 2
Fore
SplineSet
569 598 m 2
 561 548 557 503 557 464 c 0
 557 225 684 112 895 112 c 0
 991 112 1074 136 1131 172 c 0
 1187 207 1236 265 1265 318 c 0
 1293 370 1317 444 1329 496 c 0
 1335 522 1340 551 1345 582 c 2
 1469 1364 l 1
 1269 1414 l 1
 1287 1506 l 1
 1839 1506 l 1
 1819 1414 l 1
 1617 1368 l 1
 1491 604 l 1
 1420 180 1189 -32 797 -32 c 0
 710 -32 637 -22 551 18 c 0
 465 58 404 116 364 226 c 0
 343 281 333 344 333 416 c 0
 333 461 337 512 345 568 c 2
 471 1364 l 1
 265 1414 l 1
 287 1506 l 1
 911 1506 l 1
 893 1414 l 1
 689 1368 l 1
 569 598 l 2
969 2010 m 1
 1109 2056 l 1
 1269 1652 l 1
 1199 1610 l 1
 969 2010 l 1
EndSplineSet
Validated: 1
EndChar

StartChar: Uhungarumlaut
Encoding: 368 368 106
Width: 1643
VWidth: 0
Flags: W
HStem: -32 144<702.832 1074.51> 1414 92<287 324.064 829.423 893 1287 1326.34 1756.05 1819>
VStem: 333 224<261.092 766.719>
DStem2: 249.969 -32 469.218 -32 0.156434 0.987688<539.734 1413.39> 1245.37 -32 1390.27 -32 0.156434 0.987688<363.049 1413.8>
LayerCount: 2
Fore
SplineSet
569 598 m 2
 561 548 557 503 557 464 c 0
 557 225 684 112 895 112 c 0
 991 112 1074 136 1131 172 c 0
 1187 207 1236 265 1265 318 c 0
 1293 370 1317 444 1329 496 c 0
 1335 522 1340 551 1345 582 c 2
 1469 1364 l 1
 1269 1414 l 1
 1287 1506 l 1
 1839 1506 l 1
 1819 1414 l 1
 1617 1368 l 1
 1491 604 l 1
 1420 180 1189 -32 797 -32 c 0
 710 -32 637 -22 551 18 c 0
 465 58 404 116 364 226 c 0
 343 281 333 344 333 416 c 0
 333 461 337 512 345 568 c 2
 471 1364 l 1
 265 1414 l 1
 287 1506 l 1
 911 1506 l 1
 893 1414 l 1
 689 1368 l 1
 569 598 l 2
1607 1848 m 1
 1255 1646 l 1
 1221 1706 l 1
 1519 1948 l 1
 1607 1848 l 1
1363 1854 m 1
 999 1646 l 1
 965 1706 l 1
 1273 1958 l 1
 1363 1854 l 1
EndSplineSet
Validated: 1
EndChar

StartChar: Umacron
Encoding: 362 362 107
Width: 1643
VWidth: 0
Flags: W
HStem: -32 144<702.832 1074.51> 1414 92<287 324.064 829.423 893 1287 1326.34 1756.05 1819> 1670 121<859 1377>
VStem: 333 224<261.092 766.719>
DStem2: 249.969 -32 469.218 -32 0.156434 0.987688<539.734 1413.39> 1245.37 -32 1390.27 -32 0.156434 0.987688<363.049 1413.8>
LayerCount: 2
Fore
SplineSet
569 598 m 2
 561 548 557 503 557 464 c 0
 557 225 684 112 895 112 c 0
 991 112 1074 136 1131 172 c 0
 1187 207 1236 265 1265 318 c 0
 1293 370 1317 444 1329 496 c 0
 1335 522 1340 551 1345 582 c 2
 1469 1364 l 1
 1269 1414 l 1
 1287 1506 l 1
 1839 1506 l 1
 1819 1414 l 1
 1617 1368 l 1
 1491 604 l 1
 1420 180 1189 -32 797 -32 c 0
 710 -32 637 -22 551 18 c 0
 465 58 404 116 364 226 c 0
 343 281 333 344 333 416 c 0
 333 461 337 512 345 568 c 2
 471 1364 l 1
 265 1414 l 1
 287 1506 l 1
 911 1506 l 1
 893 1414 l 1
 689 1368 l 1
 569 598 l 2
859 1791 m 1
 1393 1791 l 1
 1377 1670 l 1
 843 1670 l 1
 859 1791 l 1
EndSplineSet
Validated: 1
EndChar

StartChar: Uogonek
Encoding: 370 370 108
Width: 1651
VWidth: 0
Flags: W
HStem: -452 62<1062.45 1074.71> -32 144<702.832 984.35> 1414 92<287 324.064 829.423 893 1287 1326.34 1756.05 1819>
VStem: 333 224<261.669 650.692> 777 180<-297.627 -109.622>
DStem2: 183.448 -452 402.696 -452 0.156434 0.987688<964.924 1838.62> 1178.85 -452 1323.75 -452 0.156434 0.987688<791.111 1839.03>
LayerCount: 2
Fore
SplineSet
957 -164 m 0
 957 -247 1003 -330 1107 -390 c 1
 1065 -452 l 1
 894 -435 777 -343 777 -236 c 0
 777 -172 801 -119 893 -28 c 1
 861 -31 829 -32 797 -32 c 0
 710 -32 637 -22 551 18 c 0
 465 58 404 116 364 226 c 0
 343 281 333 344 333 416 c 0
 333 461 337 512 345 568 c 2
 471 1364 l 1
 265 1414 l 1
 287 1506 l 1
 911 1506 l 1
 893 1414 l 1
 689 1368 l 1
 569 598 l 2
 561 547 557 502 557 464 c 0
 557 225 684 112 895 112 c 0
 991 112 1074 136 1131 172 c 0
 1187 207 1236 265 1265 318 c 0
 1293 370 1317 444 1329 496 c 0
 1333 513 1338 542 1345 582 c 2
 1469 1364 l 1
 1269 1414 l 1
 1287 1506 l 1
 1839 1506 l 1
 1819 1414 l 1
 1617 1368 l 1
 1491 604 l 2
 1435 264 1276 61 1015 -6 c 1
 976 -71 957 -124 957 -164 c 0
EndSplineSet
Validated: 1
EndChar

StartChar: Uring
Encoding: 366 366 109
Width: 1643
VWidth: 0
Flags: W
HStem: -32 144<702.832 1074.51> 1414 92<287 324.064 829.423 893 1287 1326.34 1756.05 1819> 1650 58<1056.25 1194.31> 2000 58<1046.84 1183.01>
VStem: 333 224<261.092 766.719> 923 86<1740.61 1975.19> 1229 86<1731.08 1966.8>
DStem2: 249.969 -32 469.218 -32 0.156434 0.987688<539.734 1413.39> 1245.37 -32 1390.27 -32 0.156434 0.987688<363.049 1413.8>
LayerCount: 2
Fore
SplineSet
569 598 m 2
 561 548 557 503 557 464 c 0
 557 225 684 112 895 112 c 0
 991 112 1074 136 1131 172 c 0
 1187 207 1236 265 1265 318 c 0
 1293 370 1317 444 1329 496 c 0
 1335 522 1340 551 1345 582 c 2
 1469 1364 l 1
 1269 1414 l 1
 1287 1506 l 1
 1839 1506 l 1
 1819 1414 l 1
 1617 1368 l 1
 1491 604 l 1
 1420 180 1189 -32 797 -32 c 0
 710 -32 637 -22 551 18 c 0
 465 58 404 116 364 226 c 0
 343 281 333 344 333 416 c 0
 333 461 337 512 345 568 c 2
 471 1364 l 1
 265 1414 l 1
 287 1506 l 1
 911 1506 l 1
 893 1414 l 1
 689 1368 l 1
 569 598 l 2
1009 1864 m 0
 1009 1783 1052 1708 1125 1708 c 0
 1192 1708 1229 1758 1229 1846 c 0
 1229 1929 1185 2000 1113 2000 c 0
 1045 2000 1009 1939 1009 1864 c 0
1315 1862 m 0
 1315 1747 1231 1650 1111 1650 c 0
 998 1650 923 1727 923 1850 c 0
 923 1963 1014 2058 1127 2058 c 0
 1242 2058 1315 1978 1315 1862 c 0
EndSplineSet
Validated: 1
EndChar

StartChar: V
Encoding: 86 86 110
Width: 1409
VWidth: 0
Flags: W
HStem: -30 21G<612.155 710.444> 1414 92<210 235.302 740.423 804 1144 1183.92 1602.76 1652>
DStem2: 600 1368 348 1364 0.188795 -0.982017<0 1081.49> 794 304 786 6 0.46123 0.887281<0 1186.81>
LayerCount: 2
Fore
SplineSet
616 -30 m 1
 348 1364 l 1
 190 1414 l 1
 210 1506 l 1
 822 1506 l 1
 804 1414 l 1
 600 1368 l 1
 794 304 l 1
 1328 1364 l 1
 1126 1414 l 1
 1144 1506 l 1
 1670 1506 l 1
 1652 1414 l 1
 1494 1368 l 1
 786 6 l 1
 616 -30 l 1
EndSplineSet
Validated: 1
EndChar

StartChar: W
Encoding: 87 87 111
Width: 2046
VWidth: 0
Flags: W
HStem: -30 21G<511.676 615.111 1322.17 1421.78> 1414 92<719.046 782 1788 1824.77 2239.25 2286>
DStem2: 580 1368 352 1364 0.115435 -0.993315<0 1044.68> 698 330 696 6 0.413204 0.910638<0 962.584> 1408 1476 1216 1152 0.0909915 -0.995852<305.186 1132.24> 1506 348 1500 6 0.423104 0.906081<0 1115.21>
LayerCount: 2
Fore
SplineSet
1324 -30 m 1
 1216 1152 l 1
 696 6 l 1
 514 -30 l 1
 352 1364 l 1
 202 1414 l 1
 220 1506 l 1
 806 1506 l 1
 782 1414 l 1
 580 1368 l 1
 698 330 l 1
 1208 1446 l 1
 1408 1476 l 1
 1506 348 l 1
 1966 1364 l 1
 1768 1414 l 1
 1788 1506 l 1
 2306 1506 l 1
 2286 1414 l 1
 2136 1368 l 1
 1500 6 l 1
 1324 -30 l 1
EndSplineSet
Validated: 1
EndChar

StartChar: Wacute
Encoding: 7810 7810 112
Width: 2046
VWidth: 0
Flags: W
HStem: -30 21G<511.676 615.111 1322.17 1421.78> 1414 92<719.046 782 1788 1824.77 2239.25 2286>
DStem2: 580 1368 352 1364 0.115435 -0.993315<0 1044.68> 698 330 696 6 0.413204 0.910638<0 962.584> 1408 1476 1216 1152 0.0909915 -0.995852<305.186 1132.24> 1506 348 1500 6 0.423104 0.906081<0 1115.21>
LayerCount: 2
Fore
SplineSet
1324 -30 m 1
 1216 1152 l 1
 696 6 l 1
 514 -30 l 1
 352 1364 l 1
 202 1414 l 1
 220 1506 l 1
 806 1506 l 1
 782 1414 l 1
 580 1368 l 1
 698 330 l 1
 1208 1446 l 1
 1408 1476 l 1
 1506 348 l 1
 1966 1364 l 1
 1768 1414 l 1
 1788 1506 l 1
 2306 1506 l 1
 2286 1414 l 1
 2136 1368 l 1
 1500 6 l 1
 1324 -30 l 1
1592 2018 m 1
 1370 1634 l 1
 1308 1672 l 1
 1456 2066 l 1
 1592 2018 l 1
EndSplineSet
Validated: 1
EndChar

StartChar: Wcircumflex
Encoding: 372 372 113
Width: 2046
VWidth: 0
Flags: W
HStem: -30 21G<511.676 615.111 1322.17 1421.78> 1414 92<719.046 782 1788 1824.77 2239.25 2286>
DStem2: 580 1368 352 1364 0.115435 -0.993315<0 1044.68> 698 330 696 6 0.413204 0.910638<0 962.584> 1408 1476 1216 1152 0.0909915 -0.995852<305.186 1132.24> 1506 348 1500 6 0.423104 0.906081<0 1115.21>
LayerCount: 2
Fore
SplineSet
1324 -30 m 1
 1216 1152 l 1
 696 6 l 1
 514 -30 l 1
 352 1364 l 1
 202 1414 l 1
 220 1506 l 1
 806 1506 l 1
 782 1414 l 1
 580 1368 l 1
 698 330 l 1
 1208 1446 l 1
 1408 1476 l 1
 1506 348 l 1
 1966 1364 l 1
 1768 1414 l 1
 1788 1506 l 1
 2306 1506 l 1
 2286 1414 l 1
 2136 1368 l 1
 1500 6 l 1
 1324 -30 l 1
1355 1914 m 1
 1571 1689 l 1
 1511 1646 l 1
 1313 1778 l 1
 1301 1778 l 1
 1131 1644 l 1
 1085 1680 l 1
 1289 1898 l 1
 1355 1914 l 1
EndSplineSet
Validated: 1
EndChar

StartChar: Wdieresis
Encoding: 7812 7812 114
Width: 2046
VWidth: 0
Flags: W
HStem: -30 21G<511.676 615.111 1322.17 1421.78> 1414 92<719.046 782 1788 1824.77 2239.25 2286> 1676 192<1078.9 1251.26 1402.9 1576.67>
VStem: 1062 206<1693.28 1851.52> 1386 208<1694.62 1850.23>
DStem2: 580 1368 352 1364 0.115435 -0.993315<0 1044.68> 698 330 696 6 0.413204 0.910638<0 962.584> 1408 1476 1216 1152 0.0909915 -0.995852<305.186 1132.24> 1506 348 1500 6 0.423104 0.906081<0 1115.21>
LayerCount: 2
Fore
SplineSet
1324 -30 m 1
 1216 1152 l 1
 696 6 l 1
 514 -30 l 1
 352 1364 l 1
 202 1414 l 1
 220 1506 l 1
 806 1506 l 1
 782 1414 l 1
 580 1368 l 1
 698 330 l 1
 1208 1446 l 1
 1408 1476 l 1
 1506 348 l 1
 1966 1364 l 1
 1768 1414 l 1
 1788 1506 l 1
 2306 1506 l 1
 2286 1414 l 1
 2136 1368 l 1
 1500 6 l 1
 1324 -30 l 1
1594 1774 m 0
 1594 1717 1544 1676 1488 1676 c 0
 1433 1676 1386 1717 1386 1774 c 0
 1386 1830 1435 1868 1488 1868 c 0
 1544 1868 1594 1829 1594 1774 c 0
1268 1774 m 0
 1268 1717 1220 1676 1164 1676 c 0
 1109 1676 1062 1717 1062 1774 c 0
 1062 1830 1111 1868 1164 1868 c 0
 1220 1868 1268 1829 1268 1774 c 0
EndSplineSet
Validated: 1
EndChar

StartChar: Wgrave
Encoding: 7808 7808 115
Width: 2046
VWidth: 0
Flags: W
HStem: -30 21G<511.676 615.111 1322.17 1421.78> 1414 92<719.046 782 1788 1824.77 2239.25 2286>
DStem2: 580 1368 352 1364 0.115435 -0.993315<0 1044.68> 698 330 696 6 0.413204 0.910638<0 962.584> 1408 1476 1216 1152 0.0909915 -0.995852<305.186 1132.24> 1506 348 1500 6 0.423104 0.906081<0 1115.21>
LayerCount: 2
Fore
SplineSet
1324 -30 m 1
 1216 1152 l 1
 696 6 l 1
 514 -30 l 1
 352 1364 l 1
 202 1414 l 1
 220 1506 l 1
 806 1506 l 1
 782 1414 l 1
 580 1368 l 1
 698 330 l 1
 1208 1446 l 1
 1408 1476 l 1
 1506 348 l 1
 1966 1364 l 1
 1768 1414 l 1
 1788 1506 l 1
 2306 1506 l 1
 2286 1414 l 1
 2136 1368 l 1
 1500 6 l 1
 1324 -30 l 1
1058 2010 m 1
 1198 2056 l 1
 1358 1652 l 1
 1288 1610 l 1
 1058 2010 l 1
EndSplineSet
Validated: 1
EndChar

StartChar: X
Encoding: 88 88 116
Width: 1387
VWidth: 0
Flags: W
HStem: 0 98<525.37 536 798 824.4> 1414 92<810.8 862 1068 1105.64 1524.01 1572>
DStem2: 184 146 352 138 0.659988 0.751276<104.868 751.873 1017.89 1621.24> 662 1358 404 1354 0.441261 -0.897379<0 501.899 699.153 1235.89> 868 900 702 736 0.441261 -0.897379<-501.899 0 197.254 733.988>
LayerCount: 2
Fore
SplineSet
936 788 m 1
 1228 138 l 1
 1384 98 l 1
 1358 0 l 1
 774 0 l 1
 798 90 l 1
 998 146 l 1
 770 632 l 1
 352 138 l 1
 558 98 l 1
 536 0 l 1
 14 0 l 1
 38 90 l 1
 184 146 l 1
 702 736 l 1
 404 1354 l 1
 262 1414 l 1
 284 1506 l 1
 884 1506 l 1
 862 1414 l 1
 662 1358 l 1
 868 900 l 1
 1254 1364 l 1
 1046 1414 l 1
 1068 1506 l 1
 1590 1506 l 1
 1572 1414 l 1
 1418 1368 l 1
 936 788 l 1
EndSplineSet
Validated: 1
EndChar

StartChar: Y
Encoding: 89 89 117
Width: 1278
VWidth: 0
Flags: W
HStem: 0 90<372 418.592 904.448 938> 1414 92<708.786 768 1024 1063.34 1470.63 1518>
DStem2: 578 1368 336 1364 0.361968 -0.932191<0 639.562> 530.876 0 752.143 0 0.156434 0.987688<174.334 619.659> 810 772 854 640 0.575271 0.817963<0 712.041>
LayerCount: 2
Fore
SplineSet
854 640 m 1
 774 138 l 1
 960 98 l 1
 938 0 l 1
 352 0 l 1
 372 90 l 1
 554 146 l 1
 628 612 l 1
 336 1364 l 1
 188 1414 l 1
 212 1506 l 1
 790 1506 l 1
 768 1414 l 1
 578 1368 l 1
 810 772 l 1
 1206 1364 l 1
 1006 1414 l 1
 1024 1506 l 1
 1536 1506 l 1
 1518 1414 l 1
 1366 1368 l 1
 854 640 l 1
EndSplineSet
Validated: 1
EndChar

StartChar: Yacute
Encoding: 221 221 118
Width: 1278
VWidth: 0
Flags: W
HStem: 0 90<372 418.592 904.448 938> 1414 92<708.786 768 1024 1063.34 1470.63 1518>
DStem2: 578 1368 336 1364 0.361968 -0.932191<0 639.562> 530.876 0 752.143 0 0.156434 0.987688<174.334 619.659> 810 772 854 640 0.575271 0.817963<0 712.041>
LayerCount: 2
Fore
SplineSet
854 640 m 1
 774 138 l 1
 960 98 l 1
 938 0 l 1
 352 0 l 1
 372 90 l 1
 554 146 l 1
 628 612 l 1
 336 1364 l 1
 188 1414 l 1
 212 1506 l 1
 790 1506 l 1
 768 1414 l 1
 578 1368 l 1
 810 772 l 1
 1206 1364 l 1
 1006 1414 l 1
 1024 1506 l 1
 1536 1506 l 1
 1518 1414 l 1
 1366 1368 l 1
 854 640 l 1
1198 2018 m 1
 976 1634 l 1
 914 1672 l 1
 1062 2066 l 1
 1198 2018 l 1
EndSplineSet
Validated: 1
EndChar

StartChar: Ycircumflex
Encoding: 374 374 119
Width: 1278
VWidth: 0
Flags: W
HStem: 0 90<372 418.592 904.448 938> 1414 92<708.786 768 1024 1063.34 1470.63 1518>
DStem2: 578 1368 336 1364 0.361968 -0.932191<0 639.562> 530.876 0 752.143 0 0.156434 0.987688<174.334 619.659> 810 772 854 640 0.575271 0.817963<0 712.041>
LayerCount: 2
Fore
SplineSet
854 640 m 1
 774 138 l 1
 960 98 l 1
 938 0 l 1
 352 0 l 1
 372 90 l 1
 554 146 l 1
 628 612 l 1
 336 1364 l 1
 188 1414 l 1
 212 1506 l 1
 790 1506 l 1
 768 1414 l 1
 578 1368 l 1
 810 772 l 1
 1206 1364 l 1
 1006 1414 l 1
 1024 1506 l 1
 1536 1506 l 1
 1518 1414 l 1
 1366 1368 l 1
 854 640 l 1
950 1914 m 1
 1166 1689 l 1
 1106 1646 l 1
 908 1778 l 1
 896 1778 l 1
 726 1644 l 1
 680 1680 l 1
 884 1898 l 1
 950 1914 l 1
EndSplineSet
Validated: 1
EndChar

StartChar: Ydieresis
Encoding: 376 376 120
Width: 1278
VWidth: 0
Flags: W
HStem: 0 90<372 418.592 904.448 938> 1414 92<708.786 768 1024 1063.34 1470.63 1518> 1676 192<673.896 846.259 997.896 1171.67>
VStem: 657 206<1693.28 1851.52> 981 208<1694.62 1850.23>
DStem2: 578 1368 336 1364 0.361968 -0.932191<0 639.562> 530.876 0 752.143 0 0.156434 0.987688<174.334 619.659> 810 772 854 640 0.575271 0.817963<0 712.041>
LayerCount: 2
Fore
SplineSet
854 640 m 1
 774 138 l 1
 960 98 l 1
 938 0 l 1
 352 0 l 1
 372 90 l 1
 554 146 l 1
 628 612 l 1
 336 1364 l 1
 188 1414 l 1
 212 1506 l 1
 790 1506 l 1
 768 1414 l 1
 578 1368 l 1
 810 772 l 1
 1206 1364 l 1
 1006 1414 l 1
 1024 1506 l 1
 1536 1506 l 1
 1518 1414 l 1
 1366 1368 l 1
 854 640 l 1
1189 1774 m 0
 1189 1717 1139 1676 1083 1676 c 0
 1028 1676 981 1717 981 1774 c 0
 981 1830 1030 1868 1083 1868 c 0
 1139 1868 1189 1829 1189 1774 c 0
863 1774 m 0
 863 1717 815 1676 759 1676 c 0
 704 1676 657 1717 657 1774 c 0
 657 1830 706 1868 759 1868 c 0
 815 1868 863 1829 863 1774 c 0
EndSplineSet
Validated: 1
EndChar

StartChar: Ygrave
Encoding: 7922 7922 121
Width: 1278
VWidth: 0
Flags: W
HStem: 0 90<372 418.592 904.448 938> 1414 92<708.786 768 1024 1063.34 1470.63 1518>
DStem2: 578 1368 336 1364 0.361968 -0.932191<0 639.562> 530.876 0 752.143 0 0.156434 0.987688<174.334 619.659> 810 772 854 640 0.575271 0.817963<0 712.041>
LayerCount: 2
Fore
SplineSet
854 640 m 1
 774 138 l 1
 960 98 l 1
 938 0 l 1
 352 0 l 1
 372 90 l 1
 554 146 l 1
 628 612 l 1
 336 1364 l 1
 188 1414 l 1
 212 1506 l 1
 790 1506 l 1
 768 1414 l 1
 578 1368 l 1
 810 772 l 1
 1206 1364 l 1
 1006 1414 l 1
 1024 1506 l 1
 1536 1506 l 1
 1518 1414 l 1
 1366 1368 l 1
 854 640 l 1
653 2010 m 1
 793 2056 l 1
 953 1652 l 1
 883 1610 l 1
 653 2010 l 1
EndSplineSet
Validated: 1
EndChar

StartChar: Z
Encoding: 90 90 122
Width: 1325
VWidth: 0
Flags: W
HStem: 0 122<360 1006> 1392 114<522 1172>
DStem2: 112 126 360 122 0.643442 0.765495<156.512 1651.16>
LayerCount: 2
Fore
SplineSet
352 1506 m 1
 1460 1506 l 1
 1446 1414 l 1
 360 122 l 1
 1006 122 l 1
 1178 424 l 1
 1288 406 l 1
 1188 0 l 1
 104 0 l 1
 112 126 l 1
 1172 1392 l 1
 522 1392 l 1
 412 1094 l 1
 306 1116 l 1
 352 1506 l 1
EndSplineSet
Validated: 1
EndChar

StartChar: Zacute
Encoding: 377 377 123
Width: 1325
VWidth: 0
Flags: W
HStem: 0 122<360 1006> 1392 114<522 1172>
DStem2: 112 126 360 122 0.643442 0.765495<156.512 1651.16>
LayerCount: 2
Fore
SplineSet
352 1506 m 1
 1460 1506 l 1
 1446 1414 l 1
 360 122 l 1
 1006 122 l 1
 1178 424 l 1
 1288 406 l 1
 1188 0 l 1
 104 0 l 1
 112 126 l 1
 1172 1392 l 1
 522 1392 l 1
 412 1094 l 1
 306 1116 l 1
 352 1506 l 1
1218 2018 m 1
 996 1634 l 1
 934 1672 l 1
 1082 2066 l 1
 1218 2018 l 1
EndSplineSet
Validated: 1
EndChar

StartChar: Zcaron
Encoding: 381 381 124
Width: 1325
VWidth: 0
Flags: W
HStem: 0 122<360 1006> 1392 114<522 1172>
DStem2: 112 126 360 122 0.643442 0.765495<156.512 1651.16> 758 1918 660 1844 0.736873 -0.676031<0 250.267> 950 1744 945 1660 0.688575 0.725166<0 226.564>
LayerCount: 2
Fore
SplineSet
352 1506 m 1
 1460 1506 l 1
 1446 1414 l 1
 360 122 l 1
 1006 122 l 1
 1178 424 l 1
 1288 406 l 1
 1188 0 l 1
 104 0 l 1
 112 126 l 1
 1172 1392 l 1
 522 1392 l 1
 412 1094 l 1
 306 1116 l 1
 352 1506 l 1
878 1644 m 1
 660 1844 l 1
 758 1918 l 1
 938 1744 l 1
 950 1744 l 1
 1100 1914 l 1
 1152 1878 l 1
 945 1660 l 1
 878 1644 l 1
EndSplineSet
Validated: 1
EndChar

StartChar: Zdotaccent
Encoding: 379 379 125
Width: 1325
VWidth: 0
Flags: W
HStem: 0 122<360 1006> 1392 114<522 1172> 1642 286<802 1008>
VStem: 760 292<1685.62 1887.88>
DStem2: 112 126 360 122 0.643442 0.765495<156.512 1651.16>
LayerCount: 2
Fore
SplineSet
352 1506 m 1
 1460 1506 l 1
 1446 1414 l 1
 360 122 l 1
 1006 122 l 1
 1178 424 l 1
 1288 406 l 1
 1188 0 l 1
 104 0 l 1
 112 126 l 1
 1172 1392 l 1
 522 1392 l 1
 412 1094 l 1
 306 1116 l 1
 352 1506 l 1
1052 1790 m 0
 1052 1709 984 1642 904 1642 c 0
 824 1642 760 1708 760 1791 c 0
 760 1868 827 1928 904 1928 c 0
 985 1928 1052 1867 1052 1790 c 0
EndSplineSet
Validated: 1
EndChar

StartChar: a
Encoding: 97 97 126
Width: 1034
VWidth: 0
Flags: W
HStem: -26 154<313.5 538.767> 946 126<562.759 796.832>
VStem: 145 196<180.73 606.815>
DStem2: 652.236 -26 844.342 -26 0.156434 0.987688<258.01 959.817>
LayerCount: 2
Fore
SplineSet
1023 102 m 1
 999 18 l 1
 943 -6 886 -18 829 -18 c 0
 748 -18 685 19 685 100 c 2
 685 114 l 1
 689 160 l 1
 675 160 l 1
 615 53 505 -26 389 -26 c 0
 238 -26 145 109 145 332 c 0
 145 516 201 684 286 799 c 0
 370 914 482 1001 596 1042 c 0
 653 1062 708 1072 763 1072 c 0
 867 1072 942 1058 987 1030 c 1
 1007 1008 l 1
 921 458 l 2
 900 319 889 232 889 196 c 0
 889 141 902 123 941 116 c 2
 1023 102 l 1
799 904 m 1
 769 932 721 946 655 946 c 0
 532 946 427 815 378 647 c 0
 353 563 341 477 341 388 c 0
 341 209 390 128 487 128 c 0
 571 128 628 169 695 244 c 1
 799 904 l 1
EndSplineSet
Validated: 1
EndChar

StartChar: aacute
Encoding: 225 225 127
Width: 1034
VWidth: 0
Flags: W
HStem: -26 154<313.5 538.767> 946 126<562.759 796.832>
VStem: 145 196<180.73 606.815>
DStem2: 652.236 -26 844.342 -26 0.156434 0.987688<258.01 959.817>
LayerCount: 2
Fore
SplineSet
1023 102 m 1
 999 18 l 1
 943 -6 886 -18 829 -18 c 0
 748 -18 685 19 685 100 c 2
 685 114 l 1
 689 160 l 1
 675 160 l 1
 615 53 505 -26 389 -26 c 0
 238 -26 145 109 145 332 c 0
 145 516 201 684 286 799 c 0
 370 914 482 1001 596 1042 c 0
 653 1062 708 1072 763 1072 c 0
 867 1072 942 1058 987 1030 c 1
 1007 1008 l 1
 921 458 l 2
 900 319 889 232 889 196 c 0
 889 141 902 123 941 116 c 2
 1023 102 l 1
799 904 m 1
 769 932 721 946 655 946 c 0
 532 946 427 815 378 647 c 0
 353 563 341 477 341 388 c 0
 341 209 390 128 487 128 c 0
 571 128 628 169 695 244 c 1
 799 904 l 1
1079 1590 m 1
 857 1206 l 1
 795 1244 l 1
 943 1638 l 1
 1079 1590 l 1
EndSplineSet
Validated: 1
EndChar

StartChar: abreve
Encoding: 259 259 128
Width: 1034
VWidth: 0
Flags: W
HStem: -26 154<313.5 538.767> 946 126<562.759 796.832> 1236 132<708.228 947.458>
VStem: 145 196<180.73 606.815> 595 66<1424.15 1461.73>
DStem2: 652.236 -26 844.342 -26 0.156434 0.987688<258.01 959.817>
LayerCount: 2
Fore
SplineSet
1023 102 m 1
 999 18 l 1
 943 -6 886 -18 829 -18 c 0
 748 -18 685 19 685 100 c 2
 685 114 l 1
 689 160 l 1
 675 160 l 1
 615 53 505 -26 389 -26 c 0
 238 -26 145 109 145 332 c 0
 145 516 201 684 286 799 c 0
 370 914 482 1001 596 1042 c 0
 653 1062 708 1072 763 1072 c 0
 867 1072 942 1058 987 1030 c 1
 1007 1008 l 1
 921 458 l 2
 900 319 889 232 889 196 c 0
 889 141 902 123 941 116 c 2
 1023 102 l 1
799 904 m 1
 769 932 721 946 655 946 c 0
 532 946 427 815 378 647 c 0
 353 563 341 477 341 388 c 0
 341 209 390 128 487 128 c 0
 571 128 628 169 695 244 c 1
 799 904 l 1
595 1452 m 1
 651 1490 l 1
 661 1470 l 2
 689 1415 749 1368 825 1368 c 0
 897 1368 954 1403 997 1472 c 1
 1009 1492 l 1
 1059 1458 l 1
 1051 1434 l 2
 1014 1322 936 1236 825 1236 c 0
 706 1236 628 1321 601 1428 c 2
 595 1452 l 1
EndSplineSet
Validated: 1
EndChar

StartChar: acaron
Encoding: 462 462 129
Width: 1034
VWidth: 0
Flags: W
HStem: -26 154<313.5 538.767> 946 126<562.759 796.832>
VStem: 145 196<180.73 606.815>
DStem2: 629 1468 531 1394 0.736873 -0.676031<0 250.267> 652.236 -26 844.342 -26 0.156434 0.987688<258.01 959.817> 821 1294 815 1210 0.690318 0.723506<0 226.544>
LayerCount: 2
Fore
SplineSet
1023 102 m 1
 999 18 l 1
 943 -6 886 -18 829 -18 c 0
 748 -18 685 19 685 100 c 2
 685 114 l 1
 689 160 l 1
 675 160 l 1
 615 53 505 -26 389 -26 c 0
 238 -26 145 109 145 332 c 0
 145 516 201 684 286 799 c 0
 370 914 482 1001 596 1042 c 0
 653 1062 708 1072 763 1072 c 0
 867 1072 942 1058 987 1030 c 1
 1007 1008 l 1
 921 458 l 2
 900 319 889 232 889 196 c 0
 889 141 902 123 941 116 c 2
 1023 102 l 1
799 904 m 1
 769 932 721 946 655 946 c 0
 532 946 427 815 378 647 c 0
 353 563 341 477 341 388 c 0
 341 209 390 128 487 128 c 0
 571 128 628 169 695 244 c 1
 799 904 l 1
749 1194 m 1
 531 1394 l 1
 629 1468 l 1
 809 1294 l 1
 821 1294 l 1
 971 1464 l 1
 1023 1428 l 1
 815 1210 l 1
 749 1194 l 1
EndSplineSet
Validated: 1
EndChar

StartChar: acircumflex
Encoding: 226 226 130
Width: 1034
VWidth: 0
Flags: W
HStem: -26 154<313.5 538.767> 946 126<562.759 796.832>
VStem: 145 196<180.73 606.815>
DStem2: 652.236 -26 844.342 -26 0.156434 0.987688<258.01 959.817>
LayerCount: 2
Fore
SplineSet
1023 102 m 1
 999 18 l 1
 943 -6 886 -18 829 -18 c 0
 748 -18 685 19 685 100 c 2
 685 114 l 1
 689 160 l 1
 675 160 l 1
 615 53 505 -26 389 -26 c 0
 238 -26 145 109 145 332 c 0
 145 516 201 684 286 799 c 0
 370 914 482 1001 596 1042 c 0
 653 1062 708 1072 763 1072 c 0
 867 1072 942 1058 987 1030 c 1
 1007 1008 l 1
 921 458 l 2
 900 319 889 232 889 196 c 0
 889 141 902 123 941 116 c 2
 1023 102 l 1
799 904 m 1
 769 932 721 946 655 946 c 0
 532 946 427 815 378 647 c 0
 353 563 341 477 341 388 c 0
 341 209 390 128 487 128 c 0
 571 128 628 169 695 244 c 1
 799 904 l 1
853 1486 m 1
 1069 1262 l 1
 1009 1218 l 1
 811 1350 l 1
 799 1350 l 1
 629 1216 l 1
 583 1252 l 1
 787 1470 l 1
 853 1486 l 1
EndSplineSet
Validated: 1
EndChar

StartChar: acute
Encoding: 180 180 131
Width: 749
VWidth: 0
Flags: W
HStem: 1634 432
VStem: 278 284
LayerCount: 2
Fore
SplineSet
562 2018 m 1
 340 1634 l 1
 278 1672 l 1
 426 2066 l 1
 562 2018 l 1
EndSplineSet
Validated: 1
EndChar

StartChar: adieresis
Encoding: 228 228 132
Width: 1034
VWidth: 0
Flags: W
HStem: -26 154<313.5 538.767> 946 126<562.759 796.832> 1248 192<577.896 750.259 901.896 1075.67>
VStem: 145 196<180.73 606.815> 561 206<1265.28 1423.52> 885 208<1266.62 1422.23>
DStem2: 652.236 -26 844.342 -26 0.156434 0.987688<258.01 959.817>
LayerCount: 2
Fore
SplineSet
1023 102 m 1
 999 18 l 1
 943 -6 886 -18 829 -18 c 0
 748 -18 685 19 685 100 c 2
 685 114 l 1
 689 160 l 1
 675 160 l 1
 615 53 505 -26 389 -26 c 0
 238 -26 145 109 145 332 c 0
 145 516 201 684 286 799 c 0
 370 914 482 1001 596 1042 c 0
 653 1062 708 1072 763 1072 c 0
 867 1072 942 1058 987 1030 c 1
 1007 1008 l 1
 921 458 l 2
 900 319 889 232 889 196 c 0
 889 141 902 123 941 116 c 2
 1023 102 l 1
799 904 m 1
 769 932 721 946 655 946 c 0
 532 946 427 815 378 647 c 0
 353 563 341 477 341 388 c 0
 341 209 390 128 487 128 c 0
 571 128 628 169 695 244 c 1
 799 904 l 1
1093 1346 m 0
 1093 1289 1043 1248 987 1248 c 0
 932 1248 885 1289 885 1346 c 0
 885 1402 934 1440 987 1440 c 0
 1043 1440 1093 1401 1093 1346 c 0
767 1346 m 0
 767 1289 719 1248 663 1248 c 0
 608 1248 561 1289 561 1346 c 0
 561 1402 610 1440 663 1440 c 0
 719 1440 767 1401 767 1346 c 0
EndSplineSet
Validated: 1
EndChar

StartChar: ae
Encoding: 230 230 133
Width: 1466
VWidth: 0
Flags: W
HStem: -26 154<313.5 562.948 1021.82 1262.6> 946 126<562.759 796.366> 966 112<1085.52 1267.03>
VStem: 145 196<180.73 606.815> 1301 184<646.09 936.646>
LayerCount: 2
Fore
SplineSet
1275 646 m 1xb8
 1292 681 1301 729 1301 790 c 1
 1298 907 1260 966 1185 966 c 0
 1138 966 1092 938 1048 881 c 0
 1003 824 969 737 945 620 c 1
 1275 646 l 1xb8
799 904 m 1
 769 932 721 946 655 946 c 0xd8
 532 946 427 815 378 647 c 0
 353 563 341 477 341 388 c 0
 341 209 390 128 487 128 c 0
 571 128 628 169 695 244 c 1
 799 904 l 1
1257 1078 m 0xb8
 1409 1078 1485 985 1485 800 c 0
 1485 705 1466 623 1428 554 c 1
 933 532 l 1
 929 509 924 469 924 422 c 0
 924 345 938 251 996 193 c 0
 1042 147 1101 124 1173 124 c 0
 1234 124 1370 182 1401 214 c 1
 1433 160 l 1
 1372 64 1212 -36 1059 -36 c 0
 900 -36 798 39 753 190 c 1
 739 173 717 148 687 116 c 0
 597 21 498 -26 389 -26 c 0
 238 -26 145 109 145 332 c 0
 145 516 201 684 286 799 c 0
 370 914 482 1001 596 1042 c 0
 653 1062 708 1072 763 1072 c 0xd8
 848 1072 942 1035 971 964 c 1
 1058 1040 1153 1078 1257 1078 c 0xb8
EndSplineSet
Validated: 1
EndChar

StartChar: agrave
Encoding: 224 224 134
Width: 1034
VWidth: 0
Flags: W
HStem: -26 154<313.5 538.767> 946 126<562.759 796.832>
VStem: 145 196<180.73 606.815>
DStem2: 652.236 -26 844.342 -26 0.156434 0.987688<258.01 959.817>
LayerCount: 2
Fore
SplineSet
1023 102 m 1
 999 18 l 1
 943 -6 886 -18 829 -18 c 0
 748 -18 685 19 685 100 c 2
 685 114 l 1
 689 160 l 1
 675 160 l 1
 615 53 505 -26 389 -26 c 0
 238 -26 145 109 145 332 c 0
 145 516 201 684 286 799 c 0
 370 914 482 1001 596 1042 c 0
 653 1062 708 1072 763 1072 c 0
 867 1072 942 1058 987 1030 c 1
 1007 1008 l 1
 921 458 l 2
 900 319 889 232 889 196 c 0
 889 141 902 123 941 116 c 2
 1023 102 l 1
799 904 m 1
 769 932 721 946 655 946 c 0
 532 946 427 815 378 647 c 0
 353 563 341 477 341 388 c 0
 341 209 390 128 487 128 c 0
 571 128 628 169 695 244 c 1
 799 904 l 1
637 1582 m 1
 777 1628 l 1
 937 1224 l 1
 867 1182 l 1
 637 1582 l 1
EndSplineSet
Validated: 1
EndChar

StartChar: amacron
Encoding: 257 257 135
Width: 1034
VWidth: 0
Flags: W
HStem: -26 154<313.5 538.767> 946 126<562.759 796.832> 1242 122<567 1085>
VStem: 145 196<180.73 606.815>
DStem2: 652.236 -26 844.342 -26 0.156434 0.987688<258.01 959.817>
LayerCount: 2
Fore
SplineSet
1023 102 m 1
 999 18 l 1
 943 -6 886 -18 829 -18 c 0
 748 -18 685 19 685 100 c 2
 685 114 l 1
 689 160 l 1
 675 160 l 1
 615 53 505 -26 389 -26 c 0
 238 -26 145 109 145 332 c 0
 145 516 201 684 286 799 c 0
 370 914 482 1001 596 1042 c 0
 653 1062 708 1072 763 1072 c 0
 867 1072 942 1058 987 1030 c 1
 1007 1008 l 1
 921 458 l 2
 900 319 889 232 889 196 c 0
 889 141 902 123 941 116 c 2
 1023 102 l 1
799 904 m 1
 769 932 721 946 655 946 c 0
 532 946 427 815 378 647 c 0
 353 563 341 477 341 388 c 0
 341 209 390 128 487 128 c 0
 571 128 628 169 695 244 c 1
 799 904 l 1
567 1364 m 1
 1101 1364 l 1
 1085 1242 l 1
 551 1242 l 1
 567 1364 l 1
EndSplineSet
Validated: 1
EndChar

StartChar: ampersand
Encoding: 38 38 136
Width: 1615
VWidth: 0
Flags: W
HStem: -24 152<429.058 696.707> 922 92<1202 1232.2 1653.31 1720> 1438 102<683.418 915.469>
VStem: 94 240<231.969 506.265> 398 200<1072.45 1295.07> 966 212<1119.3 1387.81>
DStem2: 824 854 586 762 0.644472 -0.764628<0 445.822> 1110 512 1182 428 0.586019 0.810297<0 445.244>
LayerCount: 2
Fore
SplineSet
1506 876 m 1
 1182 428 l 1
 1242 349 1302 276 1403 182 c 0
 1454 135 1495 106 1526 96 c 2
 1564 84 l 1
 1534 0 l 1
 1484 -16 1434 -24 1384 -24 c 0
 1263 -24 1151 81 1012 264 c 1
 965 209 931 172 859 116 c 0
 787 59 723 23 624 -4 c 0
 575 -17 524 -24 472 -24 c 0
 343 -24 241 17 182 83 c 0
 123 149 94 231 94 324 c 0
 94 427 139 528 196 600 c 0
 253 672 345 745 413 788 c 0
 447 809 483 830 522 850 c 1
 439 930 398 1029 398 1148 c 0
 398 1268 495 1402 632 1481 c 0
 701 1520 769 1540 836 1540 c 0
 1049 1540 1178 1461 1178 1252 c 0
 1178 1176 1131 1096 1056 1029 c 0
 980 962 909 913 826 868 c 1
 824 854 l 1
 1110 512 l 1
 1372 872 l 1
 1176 922 l 1
 1202 1014 l 1
 1746 1014 l 1
 1720 922 l 1
 1506 876 l 1
586 762 m 1
 566 764 l 1
 451 692 334 565 334 440 c 0
 334 356 348 287 382 226 c 0
 416 165 480 128 568 128 c 0
 652 128 747 167 812 219 c 0
 877 270 920 313 940 342 c 1
 586 762 l 1
756 936 m 1
 896 1021 966 1118 966 1228 c 0
 966 1364 919 1438 796 1438 c 0
 691 1438 598 1325 598 1220 c 0
 598 1129 651 1035 756 936 c 1
EndSplineSet
Validated: 1
EndChar

StartChar: aogonek
Encoding: 261 261 137
Width: 1032
VWidth: 0
Flags: W
HStem: -452 166<930.009 989.534> -26 154<313.5 538.767> 946 126<562.759 796.832>
VStem: 145 196<180.73 606.815> 739 180<-292.422 -109.638>
DStem2: 584.764 -452 776.87 -452 0.156434 0.987688<689.411 1391.13>
LayerCount: 2
Fore
SplineSet
989 14 m 1
 942 -31 919 -91 919 -164 c 0
 919 -245 930 -286 952 -286 c 0
 953 -286 954 -286 955 -286 c 0
 979 -326 1017 -361 1069 -390 c 1
 1027 -452 l 1
 856 -435 739 -343 739 -236 c 0
 739 -171 766 -112 867 -16 c 1
 859 -17 846 -18 829 -18 c 0
 748 -18 685 19 685 100 c 2
 685 114 l 1
 689 160 l 1
 675 160 l 1
 615 53 505 -26 389 -26 c 0
 238 -26 145 109 145 332 c 0
 145 516 201 684 286 799 c 0
 370 914 482 1001 596 1042 c 0
 653 1062 708 1072 763 1072 c 0
 867 1072 942 1058 987 1030 c 1
 1007 1008 l 1
 921 458 l 2
 900 321 889 234 889 196 c 0
 889 141 902 123 941 116 c 2
 1023 102 l 1
 999 18 l 1
 989 14 l 1
799 904 m 1
 769 932 721 946 655 946 c 0
 532 946 427 815 378 647 c 0
 353 563 341 477 341 388 c 0
 341 209 390 128 487 128 c 0
 571 128 628 169 695 244 c 1
 799 904 l 1
EndSplineSet
Validated: 1
EndChar

StartChar: approxequal
Encoding: 8776 8776 138
Width: 1170
VWidth: 0
Flags: W
HStem: 356 174<836.375 1047.4> 412 172<316.612 527.065> 665 175<836.375 1046.59> 722 172<316.612 524.36>
LayerCount: 2
Fore
SplineSet
209 654 m 1x10
 210 661 213 669 216 680 c 0
 223 701 250 769 280 811 c 0
 310 853 364 894 423 894 c 2
 439 894 l 1x10
 980 840 l 1
 985 840 l 2
 1012 840 1049 871 1069 896 c 2
 1083 914 l 1
 1161 912 l 1
 1160 909 1159 904 1157 898 c 0
 1153 886 1139 846 1124 815 c 0
 1108 783 1080 741 1052 714 c 0
 1024 686 982 665 939 665 c 0x20
 937 665 934 666 930 667 c 0
 926 668 923 668 921 668 c 2
 381 722 l 1
 375 722 l 2
 346 722 308 687 289 659 c 2
 275 638 l 1
 209 654 l 1x10
209 344 m 1
 210 351 213 359 216 370 c 0
 223 391 250 459 280 501 c 0
 310 543 364 584 423 584 c 2
 439 584 l 1x40
 980 530 l 1
 985 530 l 2
 1012 530 1049 561 1069 586 c 2
 1083 604 l 1
 1161 602 l 1
 1159 595 1156 587 1153 576 c 0
 1146 554 1117 485 1086 442 c 0
 1054 398 998 356 939 356 c 0x80
 937 356 934 357 930 358 c 0
 926 359 923 359 921 359 c 2
 381 412 l 1
 375 412 l 2x40
 346 412 308 377 289 349 c 2
 275 328 l 1
 209 344 l 1
EndSplineSet
Validated: 1
EndChar

StartChar: aring
Encoding: 229 229 139
Width: 1034
VWidth: 0
Flags: W
HStem: -26 154<313.5 538.767> 946 126<562.759 796.832> 1222 59<764.253 903.224> 1572 58<754.845 891.011>
VStem: 145 196<180.73 606.815> 631 86<1315.01 1547.19> 937 86<1303.42 1538.8>
DStem2: 652.236 -26 844.342 -26 0.156434 0.987688<258.01 959.817>
LayerCount: 2
Fore
SplineSet
1023 102 m 1
 999 18 l 1
 943 -6 886 -18 829 -18 c 0
 748 -18 685 19 685 100 c 2
 685 114 l 1
 689 160 l 1
 675 160 l 1
 615 53 505 -26 389 -26 c 0
 238 -26 145 109 145 332 c 0
 145 516 201 684 286 799 c 0
 370 914 482 1001 596 1042 c 0
 653 1062 708 1072 763 1072 c 0
 867 1072 942 1058 987 1030 c 1
 1007 1008 l 1
 921 458 l 2
 900 319 889 232 889 196 c 0
 889 141 902 123 941 116 c 2
 1023 102 l 1
799 904 m 1
 769 932 721 946 655 946 c 0
 532 946 427 815 378 647 c 0
 353 563 341 477 341 388 c 0
 341 209 390 128 487 128 c 0
 571 128 628 169 695 244 c 1
 799 904 l 1
717 1436 m 0
 717 1355 760 1281 833 1281 c 0
 900 1281 937 1330 937 1418 c 0
 937 1501 893 1572 821 1572 c 0
 753 1572 717 1511 717 1436 c 0
1023 1434 m 0
 1023 1319 939 1222 819 1222 c 0
 706 1222 631 1299 631 1422 c 0
 631 1535 722 1630 835 1630 c 0
 950 1630 1023 1550 1023 1434 c 0
EndSplineSet
Validated: 1
EndChar

StartChar: asciicircum
Encoding: 94 94 140
Width: 909
VWidth: 0
Flags: W
HStem: 954 560
LayerCount: 2
Fore
SplineSet
722 1514 m 1
 1000 998 l 1
 924 954 l 1
 648 1300 l 1
 636 1300 l 1
 280 960 l 1
 226 1000 l 1
 654 1498 l 1
 722 1514 l 1
EndSplineSet
Validated: 1
EndChar

StartChar: asciitilde
Encoding: 126 126 141
Width: 1147
VWidth: 0
Flags: W
HStem: 512 174<825.375 1036.4> 568 172<305.612 513.36>
LayerCount: 2
Fore
SplineSet
198 500 m 1x40
 199 507 202 515 205 526 c 0
 212 547 239 615 269 657 c 0
 299 699 353 740 412 740 c 2
 428 740 l 1x40
 969 686 l 1
 974 686 l 2
 1001 686 1038 717 1058 742 c 2
 1072 760 l 1
 1150 758 l 1
 1148 751 1145 743 1142 732 c 0
 1135 710 1106 641 1075 598 c 0
 1043 554 987 512 928 512 c 0x80
 926 512 923 512 919 513 c 0
 915 514 912 514 910 514 c 2
 370 568 l 1
 364 568 l 2
 335 568 297 533 278 505 c 2
 264 484 l 1
 198 500 l 1x40
EndSplineSet
Validated: 1
EndChar

StartChar: asterisk
Encoding: 42 42 142
Width: 1028
VWidth: 0
Flags: W
LayerCount: 2
Fore
SplineSet
972 838 m 1
 827 754 l 1
 648 1054 l 1
 710 1116 l 1
 972 838 l 1
455 718 m 1
 331 830 l 1
 561 1094 l 1
 640 1054 l 1
 455 718 l 1
188 1168 m 1
 253 1322 l 1
 575 1184 l 1
 561 1098 l 1
 188 1168 l 1
533 1566 m 1
 697 1550 l 1
 666 1202 l 1
 581 1188 l 1
 533 1566 l 1
1015 1360 m 1
 1051 1198 l 1
 709 1120 l 1
 669 1198 l 1
 1015 1360 l 1
EndSplineSet
Validated: 1
EndChar

StartChar: at
Encoding: 64 64 143
Width: 1682
VWidth: 0
Flags: W
HStem: -276 112<678.723 1175.17> -44 20G<1371 1394.05> 72 146<669 858.5 1055.5 1266.99> 852 104<861.634 1064.08> 1156 108<799.664 1260.39>
VStem: 159 188<156.062 647.148> 527 192<230.238 596.928> 975 188<165.507 378.656> 1523 164<492.43 903.036>
DStem2: 898.233 -276 1069.48 -276 0.156434 0.987688<576.096 1128.15>
LayerCount: 2
Fore
SplineSet
1065 838 m 1
 1028 847 992 852 959 852 c 0
 871 852 789 747 749 616 c 0
 729 551 719 487 719 424 c 0
 719 364 723 319 730 289 c 0
 745 228 766 218 811 218 c 0
 871 218 935 256 983 308 c 1
 1065 838 l 1
1513 280 m 0
 1408 163 1250 84 1089 84 c 0
 1022 84 975 127 975 204 c 0
 975 207 975 210 976 215 c 0
 977 220 977 223 977 226 c 1
 967 226 l 1
 910 143 820 72 735 72 c 0
 603 72 527 169 527 372 c 0
 527 539 601 698 701 796 c 0
 801 894 923 956 1027 956 c 0
 1102 956 1168 949 1227 936 c 1
 1231 934 l 1
 1251 910 l 1
 1187 466 l 2
 1172 359 1163 292 1163 264 c 0
 1163 224 1172 204 1191 204 c 0
 1311 204 1420 300 1479 445 c 0
 1508 517 1523 594 1523 676 c 0
 1523 985 1324 1156 1027 1156 c 0
 834 1156 654 1065 537 927 c 0
 420 789 347 601 347 412 c 0
 347 48 561 -164 953 -164 c 0
 1105 -164 1291 -89 1371 -34 c 1
 1383 -24 l 1
 1425 -100 l 1
 1415 -106 l 1
 1346 -151 1309 -174 1219 -214 c 0
 1129 -255 1022 -276 905 -276 c 0
 750 -276 614 -251 483 -186 c 0
 352 -122 258 -30 202 121 c 1
 173 196 159 281 159 376 c 0
 159 615 260 842 421 1002 c 0
 581 1162 819 1264 1075 1264 c 0
 1303 1264 1495 1175 1605 1010 c 0
 1660 927 1687 832 1687 724 c 0
 1687 561 1618 397 1513 280 c 0
EndSplineSet
Validated: 1
EndChar

StartChar: atilde
Encoding: 227 227 144
Width: 1034
VWidth: 0
Flags: W
HStem: -26 154<313.5 538.767> 946 126<562.759 796.832> 1252 126<871.48 1041.83> 1290 126<607.313 768.861>
VStem: 145 196<180.73 606.815>
DStem2: 652.236 -26 844.342 -26 0.156434 0.987688<258.01 959.817>
LayerCount: 2
Fore
SplineSet
1023 102 m 1xc8
 999 18 l 1
 943 -6 886 -18 829 -18 c 0
 748 -18 685 19 685 100 c 2
 685 114 l 1
 689 160 l 1
 675 160 l 1
 615 53 505 -26 389 -26 c 0
 238 -26 145 109 145 332 c 0
 145 516 201 684 286 799 c 0
 370 914 482 1001 596 1042 c 0
 653 1062 708 1072 763 1072 c 0
 867 1072 942 1058 987 1030 c 1
 1007 1008 l 1
 921 458 l 2
 900 319 889 232 889 196 c 0
 889 141 902 123 941 116 c 2
 1023 102 l 1xc8
799 904 m 1
 769 932 721 946 655 946 c 0
 532 946 427 815 378 647 c 0
 353 563 341 477 341 388 c 0
 341 209 390 128 487 128 c 0
 571 128 628 169 695 244 c 1
 799 904 l 1
545 1242 m 1
 546 1245 547 1248 548 1252 c 0xe8
 550 1260 560 1289 570 1311 c 0
 580 1333 597 1362 617 1382 c 0
 636 1401 664 1416 693 1416 c 0xd8
 695 1416 698 1416 701 1415 c 0
 704 1414 707 1414 709 1414 c 2
 979 1378 l 1
 983 1378 l 2xe8
 1002 1378 1028 1399 1041 1416 c 2xd8
 1051 1428 l 1
 1109 1426 l 1
 1108 1421 1106 1415 1104 1407 c 0
 1099 1391 1078 1343 1056 1313 c 0
 1034 1283 994 1252 951 1252 c 2
 937 1252 l 1xe8
 667 1290 l 1
 663 1290 l 2xd8
 642 1290 614 1266 601 1246 c 1
 591 1232 l 1
 545 1242 l 1
EndSplineSet
Validated: 1
EndChar

StartChar: b
Encoding: 98 98 145
Width: 1048
VWidth: 0
Flags: W
HStem: -28 136<396.321 666.268> 906 172<639.376 838.5> 1412 92<213 287.944> 1514 20G<324.333 562.714>
VStem: 859 204<394.803 809.184>
DStem2: 141.062 -28 327.106 -28 0.156434 0.987688<214.668 919.294 940.944 1429.96>
LayerCount: 2
Fore
SplineSet
367 1384 m 1
 205 1412 l 1
 213 1504 l 1
 547 1534 l 1
 569 1506 l 1
 493 1020 l 1
 461 874 l 1
 475 874 l 1
 540 986 676 1078 785 1078 c 0
 892 1078 983 989 1029 858 c 0
 1052 793 1063 723 1063 648 c 0
 1063 403 949 184 756 63 c 0
 659 2 552 -28 435 -28 c 0
 338 -28 216 4 155 60 c 1
 367 1384 l 1
709 172 m 0
 765 220 809 288 838 409 c 0
 852 469 859 537 859 612 c 0
 859 697 837 791 783 857 c 0
 756 890 724 906 689 906 c 0
 593 906 536 871 465 806 c 1
 361 186 l 1
 393 138 468 108 555 108 c 0
 603 108 653 124 709 172 c 0
EndSplineSet
Validated: 1
EndChar

StartChar: backslash
Encoding: 92 92 146
Width: 860
VWidth: 0
Flags: W
HStem: 1486 20G<306.645 462>
VStem: 304 412
DStem2: 462 1496 304 1506 0.13109 -0.99137<0 1922.23>
LayerCount: 2
Fore
SplineSet
462 1496 m 1
 716 -440 l 1
 560 -430 l 1
 304 1506 l 1
 462 1496 l 1
EndSplineSet
Validated: 1
EndChar

StartChar: bar
Encoding: 124 124 147
Width: 461
VWidth: 0
Flags: W
HStem: 1500 20G<397.831 539>
VStem: 93 446
DStem2: 90.4659 -440 231 -440 0.156434 0.987688<21.9844 1984.45>
LayerCount: 2
Fore
SplineSet
231 -440 m 1
 93 -424 l 1
 401 1520 l 1
 539 1506 l 1
 231 -440 l 1
EndSplineSet
Validated: 1
EndChar

StartChar: braceleft
Encoding: 123 123 148
Width: 639
VWidth: 0
Flags: W
HStem: -458 21G<354 513.639> 472 120<90 132> 1400 120<742 790>
VStem: 210 202<-320.662 186.99> 254 206<-150.037 421.328>
LayerCount: 2
Fore
SplineSet
522 -336 m 1xf0
 512 -458 l 1
 438 -458 l 2
 270 -458 210 -361 210 -200 c 0xf0
 210 -152 217 -76 232 29 c 0
 247 134 254 208 254 252 c 0
 254 373 224 447 132 462 c 2
 72 472 l 1
 90 592 l 1
 150 602 l 2
 247 618 311 703 342 812 c 0
 357 866 371 925 382 989 c 0
 405 1117 431 1247 477 1349 c 0
 523 1451 614 1520 749 1520 c 2
 820 1520 l 1
 790 1400 l 1
 742 1392 l 2
 685 1383 649 1316 630 1225 c 0
 620 1179 611 1129 603 1074 c 0
 587 964 565 846 527 747 c 0
 489 648 415 566 312 538 c 1
 310 530 l 1
 422 497 460 401 460 257 c 0xe8
 460 202 452 120 436 13 c 0
 420 -94 412 -167 412 -204 c 0
 412 -281 435 -323 482 -330 c 2
 522 -336 l 1xf0
EndSplineSet
Validated: 1
EndChar

StartChar: braceright
Encoding: 125 125 149
Width: 638
VWidth: 0
Flags: W
HStem: -458 122<11 51> 472 120<679 717> 1400 120<301 339>
VStem: 349 206<644.256 1175.93> 401 196<902.941 1385.87>
LayerCount: 2
Fore
SplineSet
11 -336 m 1xf0
 51 -330 l 2
 112 -321 152 -255 173 -162 c 0
 184 -116 193 -65 202 -10 c 0
 219 101 244 220 281 320 c 0
 318 419 392 502 495 530 c 1
 497 538 l 1
 398 567 349 653 349 796 c 0xf0
 349 851 358 933 375 1042 c 0
 392 1151 401 1225 401 1264 c 0
 401 1341 386 1384 339 1392 c 2
 291 1400 l 1
 301 1520 l 1
 373 1520 l 2
 461 1520 522 1494 554 1443 c 0
 585 1392 597 1336 597 1256 c 0xe8
 597 1207 590 1131 576 1027 c 0
 562 922 555 848 555 804 c 0
 555 689 588 619 679 602 c 2
 735 592 l 1
 717 472 l 1
 653 462 l 2
 577 450 523 398 492 324 c 0
 460 250 439 154 422 55 c 0
 405 -44 388 -144 354 -232 c 0
 320 -320 276 -389 196 -428 c 0
 155 -448 108 -458 55 -458 c 2
 -19 -458 l 1
 11 -336 l 1xf0
EndSplineSet
Validated: 1
EndChar

StartChar: bracketleft
Encoding: 91 91 150
Width: 534
VWidth: 0
Flags: W
HStem: -454 116<352.648 423> 1412 108<623.064 727>
VStem: 87 644
DStem2: 87 -456 262.509 -456 0.156434 0.987688<171.226 1894.2>
LayerCount: 2
Fore
SplineSet
423 -454 m 1
 87 -456 l 1
 403 1520 l 1
 731 1520 l 1
 727 1412 l 1
 553 1388 l 1
 285 -314 l 1
 453 -338 l 1
 423 -454 l 1
EndSplineSet
Validated: 1
EndChar

StartChar: bracketright
Encoding: 93 93 151
Width: 536
VWidth: 0
Flags: W
HStem: -454 116<-23 82.1307> 1412 108<287 354.157>
VStem: -29 644
DStem2: 130.509 -456 303 -456 0.156434 0.987688<143.77 1866.74>
LayerCount: 2
Fore
SplineSet
-29 -454 m 1
 -23 -338 l 1
 153 -314 l 1
 421 1388 l 1
 255 1412 l 1
 287 1520 l 1
 615 1520 l 1
 303 -456 l 1
 -29 -454 l 1
EndSplineSet
Validated: 1
EndChar

StartChar: breve
Encoding: 728 728 152
Width: 763
VWidth: 0
Flags: W
HStem: 1664 132<259.228 498.458>
VStem: 146 66<1852.15 1889.73>
LayerCount: 2
Fore
SplineSet
146 1880 m 1
 202 1918 l 1
 212 1898 l 2
 240 1843 300 1796 376 1796 c 0
 448 1796 505 1831 548 1900 c 1
 560 1920 l 1
 610 1886 l 1
 602 1862 l 2
 565 1750 487 1664 376 1664 c 0
 257 1664 179 1749 152 1856 c 2
 146 1880 l 1
EndSplineSet
Validated: 1
EndChar

StartChar: brokenbar
Encoding: 166 166 153
Width: 456
VWidth: 0
Flags: W
HStem: 1500 20G<398.813 534>
VStem: 94 440
DStem2: 91.4659 -440 226 -440 0.156434 0.987688<21.0458 974.018 1113.4 1984.45>
LayerCount: 2
Fore
SplineSet
94 -424 m 1
 244 522 l 1
 376 508 l 1
 226 -440 l 1
 94 -424 l 1
264 654 m 1
 402 1520 l 1
 534 1506 l 1
 390 640 l 1
 264 654 l 1
EndSplineSet
Validated: 1
EndChar

StartChar: bullet
Encoding: 8226 8226 154
Width: 629
VWidth: 0
Flags: W
HStem: 476 436<311.86 535.547>
VStem: 206 430<575.617 803.943>
LayerCount: 2
Fore
SplineSet
454 912 m 0
 565 912 636 825 636 722 c 0
 636 577 531 476 394 476 c 0
 298 476 206 571 206 662 c 0
 206 805 317 912 454 912 c 0
EndSplineSet
Validated: 1
EndChar

StartChar: c
Encoding: 99 99 155
Width: 806
VWidth: 0
Flags: W
HStem: -36 148<428.242 637.42> 976 114<536.991 757.017>
VStem: 148 208<196.675 637.633> 728 168<861.812 944.555>
LayerCount: 2
Fore
SplineSet
540 112 m 0
 631 112 687 139 762 188 c 1
 790 128 l 1
 714 33 582 -36 466 -36 c 0
 267 -36 148 113 148 372 c 0
 148 543 202 705 280 817 c 0
 358 929 459 1017 556 1059 c 0
 605 1080 650 1090 692 1090 c 0
 820 1090 896 1021 896 916 c 0
 896 836 823 786 728 778 c 1
 724 825 718 864 704 907 c 0
 690 950 664 976 632 976 c 0
 572 976 505 917 450 821 c 0
 395 725 356 568 356 400 c 0
 356 223 415 112 540 112 c 0
EndSplineSet
Validated: 1
EndChar

StartChar: cacute
Encoding: 263 263 156
Width: 806
VWidth: 0
Flags: W
HStem: -36 148<428.242 637.42> 976 114<536.991 757.017>
VStem: 148 208<196.675 637.633> 728 168<861.812 944.555>
LayerCount: 2
Fore
SplineSet
540 112 m 0
 631 112 687 139 762 188 c 1
 790 128 l 1
 714 33 582 -36 466 -36 c 0
 267 -36 148 113 148 372 c 0
 148 543 202 705 280 817 c 0
 358 929 459 1017 556 1059 c 0
 605 1080 650 1090 692 1090 c 0
 820 1090 896 1021 896 916 c 0
 896 836 823 786 728 778 c 1
 724 825 718 864 704 907 c 0
 690 950 664 976 632 976 c 0
 572 976 505 917 450 821 c 0
 395 725 356 568 356 400 c 0
 356 223 415 112 540 112 c 0
1016 1590 m 1
 794 1206 l 1
 732 1244 l 1
 880 1638 l 1
 1016 1590 l 1
EndSplineSet
Validated: 1
EndChar

StartChar: caron
Encoding: 711 711 157
Width: 791
VWidth: 0
Flags: W
HStem: 1644 274
VStem: 150 492
DStem2: 248 1918 150 1844 0.736873 -0.676031<0 250.267> 440 1744 434 1660 0.690318 0.723506<0 226.544>
LayerCount: 2
Fore
SplineSet
368 1644 m 1
 150 1844 l 1
 248 1918 l 1
 428 1744 l 1
 440 1744 l 1
 590 1914 l 1
 642 1878 l 1
 434 1660 l 1
 368 1644 l 1
EndSplineSet
Validated: 1
EndChar

StartChar: ccaron
Encoding: 269 269 158
Width: 806
VWidth: 0
Flags: W
HStem: -36 148<428.242 637.42> 976 114<536.991 757.017>
VStem: 148 208<196.675 637.633> 728 168<861.812 944.555>
DStem2: 556 1490 458 1416 0.736873 -0.676031<0 250.267> 748 1316 741 1232 0.692049 0.72185<0 226.522>
LayerCount: 2
Fore
SplineSet
540 112 m 0
 631 112 687 139 762 188 c 1
 790 128 l 1
 714 33 582 -36 466 -36 c 0
 267 -36 148 113 148 372 c 0
 148 543 202 705 280 817 c 0
 358 929 459 1017 556 1059 c 0
 605 1080 650 1090 692 1090 c 0
 820 1090 896 1021 896 916 c 0
 896 836 823 786 728 778 c 1
 724 825 718 864 704 907 c 0
 690 950 664 976 632 976 c 0
 572 976 505 917 450 821 c 0
 395 725 356 568 356 400 c 0
 356 223 415 112 540 112 c 0
676 1216 m 1
 458 1416 l 1
 556 1490 l 1
 736 1316 l 1
 748 1316 l 1
 898 1486 l 1
 950 1450 l 1
 741 1232 l 1
 676 1216 l 1
EndSplineSet
Validated: 1
EndChar

StartChar: ccedilla
Encoding: 231 231 159
Width: 810
VWidth: 0
Flags: W
HStem: 976 114<538.991 759.017>
VStem: 150 208<192.95 637.633> 456 162<-369.757 -212.83> 730 168<861.812 944.555>
LayerCount: 2
Fore
SplineSet
510 -92 m 1
 582 -155 618 -215 618 -274 c 0
 618 -357 537 -423 376 -472 c 1
 352 -400 l 1
 419 -377 456 -337 456 -300 c 0
 456 -267 427 -222 368 -166 c 1
 458 -36 l 1
 265 -32 150 116 150 372 c 0
 150 543 204 705 282 817 c 0
 360 929 461 1017 558 1059 c 0
 607 1080 652 1090 694 1090 c 0
 822 1090 898 1021 898 916 c 0
 898 836 825 786 730 778 c 1
 726 825 720 864 706 907 c 0
 692 950 666 976 634 976 c 0
 574 976 507 917 452 821 c 0
 397 725 358 568 358 400 c 0
 358 223 417 112 542 112 c 0
 633 112 689 139 764 188 c 1
 792 128 l 1
 736 57 647 0 558 -24 c 1
 510 -92 l 1
EndSplineSet
Validated: 1
EndChar

StartChar: cdotaccent
Encoding: 267 267 160
Width: 806
VWidth: 0
Flags: W
HStem: -36 148<428.242 637.42> 976 114<536.991 757.017> 1192 286<665 871>
VStem: 148 208<196.675 637.633> 623 292<1235.62 1437.88> 728 168<861.812 944.555>
LayerCount: 2
Fore
SplineSet
540 112 m 0xf4
 631 112 687 139 762 188 c 1
 790 128 l 1
 714 33 582 -36 466 -36 c 0
 267 -36 148 113 148 372 c 0
 148 543 202 705 280 817 c 0
 358 929 459 1017 556 1059 c 0
 605 1080 650 1090 692 1090 c 0
 820 1090 896 1021 896 916 c 0
 896 836 823 786 728 778 c 1
 724 825 718 864 704 907 c 0
 690 950 664 976 632 976 c 0
 572 976 505 917 450 821 c 0
 395 725 356 568 356 400 c 0
 356 223 415 112 540 112 c 0xf4
915 1340 m 0xf8
 915 1259 847 1192 767 1192 c 0
 687 1192 623 1258 623 1341 c 0
 623 1418 690 1478 767 1478 c 0
 848 1478 915 1417 915 1340 c 0xf8
EndSplineSet
Validated: 1
EndChar

StartChar: cedilla
Encoding: 184 184 161
Width: 465
VWidth: 0
Flags: W
HStem: -472 476<234 235.345>
VStem: 204 162<-369.757 -212.83>
LayerCount: 2
Fore
SplineSet
258 -92 m 1
 330 -155 366 -215 366 -274 c 0
 366 -357 285 -423 124 -472 c 1
 100 -400 l 1
 167 -377 204 -337 204 -300 c 0
 204 -267 175 -222 116 -166 c 1
 234 4 l 1
 324 4 l 1
 258 -92 l 1
EndSplineSet
Validated: 1
EndChar

StartChar: cent
Encoding: 162 162 162
Width: 1022
VWidth: 0
Flags: W
HStem: -36 140<542.5 788.668>
VStem: 171 248<242.326 647.552>
DStem2: 335 -162 483 -138 0.285073 0.958506<65.1949 179.553 407.406 1186.72 1340.26 1450.34>
LayerCount: 2
Fore
SplineSet
897 1254 m 1
 847 1084 l 1
 994 1069 1047 1012 1047 920 c 0
 1047 847 976 784 875 776 c 1
 872 829 849 904 797 944 c 1
 561 126 l 1
 594 111 635 104 683 104 c 0
 782 104 855 136 947 188 c 1
 954 175 959 152 963 120 c 1
 844 13 718 -36 551 -36 c 0
 534 -36 521 -35 513 -34 c 1
 483 -138 l 1
 335 -162 l 1
 383 0 l 1
 304 40 246 103 215 177 c 0
 184 251 171 323 171 404 c 0
 171 552 219 694 291 798 c 0
 363 901 460 985 559 1034 c 0
 608 1058 657 1074 705 1082 c 1
 749 1228 l 1
 897 1254 l 1
685 972 m 1
 558 940 419 715 419 492 c 0
 419 360 426 310 473 222 c 1
 685 972 l 1
EndSplineSet
Validated: 1
EndChar

StartChar: circumflex
Encoding: 710 710 163
Width: 785
VWidth: 0
Flags: W
HStem: 1646 268
VStem: 146 486
LayerCount: 2
Fore
SplineSet
416 1914 m 1
 632 1689 l 1
 572 1646 l 1
 374 1778 l 1
 362 1778 l 1
 192 1644 l 1
 146 1680 l 1
 350 1898 l 1
 416 1914 l 1
EndSplineSet
Validated: 1
EndChar

StartChar: colon
Encoding: 58 58 164
Width: 567
VWidth: 0
Flags: W
HStem: -4 282<217.377 401> 756 280<333.364 514.169>
VStem: 168 278<40.0891 228.466> 284 276<801.239 987.408>
LayerCount: 2
Fore
SplineSet
444 1036 m 0xd0
 515 1036 560 979 560 914 c 0
 560 822 492 756 404 756 c 0
 343 756 284 819 284 876 c 0
 284 967 355 1036 444 1036 c 0xd0
328 278 m 0
 399 278 446 218 446 153 c 0
 446 61 378 -4 290 -4 c 0
 229 -4 168 61 168 118 c 0xe0
 168 209 239 278 328 278 c 0
EndSplineSet
Validated: 1
EndChar

StartChar: comma
Encoding: 44 44 165
Width: 541
VWidth: 0
Flags: W
HStem: -380 84<41.6107 135.078> 44 220<159.5 313.5>
VStem: 284 186<-114.618 82>
LayerCount: 2
Fore
SplineSet
30 -296 m 1
 185 -256 284 -157 284 -74 c 0
 284 -3 243 44 162 44 c 0
 157 44 145 41 126 36 c 1
 121 59 118 81 118 102 c 0
 118 194 218 264 290 264 c 0
 337 264 374 252 411 221 c 1
 447 189 470 126 470 38 c 0
 470 -11 457 -67 415 -134 c 0
 373 -202 317 -260 215 -315 c 0
 164 -342 107 -364 44 -380 c 1
 30 -296 l 1
EndSplineSet
Validated: 1
EndChar

StartChar: commaaccent
Encoding: 806 806 166
Width: 1199
VWidth: 0
Flags: W
HStem: -484 48<-8.38933 42.887> -236 128<53.6849 167.5>
VStem: 134 108<-358.975 -191.38>
LayerCount: 2
Fore
SplineSet
-14 -436 m 1
 75 -411 134 -353 134 -306 c 0
 134 -263 110 -236 62 -236 c 0
 59 -236 53 -237 42 -240 c 1
 38 -226 36 -213 36 -202 c 0
 36 -149 94 -108 138 -108 c 0
 197 -108 242 -143 242 -240 c 0
 242 -277 226 -320 191 -368 c 0
 155 -416 85 -461 -6 -484 c 1
 -14 -436 l 1
EndSplineSet
Validated: 1
EndChar

StartChar: copyright
Encoding: 169 169 167
Width: 1698
VWidth: 0
Flags: W
HStem: -32 114<617.347 1106.44> 316 122<835.747 1029.67> 1148 94<920.091 1112> 1442 110<826.554 1310.06>
VStem: 198 140<370.466 903.659> 612 169<494.667 893.48> 1088 140<1049.7 1118.26> 1602 138<605.924 1140.79>
LayerCount: 2
Fore
SplineSet
1524 1210 m 0
 1469 1303 1392 1372 1272 1412 c 0
 1212 1432 1145 1442 1072 1442 c 0
 923 1442 778 1397 654 1304 c 0
 529 1211 433 1085 379 906 c 0
 352 816 338 719 338 616 c 0
 338 499 361 396 414 305 c 1
 466 213 542 147 659 110 c 0
 717 91 782 82 854 82 c 0
 1007 82 1155 127 1282 219 c 0
 1409 311 1506 436 1561 614 c 0
 1588 703 1602 798 1602 900 c 0
 1602 1013 1579 1117 1524 1210 c 0
1516 1422 m 1
 1615 1342 1685 1230 1717 1111 c 0
 1732 1052 1740 990 1740 926 c 0
 1740 682 1668 468 1552 318 c 0
 1436 168 1277 59 1100 7 c 0
 1011 -19 920 -32 826 -32 c 0
 654 -32 509 18 414 98 c 1
 318 177 251 289 221 409 c 0
 206 468 198 531 198 596 c 0
 198 787 247 965 329 1104 c 0
 411 1243 526 1359 658 1435 c 0
 789 1510 939 1552 1088 1552 c 0
 1265 1552 1416 1501 1516 1422 c 1
934 438 m 0
 999 438 1059 459 1116 502 c 1
 1140 450 l 1
 1079 373 969 316 874 316 c 0
 711 316 612 440 612 652 c 0
 612 792 656 925 721 1018 c 0
 785 1110 867 1181 948 1216 c 0
 988 1233 1025 1242 1060 1242 c 0
 1164 1242 1228 1185 1228 1098 c 0
 1228 1034 1167 993 1088 986 c 1
 1085 1038 1078 1083 1054 1120 c 0
 1042 1139 1027 1148 1010 1148 c 0
 902 1148 781 946 781 674 c 0
 781 530 831 438 934 438 c 0
EndSplineSet
Validated: 1
EndChar

StartChar: currency
Encoding: 164 164 168
Width: 986
VWidth: 0
Flags: W
HStem: 262 118<433.644 680.503> 812 118<491.087 737.574>
VStem: 259 136<418.727 692.03> 781 130<479.569 768.474>
LayerCount: 2
Fore
SplineSet
617 812 m 0
 501 812 395 706 395 574 c 0
 395 441 440 380 551 380 c 0
 670 380 781 487 781 612 c 0
 781 748 733 812 617 812 c 0
175 308 m 1
 291 402 l 1
 264 457 259 476 259 536 c 0
 259 588 305 716 341 760 c 1
 249 864 l 1
 367 964 l 1
 443 858 l 1
 503 902 581 930 641 930 c 0
 708 930 780 907 821 871 c 1
 931 966 l 1
 1007 860 l 1
 890 770 l 1
 909 726 911 712 911 648 c 0
 911 556 872 467 825 414 c 1
 923 310 l 1
 801 210 l 1
 723 320 l 1
 652 281 586 262 525 262 c 0
 474 262 422 279 371 312 c 1
 261 204 l 1
 175 308 l 1
EndSplineSet
Validated: 1
EndChar

StartChar: d
Encoding: 100 100 169
Width: 1033
VWidth: 0
Flags: W
HStem: -26 154<304 533.768> 18 86<936 992> 946 126<558.305 792.976> 1432 88<724 785.056>
VStem: 144 196<180.881 597.052>
DStem2: 661.361 -26 836.821 -26 0.156434 0.987688<270.843 951.825 1103.59 1442.65> 688 244 916 460 0.120087 0.992763<-59.8478 692.088>
LayerCount: 2
Fore
SplineSet
1016 104 m 1x78
 992 18 l 1x78
 923 -6 867 -18 824 -18 c 0
 727 -18 683 26 680 90 c 0
 680 109 682 132 686 160 c 1
 670 160 l 1
 610 53 500 -26 384 -26 c 0xb8
 224 -26 144 92 144 328 c 0
 144 497 197 663 279 781 c 0
 361 899 466 992 579 1038 c 0
 635 1061 689 1072 742 1072 c 0
 781 1072 809 1069 826 1064 c 1
 834 1064 l 1
 880 1400 l 1
 708 1432 l 1
 724 1520 l 1
 1058 1550 l 1
 1082 1522 l 1
 916 460 l 1
 895 313 884 224 884 194 c 0
 884 139 897 125 936 118 c 2
 1016 104 l 1x78
794 902 m 1
 760 931 713 946 652 946 c 0
 529 946 425 817 377 653 c 0
 352 571 340 487 340 400 c 0
 340 208 390 128 490 128 c 0xb8
 574 128 620 165 688 244 c 1
 794 902 l 1
EndSplineSet
Validated: 1
EndChar

StartChar: dagger
Encoding: 8224 8224 170
Width: 1003
VWidth: 0
Flags: W
HStem: 1500 20G<659.197 822>
DStem2: 343.466 -440 520 -440 0.156434 0.987688<27.616 27.616 1474.52 1985.7>
LayerCount: 2
Fore
SplineSet
728 992 m 1
 1100 1002 l 1
 1068 854 l 1
 710 868 l 1
 520 -440 l 1
 346 -424 l 1
 570 871 l 1
 200 862 l 1
 230 1002 l 1
 588 992 l 1
 662 1520 l 1
 822 1506 l 1
 728 992 l 1
EndSplineSet
Validated: 1
EndChar

StartChar: daggerdbl
Encoding: 8225 8225 171
Width: 1056
VWidth: 0
Flags: W
HStem: 78 148<147 465> 88 124<187.174 465 623 973> 854 148<753 1091> 862 140<257 595 753 972.452> 1500 20G<684.197 847>
DStem2: 368.783 -440 531 -440 0.156434 0.987688<25.3764 536.551 681.766 733.459 934.702 1119.99 1281.99 1330.25 1474.47 1732.8 1860.37 1985.65>
LayerCount: 2
Fore
SplineSet
668 520 m 1x28
 623 210 l 1
 1003 218 l 1
 973 78 l 1xa8
 605 88 l 1
 531 -440 l 1
 371 -426 l 1
 465 88 l 1x48
 115 78 l 1
 147 226 l 1x88
 485 212 l 1
 557 604 l 1
 595 871 l 1
 227 862 l 1
 257 1002 l 1
 613 992 l 1
 687 1520 l 1
 847 1506 l 1
 753 992 l 1
 1123 1002 l 1x58
 1091 854 l 1
 735 868 l 1
 668 520 l 1x28
EndSplineSet
Validated: 1
EndChar

StartChar: dcaron
Encoding: 271 271 172
Width: 1184
VWidth: 0
Flags: W
HStem: -26 154<304 533.768> 18 86<936 992> 908 84<1099.61 1193.08> 946 126<558.305 792.976> 1332 220<1217.5 1372.5> 1432 88<724 785.056>
VStem: 144 196<180.881 597.052> 1342 186<1173.38 1370>
DStem2: 661.361 -26 836.821 -26 0.156434 0.987688<270.843 951.825 1103.59 1442.65> 688 244 916 460 0.120087 0.992763<-59.8478 692.088>
LayerCount: 2
Fore
SplineSet
1016 104 m 1x57
 992 18 l 1x57
 923 -6 867 -18 824 -18 c 0
 727 -18 683 26 680 90 c 0
 680 109 682 132 686 160 c 1
 670 160 l 1
 610 53 500 -26 384 -26 c 0x83
 224 -26 144 92 144 328 c 0
 144 497 197 663 279 781 c 0
 361 899 466 992 579 1038 c 0
 635 1061 689 1072 742 1072 c 0
 781 1072 809 1069 826 1064 c 1
 834 1064 l 1
 880 1400 l 1
 708 1432 l 1
 724 1520 l 1
 1058 1550 l 1
 1082 1522 l 1
 916 460 l 1
 895 313 884 224 884 194 c 0
 884 139 897 125 936 118 c 2
 1016 104 l 1x57
794 902 m 1
 760 931 713 946 652 946 c 0
 529 946 425 817 377 653 c 0
 352 571 340 487 340 400 c 0
 340 208 390 128 490 128 c 0x93
 574 128 620 165 688 244 c 1
 794 902 l 1
1088 992 m 1x2b
 1243 1032 1342 1131 1342 1214 c 0
 1342 1285 1301 1332 1220 1332 c 0
 1215 1332 1203 1329 1184 1324 c 1
 1179 1347 1176 1369 1176 1390 c 0
 1176 1482 1276 1552 1349 1552 c 0
 1396 1552 1433 1540 1470 1509 c 1
 1506 1477 1528 1414 1528 1326 c 0
 1528 1277 1515 1221 1473 1154 c 0
 1431 1086 1375 1028 1273 973 c 0
 1222 946 1165 924 1102 908 c 1
 1088 992 l 1x2b
EndSplineSet
Validated: 1
EndChar

StartChar: dcroat
Encoding: 273 273 173
Width: 1032
VWidth: 0
Flags: W
HStem: -26 154<304 533.768> 18 86<936 992> 946 126<558.305 792.976> 1180 121<569 850 1047 1087> 1432 88<724 785.056>
VStem: 144 196<180.881 597.052>
DStem2: 656.541 -26 839.025 -26 0.156434 0.987688<254.307 953.969 1104.34 1221.42 1371.74 1443.4>
LayerCount: 2
Fore
SplineSet
569 1301 m 1xbc
 866 1301 l 1
 880 1400 l 1
 708 1432 l 1
 724 1520 l 1
 1058 1550 l 1
 1082 1522 l 1
 1047 1301 l 1
 1103 1301 l 1
 1087 1180 l 1
 1028 1180 l 1
 916 460 l 1
 895 313 884 224 884 194 c 0
 884 139 897 125 936 118 c 2
 1016 104 l 1
 992 18 l 1x7c
 923 -6 867 -18 824 -18 c 0
 727 -18 683 26 680 90 c 0
 680 109 682 132 686 160 c 1
 670 160 l 1
 610 53 500 -26 384 -26 c 0
 224 -26 144 92 144 328 c 0
 144 497 197 663 279 781 c 0
 361 899 466 992 579 1038 c 0
 635 1061 689 1072 742 1072 c 0
 781 1072 809 1069 826 1064 c 1
 834 1064 l 1
 850 1180 l 1
 553 1180 l 1
 569 1301 l 1xbc
794 902 m 1
 760 931 713 946 652 946 c 0
 529 946 425 817 377 653 c 0
 352 571 340 487 340 400 c 0
 340 208 390 128 490 128 c 0xbc
 574 128 620 165 688 244 c 1
 794 902 l 1
EndSplineSet
Validated: 1
EndChar

StartChar: degree
Encoding: 176 176 174
Width: 527
VWidth: 0
Flags: W
HStem: 1148 58<395.144 530.758> 1498 58<424.574 559.219>
VStem: 276 90<1221.18 1445.6> 588 88<1274.33 1482.23>
LayerCount: 2
Fore
SplineSet
494 1498 m 0
 423 1498 366 1421 366 1332 c 0
 366 1259 397 1206 460 1206 c 0
 532 1206 588 1267 588 1384 c 0
 588 1439 561 1498 494 1498 c 0
518 1556 m 0
 635 1556 676 1517 676 1402 c 0
 676 1286 556 1148 436 1148 c 0
 331 1148 276 1215 276 1304 c 0
 276 1445 398 1556 518 1556 c 0
EndSplineSet
Validated: 1
EndChar

StartChar: dieresis
Encoding: 168 168 175
Width: 831
VWidth: 0
Flags: W
HStem: 1676 192<166.896 339.259 490.897 664.67>
VStem: 150 206<1693.28 1851.52> 474 208<1694.62 1850.23>
LayerCount: 2
Fore
SplineSet
682 1774 m 0
 682 1717 632 1676 576 1676 c 0
 521 1676 474 1717 474 1774 c 0
 474 1830 523 1868 576 1868 c 0
 632 1868 682 1829 682 1774 c 0
356 1774 m 0
 356 1717 308 1676 252 1676 c 0
 197 1676 150 1717 150 1774 c 0
 150 1830 199 1868 252 1868 c 0
 308 1868 356 1829 356 1774 c 0
EndSplineSet
Validated: 1
EndChar

StartChar: divide
Encoding: 247 247 176
Width: 1180
VWidth: 0
Flags: W
HStem: 126 286<529.887 711.636> 550 128<211 1161> 806 286<633.165 815.636>
VStem: 479 282<174.093 359.232> 581 284<854.093 1039.23>
LayerCount: 2
Fore
SplineSet
745 1092 m 0xe8
 816 1092 865 1035 865 968 c 0
 865 873 794 806 705 806 c 0
 642 806 581 869 581 928 c 0
 581 1021 654 1092 745 1092 c 0xe8
643 412 m 0
 714 412 761 356 761 288 c 0
 761 193 690 126 601 126 c 0
 538 126 479 188 479 248 c 0xf0
 479 341 552 412 643 412 c 0
211 678 m 1
 1195 678 l 1
 1161 550 l 1
 177 550 l 1
 211 678 l 1
EndSplineSet
Validated: 1
EndChar

StartChar: dollar
Encoding: 36 36 177
Width: 1050
VWidth: 0
Flags: W
HStem: -29 124<358.086 432> 1078 21G<926 1048.71> 1434 109<840 876.756>
VStem: 145 122<404.46 456> 255 227<1042.91 1238.71> 839 238<304.925 503.395> 926 118<1092 1262.14>
DStem2: 402 -219 561.832 -219 0.156434 0.987688<45.2526 192.354 1808.83 1940.07> 429.267 -219 536 -219 0.156434 0.987688<342.71 858.115 1189.23 1676.19>
LayerCount: 2
Fore
SplineSet
668 612 m 1xe4
 587 103 l 1
 698 128 812 204 836 349 c 0
 838 361 839 372 839 383 c 0
 839 483 764 550 668 612 c 1xe4
619 955 m 1
 695 1436 l 1
 593 1419 507 1349 485 1211 c 0
 483 1197 482 1184 482 1171 c 0xe8
 482 1076 539 1011 619 955 c 1
1044 1078 m 1xea
 926 1092 l 1xea
 931 1325 l 1
 919 1361 866 1416 794 1434 c 1
 709 898 l 1
 877 800 1077 708 1077 492 c 0
 1077 473 1075 452 1072 430 c 0
 1035 196 824 31 594 -16 c 1
 565 -199 l 1
 402 -219 l 1
 432 -29 l 1
 269 -21 138 58 78 149 c 1
 145 474 l 1
 267 456 l 1xf4
 277 227 l 1
 307 163 379 104 479 95 c 1
 570 671 l 1
 417 761 255 859 255 1053 c 0
 255 1072 257 1093 260 1114 c 0
 297 1346 486 1492 687 1533 c 1
 713 1696 l 1
 868 1716 l 1
 840 1543 l 1
 954 1535 1050 1494 1125 1422 c 1
 1123 1412 1044 1078 1044 1078 c 1xea
EndSplineSet
Validated: 1
EndChar

StartChar: dotaccent
Encoding: 729 729 178
Width: 591
VWidth: 0
Flags: W
HStem: 1642 286<192 398>
VStem: 150 292<1685.62 1887.88>
LayerCount: 2
Fore
SplineSet
442 1790 m 0
 442 1709 374 1642 294 1642 c 0
 214 1642 150 1708 150 1791 c 0
 150 1868 217 1928 294 1928 c 0
 375 1928 442 1867 442 1790 c 0
EndSplineSet
Validated: 1
EndChar

StartChar: dotlessi
Encoding: 305 305 179
Width: 602
VWidth: 0
Flags: W
HStem: 0 88<96 141.643 535.915 568> 930 92<220 295.119>
VStem: 74 514
DStem2: 223.727 0 416.36 0 0.156434 0.987688<155.68 915.127>
LayerCount: 2
Fore
SplineSet
244 128 m 1
 366 904 l 1
 208 930 l 1
 220 1022 l 1
 552 1052 l 1
 576 1024 l 1
 436 124 l 1
 588 86 l 1
 568 0 l 1
 74 0 l 1
 96 88 l 1
 244 128 l 1
EndSplineSet
Validated: 1
EndChar

StartChar: dotlessj
Encoding: 567 567 180
Width: 534
VWidth: 0
Flags: W
HStem: 932 92<186 262.773>
VStem: -102 646
DStem2: 116.87 -468 307.404 -468 0.156434 0.987688<358.371 1391.21>
LayerCount: 2
Fore
SplineSet
-102 -372 m 1
 77 -241 181 -77 210 120 c 1
 335 906 l 1
 174 932 l 1
 186 1024 l 1
 518 1054 l 1
 544 1026 l 1
 398 104 l 2
 378 -25 319 -148 257 -228 c 0
 195 -308 107 -380 48 -418 c 0
 18 -437 -12 -454 -42 -468 c 1
 -102 -372 l 1
EndSplineSet
Validated: 1
EndChar

StartChar: e
Encoding: 101 101 181
Width: 887
VWidth: 0
Flags: W
HStem: -36 160<446.705 665.449> 966 112<508.154 688.103>
VStem: 152 193<228.746 530.776> 722 184<646.828 938.573>
LayerCount: 2
Fore
SplineSet
696 646 m 1
 713 681 722 729 722 790 c 1
 719 907 681 966 606 966 c 0
 559 966 514 938 470 881 c 0
 425 824 391 737 367 620 c 1
 696 646 l 1
848 554 m 1
 354 532 l 1
 350 509 345 469 345 422 c 0
 345 345 359 251 417 193 c 0
 463 147 522 124 594 124 c 0
 655 124 793 182 822 214 c 1
 854 160 l 1
 793 64 633 -36 480 -36 c 0
 359 -36 268 12 220 92 c 0
 172 171 152 261 152 370 c 0
 152 621 247 849 410 980 c 0
 491 1045 581 1078 678 1078 c 0
 833 1078 906 972 906 792 c 0
 906 706 887 627 848 554 c 1
EndSplineSet
Validated: 1
EndChar

StartChar: eacute
Encoding: 233 233 182
Width: 887
VWidth: 0
Flags: W
HStem: -36 160<449.498 665.449> 966 112<508.154 688.035>
VStem: 152 193<230.3 530.776> 722 184<646.828 937.902>
LayerCount: 2
Fore
SplineSet
696 646 m 1
 713 681 722 729 722 790 c 1
 719 907 681 966 606 966 c 0
 559 966 514 938 470 881 c 0
 425 824 391 737 367 620 c 1
 696 646 l 1
848 554 m 1
 354 532 l 1
 350 509 345 469 345 422 c 0
 345 345 359 251 417 193 c 0
 463 147 522 124 594 124 c 0
 655 124 793 182 822 214 c 1
 854 160 l 1
 793 64 633 -36 480 -36 c 0
 280 -36 152 98 152 370 c 0
 152 621 247 849 410 980 c 0
 491 1045 581 1078 678 1078 c 0
 830 1078 906 983 906 792 c 0
 906 706 887 627 848 554 c 1
969 1580 m 1
 747 1196 l 1
 686 1234 l 1
 833 1628 l 1
 969 1580 l 1
EndSplineSet
Validated: 1
EndChar

StartChar: ecaron
Encoding: 283 283 183
Width: 887
VWidth: 0
Flags: W
HStem: -36 160<446.705 665.449> 966 112<508.154 688.103>
VStem: 152 193<228.746 530.776> 722 184<646.828 938.573>
DStem2: 570 1490 472 1416 0.736873 -0.676031<0 250.267> 762 1316 756 1232 0.690318 0.723506<0 226.544>
LayerCount: 2
Fore
SplineSet
696 646 m 1
 713 681 722 729 722 790 c 1
 719 907 681 966 606 966 c 0
 559 966 514 938 470 881 c 0
 425 824 391 737 367 620 c 1
 696 646 l 1
848 554 m 1
 354 532 l 1
 350 509 345 469 345 422 c 0
 345 345 359 251 417 193 c 0
 463 147 522 124 594 124 c 0
 655 124 793 182 822 214 c 1
 854 160 l 1
 793 64 633 -36 480 -36 c 0
 359 -36 268 12 220 92 c 0
 172 171 152 261 152 370 c 0
 152 621 247 849 410 980 c 0
 491 1045 581 1078 678 1078 c 0
 833 1078 906 972 906 792 c 0
 906 706 887 627 848 554 c 1
690 1216 m 1
 472 1416 l 1
 570 1490 l 1
 750 1316 l 1
 762 1316 l 1
 912 1486 l 1
 964 1450 l 1
 756 1232 l 1
 690 1216 l 1
EndSplineSet
Validated: 1
EndChar

StartChar: ecircumflex
Encoding: 234 234 184
Width: 887
VWidth: 0
Flags: W
HStem: -36 160<449.498 665.449> 966 112<508.154 688.035>
VStem: 152 193<230.3 530.776> 722 184<646.828 937.902>
LayerCount: 2
Fore
SplineSet
696 646 m 1
 713 681 722 729 722 790 c 1
 719 907 681 966 606 966 c 0
 559 966 514 938 470 881 c 0
 425 824 391 737 367 620 c 1
 696 646 l 1
848 554 m 1
 354 532 l 1
 350 509 345 469 345 422 c 0
 345 345 359 251 417 193 c 0
 463 147 522 124 594 124 c 0
 655 124 793 182 822 214 c 1
 854 160 l 1
 793 64 633 -36 480 -36 c 0
 280 -36 152 98 152 370 c 0
 152 621 247 849 410 980 c 0
 491 1045 581 1078 678 1078 c 0
 830 1078 906 983 906 792 c 0
 906 706 887 627 848 554 c 1
713 1494 m 1
 929 1269 l 1
 869 1226 l 1
 671 1358 l 1
 659 1358 l 1
 489 1224 l 1
 444 1260 l 1
 648 1477 l 1
 713 1494 l 1
EndSplineSet
Validated: 1
EndChar

StartChar: edieresis
Encoding: 235 235 185
Width: 887
VWidth: 0
Flags: W
HStem: -36 160<449.498 665.449> 966 112<508.154 688.035> 1248 192<464.897 637.259 787.896 961.67>
VStem: 152 193<230.3 530.776> 448 206<1265.28 1423.52> 722 184<646.828 937.902> 771 208<1266.62 1422.23>
LayerCount: 2
Fore
SplineSet
696 646 m 1xfc
 713 681 722 729 722 790 c 1
 719 907 681 966 606 966 c 0
 559 966 514 938 470 881 c 0
 425 824 391 737 367 620 c 1
 696 646 l 1xfc
848 554 m 1
 354 532 l 1
 350 509 345 469 345 422 c 0
 345 345 359 251 417 193 c 0
 463 147 522 124 594 124 c 0
 655 124 793 182 822 214 c 1
 854 160 l 1
 793 64 633 -36 480 -36 c 0
 280 -36 152 98 152 370 c 0
 152 621 247 849 410 980 c 0
 491 1045 581 1078 678 1078 c 0
 830 1078 906 983 906 792 c 0
 906 706 887 627 848 554 c 1
979 1346 m 0xfa
 979 1289 929 1248 873 1248 c 0
 818 1248 771 1289 771 1346 c 0
 771 1402 820 1440 873 1440 c 0
 929 1440 979 1401 979 1346 c 0xfa
654 1346 m 0
 654 1289 606 1248 550 1248 c 0
 495 1248 448 1289 448 1346 c 0
 448 1402 497 1440 550 1440 c 0
 606 1440 654 1401 654 1346 c 0
EndSplineSet
Validated: 1
EndChar

StartChar: edotaccent
Encoding: 279 279 186
Width: 887
VWidth: 0
Flags: W
HStem: -36 160<446.705 665.449> 966 112<508.154 688.103> 1214 286<615.125 820>
VStem: 152 193<228.746 530.776> 572 292<1257.88 1459.88> 722 184<646.828 938.573>
LayerCount: 2
Fore
SplineSet
696 646 m 1xf4
 713 681 722 729 722 790 c 1
 719 907 681 966 606 966 c 0
 559 966 514 938 470 881 c 0
 425 824 391 737 367 620 c 1
 696 646 l 1xf4
848 554 m 1
 354 532 l 1
 350 509 345 469 345 422 c 0
 345 345 359 251 417 193 c 0
 463 147 522 124 594 124 c 0
 655 124 793 182 822 214 c 1
 854 160 l 1
 793 64 633 -36 480 -36 c 0
 359 -36 268 12 220 92 c 0
 172 171 152 261 152 370 c 0
 152 621 247 849 410 980 c 0
 491 1045 581 1078 678 1078 c 0
 833 1078 906 972 906 792 c 0
 906 706 887 627 848 554 c 1
864 1362 m 0xf8
 864 1281 796 1214 716 1214 c 0
 636 1214 572 1281 572 1364 c 0
 572 1440 639 1500 716 1500 c 0
 797 1500 864 1439 864 1362 c 0xf8
EndSplineSet
Validated: 1
EndChar

StartChar: egrave
Encoding: 232 232 187
Width: 887
VWidth: 0
Flags: W
HStem: -36 160<449.498 665.449> 966 112<508.154 688.035>
VStem: 152 193<230.3 530.776> 722 184<646.828 937.902>
LayerCount: 2
Fore
SplineSet
696 646 m 1
 713 681 722 729 722 790 c 1
 719 907 681 966 606 966 c 0
 559 966 514 938 470 881 c 0
 425 824 391 737 367 620 c 1
 696 646 l 1
848 554 m 1
 354 532 l 1
 350 509 345 469 345 422 c 0
 345 345 359 251 417 193 c 0
 463 147 522 124 594 124 c 0
 655 124 793 182 822 214 c 1
 854 160 l 1
 793 64 633 -36 480 -36 c 0
 280 -36 152 98 152 370 c 0
 152 621 247 849 410 980 c 0
 491 1045 581 1078 678 1078 c 0
 830 1078 906 983 906 792 c 0
 906 706 887 627 848 554 c 1
457 1582 m 1
 597 1628 l 1
 757 1224 l 1
 687 1182 l 1
 457 1582 l 1
EndSplineSet
Validated: 1
EndChar

StartChar: eight
Encoding: 56 56 188
Width: 1104
VWidth: 0
Flags: W
HStem: -32 110<459.221 766.55> 1330 90<599.383 850.698>
VStem: 159 202<183.022 443.392> 315 190<968.701 1175.36> 865 198<225.628 443.754> 925 176<969.537 1253.64>
LayerCount: 2
Fore
SplineSet
567 656 m 1xe8
 491 596 l 1
 443 556 406 515 379 446 c 0
 367 414 361 376 361 332 c 0
 361 260 384 207 425 156 c 0
 444 133 467 114 493 100 c 1
 517 85 545 78 577 78 c 0
 678 78 752 101 797 146 c 1
 842 193 865 255 865 330 c 0
 865 358 857 387 840 416 c 1
 822 444 799 472 771 500 c 1
 743 526 711 552 675 578 c 2
 567 656 l 1xe8
159 286 m 0
 159 446 277 574 505 698 c 1
 507 708 l 1
 489 719 468 735 445 756 c 1
 401 792 356 849 333 910 c 0
 321 942 315 976 315 1012 c 0
 315 1065 328 1115 353 1162 c 1
 401 1258 484 1333 601 1384 c 0
 657 1408 716 1420 777 1420 c 0
 881 1420 959 1386 1015 1334 c 0
 1040 1310 1062 1280 1079 1244 c 1
 1094 1206 1101 1169 1101 1132 c 0xd4
 1101 1095 1094 1056 1079 1016 c 1
 1062 977 1042 941 1019 910 c 1
 995 875 966 846 931 822 c 1
 896 795 860 776 825 764 c 1
 821 752 l 1
 969 645 1063 525 1063 396 c 0
 1063 287 1009 178 913 98 c 0
 865 58 807 26 739 2 c 1
 669 -21 592 -32 509 -32 c 0
 413 -32 320 -3 261 52 c 1
 229 80 204 113 187 152 c 0
 168 193 159 238 159 286 c 0
751 800 m 1
 785 819 810 837 827 852 c 0
 848 869 867 890 883 914 c 1
 896 937 907 963 915 994 c 1
 922 1027 925 1062 925 1098 c 0
 925 1166 907 1222 871 1266 c 1
 834 1309 789 1330 735 1330 c 0
 659 1330 607 1300 563 1256 c 1
 526 1215 505 1158 505 1106 c 0
 505 1045 528 989 573 940 c 0
 617 893 676 846 751 800 c 1
EndSplineSet
Validated: 1
EndChar

StartChar: eight.osf
Encoding: 65540 -1 189
Width: 1002
VWidth: 0
Flags: W
HStem: -32 112<408.03 667.171> 1362 92<586.968 811.196>
VStem: 124 212<158.591 442.977> 304 196<983.851 1197> 784 204<247.838 477.388> 860 188<1019.14 1315.32>
LayerCount: 2
Fore
SplineSet
336 324 m 0xe8
 336 193 399 80 518 80 c 0
 661 80 784 187 784 344 c 0
 784 463 701 547 520 672 c 1
 437 615 336 453 336 324 c 0xe8
456 714 m 1
 458 724 l 1
 355 791 304 894 304 1032 c 0
 304 1137 363 1248 447 1325 c 0
 531 1401 646 1454 750 1454 c 0
 937 1454 1048 1359 1048 1192 c 0xd4
 1048 1043 945 887 784 782 c 1
 782 770 l 1
 939 659 988 572 988 416 c 0
 988 260 876 112 709 30 c 0
 625 -11 537 -32 446 -32 c 0
 237 -32 124 103 124 272 c 0
 124 444 252 597 456 714 c 1
860 1156 m 0
 860 1207 852 1250 830 1293 c 0
 808 1336 763 1362 702 1362 c 0
 606 1362 500 1260 500 1164 c 0
 500 1024 560 915 708 820 c 1
 788 892 860 1007 860 1156 c 0
EndSplineSet
Validated: 1
EndChar

StartChar: ellipsis
Encoding: 8230 8230 190
Width: 1601
VWidth: 0
Flags: W
HStem: -40 298<175.255 362.193 715.255 902.193 1287.25 1474.19>
VStem: 120 294<12.5735 203.539> 660 294<12.5735 203.539> 1232 294<12.5735 203.539>
LayerCount: 2
Fore
SplineSet
290 258 m 0
 365 258 414 197 414 128 c 0
 414 29 341 -40 248 -40 c 0
 183 -40 120 27 120 88 c 0
 120 185 195 258 290 258 c 0
1402 258 m 0
 1477 258 1526 197 1526 128 c 0
 1526 29 1453 -40 1360 -40 c 0
 1295 -40 1232 27 1232 88 c 0
 1232 185 1307 258 1402 258 c 0
830 258 m 0
 905 258 954 197 954 128 c 0
 954 29 881 -40 788 -40 c 0
 723 -40 660 27 660 88 c 0
 660 185 735 258 830 258 c 0
EndSplineSet
Validated: 1
EndChar

StartChar: emacron
Encoding: 275 275 191
Width: 887
VWidth: 0
Flags: W
HStem: -36 160<446.705 665.449> 966 112<508.154 688.103> 1242 122<458 976>
VStem: 152 193<228.746 530.776> 722 184<646.828 938.573>
LayerCount: 2
Fore
SplineSet
696 646 m 1
 713 681 722 729 722 790 c 1
 719 907 681 966 606 966 c 0
 559 966 514 938 470 881 c 0
 425 824 391 737 367 620 c 1
 696 646 l 1
848 554 m 1
 354 532 l 1
 350 509 345 469 345 422 c 0
 345 345 359 251 417 193 c 0
 463 147 522 124 594 124 c 0
 655 124 793 182 822 214 c 1
 854 160 l 1
 793 64 633 -36 480 -36 c 0
 359 -36 268 12 220 92 c 0
 172 171 152 261 152 370 c 0
 152 621 247 849 410 980 c 0
 491 1045 581 1078 678 1078 c 0
 833 1078 906 972 906 792 c 0
 906 706 887 627 848 554 c 1
458 1364 m 1
 992 1364 l 1
 976 1242 l 1
 442 1242 l 1
 458 1364 l 1
EndSplineSet
Validated: 1
EndChar

StartChar: emdash
Encoding: 8212 8212 192
Width: 1604
VWidth: 0
Flags: W
HStem: 496 126<222 1558>
LayerCount: 2
Fore
SplineSet
222 622 m 1
 1578 630 l 1
 1558 504 l 1
 202 496 l 1
 222 622 l 1
EndSplineSet
Validated: 1
EndChar

StartChar: emptyset
Encoding: 8709 8709 193
Width: 1285
VWidth: 0
Flags: W
HStem: -46 126<490.543 852.683> 996 130<623.961 986.142> 1058 20G<1282.4 1317.45>
VStem: 170 156<321.53 661.413> 1134 164<412.877 774.53>
DStem2: 84 116 136 6 0.786229 0.617935<0 149.565 328.906 1219.23 1390.02 1529.71>
LayerCount: 2
Fore
SplineSet
396 210 m 1x98
 459 123 549 80 664 80 c 0
 781 80 893 128 984 216 c 0
 1075 304 1134 453 1134 632 c 0
 1134 686 1128 734 1116 776 c 1
 396 210 l 1x98
342 320 m 1
 1062 884 l 1
 1004 959 919 996 808 996 c 0xd8
 692 996 574 943 482 851 c 0
 389 759 326 609 326 440 c 0
 326 401 331 361 342 320 c 1
84 116 m 1
 210 216 l 1
 183 277 170 347 170 428 c 0
 170 584 229 737 320 849 c 0
 411 960 528 1049 651 1093 c 0
 712 1115 771 1126 828 1126 c 0xd8
 975 1126 1093 1077 1180 978 c 1
 1308 1078 l 1xb8
 1360 968 l 1
 1246 878 l 1
 1281 809 1298 736 1298 660 c 0
 1298 467 1218 282 1098 158 c 0
 977 34 811 -46 644 -46 c 0
 483 -46 359 7 272 114 c 1
 136 6 l 1
 84 116 l 1
EndSplineSet
Validated: 1
EndChar

StartChar: endash
Encoding: 8211 8211 194
Width: 986
VWidth: 0
Flags: W
HStem: 496 126<221 941>
LayerCount: 2
Fore
SplineSet
221 622 m 1
 961 630 l 1
 941 504 l 1
 201 496 l 1
 221 622 l 1
EndSplineSet
Validated: 1
EndChar

StartChar: eng
Encoding: 331 331 195
Width: 1041
VWidth: 0
Flags: W
HStem: 0 90<102 154.326 530.165 564> 900 182<749.372 959.5> 924 100<222 293.119>
VStem: 868 206<663.152 887.97>
DStem2: 153.286 -468 343.603 -468 0.156434 0.987688<633.201 1364.56> 676.87 -468 867.404 -468 0.156434 0.987688<362.991 1253.46>
LayerCount: 2
Fore
SplineSet
542 874 m 1xb0
 556 874 l 1
 635 978 783 1082 904 1082 c 0
 1015 1082 1074 1026 1074 874 c 0
 1074 838 1070 794 1062 742 c 2
 958 104 l 2
 937 -25 879 -148 817 -228 c 0
 755 -308 667 -380 608 -418 c 0
 578 -437 548 -454 518 -468 c 1
 458 -372 l 1
 637 -241 741 -77 770 120 c 1
 854 636 l 2
 865 701 868 747 868 772 c 0
 868 868 836 900 768 900 c 0xd0
 687 900 613 868 546 804 c 1
 438 128 l 1
 586 90 l 1
 564 0 l 1
 76 0 l 1
 102 90 l 1
 248 130 l 1
 364 898 l 1
 206 924 l 1
 222 1024 l 1
 558 1054 l 1
 584 1026 l 1
 542 874 l 1xb0
EndSplineSet
Validated: 1
EndChar

StartChar: eogonek
Encoding: 281 281 196
Width: 892
VWidth: 0
Flags: W
HStem: -452 21G<611.5 710.548> -36 160<449.705 631.91> 966 112<511.154 691.103>
VStem: 155 193<228.746 530.776> 409 180<-298.894 -110.398> 725 184<646.828 938.573>
LayerCount: 2
Fore
SplineSet
699 646 m 1
 716 681 725 729 725 790 c 1
 722 907 684 966 609 966 c 0
 562 966 517 938 473 881 c 0
 428 824 394 737 370 620 c 1
 699 646 l 1
625 -286 m 0
 649 -326 687 -361 739 -390 c 1
 697 -452 l 1
 526 -435 409 -343 409 -236 c 0
 409 -175 432 -121 519 -34 c 1
 511 -35 499 -36 483 -36 c 0
 362 -36 271 12 223 92 c 0
 175 171 155 261 155 370 c 0
 155 621 250 849 413 980 c 0
 494 1045 584 1078 681 1078 c 0
 836 1078 909 972 909 792 c 0
 909 706 890 627 851 554 c 1
 357 532 l 1
 353 509 348 469 348 422 c 0
 348 345 362 251 420 193 c 0
 466 147 525 124 597 124 c 0
 658 124 796 182 825 214 c 1
 857 160 l 1
 821 104 742 39 651 0 c 1
 607 -47 589 -102 589 -156 c 0
 589 -204 603 -250 625 -286 c 0
EndSplineSet
Validated: 1
EndChar

StartChar: equal
Encoding: 61 61 197
Width: 1062
VWidth: 0
Flags: W
HStem: 386 128<244 954> 676 128<294 1004>
LayerCount: 2
Fore
SplineSet
244 514 m 1
 988 514 l 1
 954 386 l 1
 210 386 l 1
 244 514 l 1
294 804 m 1
 1038 804 l 1
 1004 676 l 1
 260 676 l 1
 294 804 l 1
EndSplineSet
Validated: 1
EndChar

StartChar: eth
Encoding: 240 240 198
Width: 1083
VWidth: 0
Flags: W
HStem: -32 118<453.673 698.363> 976 112<534.797 791.445>
VStem: 155 212<191.038 686.698> 873 214<443.598 1018.25>
DStem2: 565 1340 537 1246 0.97764 0.210285<0 201.984 389.101 494.981>
LayerCount: 2
Fore
SplineSet
963 1340 m 1
 1054 1175 1087 1020 1087 796 c 0
 1087 563 1036 365 961 241 c 0
 885 117 779 31 678 -5 c 0
 627 -23 576 -32 525 -32 c 0
 301 -32 155 113 155 400 c 0
 155 587 206 748 282 852 c 0
 358 956 463 1031 564 1064 c 0
 615 1080 665 1088 715 1088 c 0
 742 1088 772 1082 806 1067 c 0
 840 1052 868 1021 877 978 c 1
 885 978 l 1
 874 1053 844 1159 793 1296 c 1
 537 1246 l 1
 565 1340 l 1
 763 1380 l 1
 730 1449 688 1515 635 1578 c 1
 769 1578 l 1
 825 1529 875 1475 919 1416 c 1
 1095 1454 l 1
 1067 1360 l 1
 963 1340 l 1
500 903 m 0
 445 850 407 773 384 649 c 0
 373 586 367 515 367 436 c 0
 367 217 432 86 569 86 c 0
 750 86 873 297 873 660 c 0
 873 845 808 976 685 976 c 0
 614 976 555 956 500 903 c 0
EndSplineSet
Validated: 1
EndChar

StartChar: exclam
Encoding: 33 33 199
Width: 530
VWidth: 0
Flags: W
HStem: -40 298<188.255 375.193>
VStem: 133 294<12.5735 203.539> 281 104<456 610.461>
LayerCount: 2
Fore
SplineSet
303 258 m 0xc0
 378 258 427 197 427 128 c 0
 427 29 354 -40 261 -40 c 0
 196 -40 133 27 133 88 c 0
 133 185 208 258 303 258 c 0xc0
385 432 m 1xa0
 281 456 l 1
 281 460 l 1
 326 1014 360 1365 383 1514 c 1
 385 1518 l 1
 397 1549 493 1566 553 1566 c 0
 589 1566 623 1553 623 1524 c 2
 623 1518 l 1
 596 1345 516 986 385 440 c 1
 385 432 l 1xa0
EndSplineSet
Validated: 1
EndChar

StartChar: exclamdown
Encoding: 161 161 200
Width: 499
VWidth: 0
Flags: W
HStem: 828 298<310.807 497.745>
VStem: 259 294<882.461 1073.43> 301 104<475.539 630>
LayerCount: 2
Fore
SplineSet
383 828 m 0xc0
 308 828 259 889 259 958 c 0
 259 1057 332 1126 425 1126 c 0
 490 1126 553 1059 553 998 c 0
 553 901 478 828 383 828 c 0xc0
301 654 m 1xa0
 405 630 l 1
 405 626 l 1
 360 72 326 -279 303 -428 c 1
 301 -432 l 1
 289 -463 193 -480 133 -480 c 0
 97 -480 63 -467 63 -438 c 2
 63 -432 l 1
 90 -259 170 100 301 646 c 1
 301 654 l 1xa0
EndSplineSet
Validated: 1
EndChar

StartChar: f
Encoding: 102 102 201
Width: 711
VWidth: 0
Flags: W
HStem: 0 96<81 124.067 608.648 659> 950 108<575 771> 950 82<235 281.918> 1404 154<674.83 858.187>
DStem2: 210.093 0 408.093 0 0.156434 0.987688<164.619 961.598 1102.06 1311.3>
LayerCount: 2
Fore
SplineSet
1033 1420 m 0xb0
 1033 1369 994 1319 909 1296 c 1
 892 1345 814 1404 743 1404 c 0
 695 1404 659 1374 636 1322 c 0
 613 1270 602 1223 591 1158 c 2
 575 1058 l 1
 801 1058 l 1
 771 950 l 1xd0
 559 950 l 1
 429 132 l 1
 681 96 l 1
 659 0 l 1
 61 0 l 1
 81 92 l 1
 231 132 l 1
 359 950 l 1
 215 950 l 1
 235 1032 l 1
 379 1076 l 1
 414 1247 514 1405 642 1493 c 0
 705 1536 768 1558 830 1558 c 0
 958 1558 1033 1513 1033 1420 c 0xb0
EndSplineSet
Validated: 1
EndChar

StartChar: five
Encoding: 53 53 202
Width: 937
VWidth: 0
Flags: W
HStem: -58 108<137.204 373.375> 1230 186<741.755 918>
VStem: 706 228<324.246 594.37>
DStem2: 206 780 380 950 0.364458 0.93122<221.723 498.424>
LayerCount: 2
Fore
SplineSet
132 50 m 1
 313 66 454 108 554 176 c 1
 655 243 706 329 706 434 c 0
 706 630 559 756 206 780 c 1
 442 1383 l 1
 972 1416 l 1
 918 1230 l 1
 480 1208 l 1
 380 950 l 1
 565 938 695 891 794 812 c 1
 885 737 934 629 934 512 c 0
 934 376 867 241 742 138 c 0
 679 87 597 43 494 6 c 1
 392 -29 273 -50 138 -58 c 1
 132 50 l 1
EndSplineSet
Validated: 1
EndChar

StartChar: five.osf
Encoding: 65541 -1 203
Width: 839
VWidth: 0
Flags: W
HStem: -360 110<128.251 390.62>
VStem: 586 232<40.9057 311.103>
DStem2: 172 486 346 660 0.313461 0.949601<219.773 500.56> 376 1104 442 924 0.99647 0.0839517<50.6557 469.531>
LayerCount: 2
Fore
SplineSet
922 1150 m 1
 860 952 l 1
 442 924 l 1
 346 660 l 1
 661 604 818 464 818 240 c 0
 818 84 735 -73 615 -180 c 0
 495 -288 329 -360 172 -360 c 0
 -21 -360 -118 -311 -118 -212 c 0
 -118 -153 -49 -89 26 -74 c 1
 45 -107 49 -117 80 -156 c 0
 111 -196 135 -216 182 -235 c 0
 205 -245 229 -250 254 -250 c 0
 415 -250 586 -61 586 148 c 0
 586 233 561 301 501 362 c 0
 441 423 329 467 172 486 c 1
 376 1104 l 1
 922 1150 l 1
EndSplineSet
Validated: 1
EndChar

StartChar: four
Encoding: 52 52 204
Width: 1139
VWidth: 0
Flags: W
HStem: -14 21G<622.936 747.5> 422 144<302 684 900 1158> 1392 20G<932.976 1017.45>
DStem2: 94 510 302 566 0.689214 0.724558<183.932 877.387> 620 -14 818.932 -14 0.156434 0.987688<63.5187 440.644 616.661 742.991 826.138 861 1024.45 1090.4>
LayerCount: 2
Fore
SplineSet
684 422 m 1
 108 422 l 1
 94 510 l 1
 952 1412 l 1
 1024 1390 l 1
 1023 1387 1016 1347 1002 1270 c 1
 980 1128 l 1
 956 970 l 1
 945 890 937 836 934 808 c 2
 900 566 l 1
 1198 566 l 1
 1158 418 l 1
 878 418 l 1
 824 18 l 1
 620 -14 l 1
 684 422 l 1
772 1076 m 1
 302 566 l 1
 700 566 l 1
 772 1076 l 1
EndSplineSet
Validated: 1
EndChar

StartChar: four.osf
Encoding: 65542 -1 205
Width: 1129
VWidth: 0
Flags: W
HStem: 108 149<240 628 850 1114>
DStem2: 26 198 240 257 0.673706 0.738999<187.774 939.336> 552 -368 753.031 -368 0.156434 0.987688<75.9967 482.029 663.923 1202.47>
LayerCount: 2
Fore
SplineSet
552 -368 m 1
 628 108 l 1
 40 108 l 1
 26 198 l 1
 934 1194 l 1
 1008 1172 l 1
 983 1053 946 837 894 524 c 2
 850 257 l 1
 1158 257 l 1
 1114 104 l 1
 828 104 l 1
 760 -324 l 1
 552 -368 l 1
648 257 m 1
 738 820 l 1
 240 257 l 1
 648 257 l 1
EndSplineSet
Validated: 1
EndChar

StartChar: fraction
Encoding: 8260 8260 206
Width: 1273
VWidth: 0
Flags: W
DStem2: 187 -36 290 -26 0.634287 0.773098<73.0625 1556.08>
LayerCount: 2
Fore
SplineSet
1174 1167 m 1
 1273 1177 l 1
 290 -26 l 1
 187 -36 l 1
 1174 1167 l 1
EndSplineSet
Validated: 1
EndChar

StartChar: g
Encoding: 103 103 207
Width: 1004
VWidth: 0
Flags: W
HStem: -468 130<265.344 575.25> 4 178<383.285 668.152> 366 94<468.781 649.016> 996 90<524.199 708.427>
VStem: -6 226<-290.989 -113.424> 134 206<140 261.561> 220 200<509.93 827.513> 728 216<-164.047 60.5> 744 180<604.508 902.123>
LayerCount: 2
Fore
SplineSet
420 668 m 0xf280
 420 548 477 460 550 460 c 0
 661 460 744 597 744 800 c 0
 744 923 701 996 632 996 c 0
 512 996 420 852 420 668 c 0xf280
646 182 m 2
 845 182 944 121 944 0 c 0
 944 -107 889 -210 805 -284 c 0
 721 -358 614 -418 505 -446 c 0
 450 -461 399 -468 350 -468 c 0
 225 -468 118 -442 47 -372 c 0
 12 -337 -6 -295 -6 -244 c 0xf9
 -6 -135 72 -47 228 22 c 1
 228 32 l 1
 159 68 137 104 134 176 c 1xf4
 134 244 268 357 372 396 c 1
 374 406 l 1
 306 425 220 544 220 665 c 0
 220 809 325 952 465 1029 c 0
 534 1067 603 1086 672 1086 c 0
 753 1086 816 1061 862 1010 c 1
 1118 1028 l 1
 1138 1000 l 1
 1072 866 l 1
 1052 866 l 1
 908 914 l 1
 906 894 l 1
 918 853 924 810 924 764 c 0
 924 624 820 489 692 419 c 0
 627 384 565 366 504 366 c 0
 472 366 444 370 420 378 c 1xf280
 419 377 401 359 398 356 c 0
 394 352 378 336 374 329 c 0
 372 326 369 321 364 315 c 0
 359 308 356 303 354 298 c 0
 352 293 350 287 347 280 c 0
 342 267 340 253 340 240 c 0xf4
 340 215 354 199 382 192 c 0
 409 185 462 182 540 182 c 2
 646 182 l 2
306 4 m 1
 304 3 301 1 297 -2 c 0
 289 -8 265 -33 250 -58 c 0
 235 -83 220 -131 220 -180 c 0
 220 -285 289 -338 426 -338 c 0
 603 -338 728 -243 728 -92 c 0
 728 -58 709 -33 670 -18 c 0
 631 -3 565 4 474 4 c 2
 306 4 l 1
EndSplineSet
Validated: 1
EndChar

StartChar: gbreve
Encoding: 287 287 208
Width: 1004
VWidth: 0
Flags: W
HStem: -468 130<265.344 575.25> 4 178<383.285 668.152> 366 94<468.781 649.016> 996 90<524.199 708.427> 1214 132<583.228 822.458>
VStem: -6 226<-290.989 -113.424> 134 206<140 261.561> 220 200<509.93 827.513> 470 66<1402.15 1439.73> 728 216<-164.047 60.5> 744 180<604.508 902.123>
LayerCount: 2
Fore
SplineSet
420 668 m 0xf9a0
 420 548 477 460 550 460 c 0
 661 460 744 597 744 800 c 0
 744 923 701 996 632 996 c 0
 512 996 420 852 420 668 c 0xf9a0
646 182 m 2
 845 182 944 121 944 0 c 0
 944 -107 889 -210 805 -284 c 0
 721 -358 614 -418 505 -446 c 0
 450 -461 399 -468 350 -468 c 0
 225 -468 118 -442 47 -372 c 0
 12 -337 -6 -295 -6 -244 c 0xfcc0
 -6 -135 72 -47 228 22 c 1
 228 32 l 1
 159 68 137 104 134 176 c 1xfa80
 134 244 268 357 372 396 c 1
 374 406 l 1
 306 425 220 544 220 665 c 0
 220 809 325 952 465 1029 c 0
 534 1067 603 1086 672 1086 c 0
 753 1086 816 1061 862 1010 c 1
 1118 1028 l 1
 1138 1000 l 1
 1072 866 l 1
 1052 866 l 1
 908 914 l 1
 906 894 l 1
 918 853 924 810 924 764 c 0
 924 624 820 489 692 419 c 0
 627 384 565 366 504 366 c 0
 472 366 444 370 420 378 c 1xf9a0
 419 377 401 359 398 356 c 0
 394 352 378 336 374 329 c 0
 372 326 369 321 364 315 c 0
 359 308 356 303 354 298 c 0
 352 293 350 287 347 280 c 0
 342 267 340 253 340 240 c 0xfa80
 340 215 354 199 382 192 c 0
 409 185 462 182 540 182 c 2
 646 182 l 2
306 4 m 1
 304 3 301 1 297 -2 c 0
 289 -8 265 -33 250 -58 c 0
 235 -83 220 -131 220 -180 c 0
 220 -285 289 -338 426 -338 c 0
 603 -338 728 -243 728 -92 c 0
 728 -58 709 -33 670 -18 c 0
 631 -3 565 4 474 4 c 2
 306 4 l 1
470 1430 m 1
 526 1468 l 1
 536 1448 l 2
 564 1393 624 1346 700 1346 c 0
 772 1346 829 1381 872 1450 c 1
 884 1470 l 1
 934 1436 l 1
 926 1412 l 2
 889 1300 811 1214 700 1214 c 0
 581 1214 503 1299 476 1406 c 2
 470 1430 l 1
EndSplineSet
Validated: 1
EndChar

StartChar: gcommaaccent
Encoding: 291 291 209
Width: 1004
VWidth: 0
Flags: W
HStem: -468 130<265.344 575.25> 4 178<383.285 668.152> 366 94<468.781 649.016> 996 90<524.199 708.427> 1192 124<719.5 827.351> 1506 46<833.953 886.493>
VStem: -6 226<-290.989 -117.465> 134 206<140 261.561> 220 200<509.93 827.513> 646 104<1271.5 1433.43> 728 216<-164.047 60.5> 744 180<604.508 902.123>
LayerCount: 2
Fore
SplineSet
892 1506 m 1xfc40
 807 1483 750 1428 750 1383 c 0
 750 1343 773 1316 818 1316 c 0
 821 1316 827 1317 838 1320 c 1
 842 1306 844 1294 844 1284 c 0
 844 1233 788 1192 748 1192 c 0
 691 1192 646 1225 646 1318 c 0
 646 1354 662 1396 696 1442 c 0
 730 1488 797 1531 884 1552 c 1
 892 1506 l 1xfc40
420 668 m 0xfc90
 420 548 477 460 550 460 c 0
 661 460 744 597 744 800 c 0
 744 923 701 996 632 996 c 0
 512 996 420 852 420 668 c 0xfc90
646 182 m 2xfd40
 845 182 944 121 944 0 c 0
 944 -107 889 -210 805 -284 c 0
 721 -358 614 -418 505 -446 c 0
 450 -461 399 -468 350 -468 c 0
 225 -468 118 -442 47 -372 c 0
 12 -337 -6 -295 -6 -244 c 0xfe20
 -6 -180 28 -118 80 -73 c 0
 131 -29 177 -1 228 22 c 1
 228 32 l 1
 159 68 137 104 134 176 c 1xfd
 134 244 268 357 372 396 c 1
 374 406 l 1
 306 425 220 544 220 665 c 0
 220 809 325 952 465 1029 c 0
 534 1067 603 1086 672 1086 c 0
 753 1086 816 1061 862 1010 c 1
 1118 1028 l 1
 1138 1000 l 1
 1072 866 l 1
 1052 866 l 1
 908 914 l 1
 906 894 l 1
 918 853 924 810 924 764 c 0
 924 624 820 489 692 419 c 0
 627 384 565 366 504 366 c 0
 472 366 444 370 420 378 c 1xfc90
 419 377 401 359 398 356 c 0
 394 352 378 336 374 329 c 0
 372 326 369 321 364 315 c 0
 359 308 356 303 354 298 c 0
 352 293 350 287 347 280 c 0
 342 267 340 253 340 240 c 0
 340 215 354 199 382 192 c 0
 409 185 462 182 540 182 c 2
 646 182 l 2xfd40
306 4 m 1
 304 3 301 1 297 -1 c 0
 289 -6 265 -30 250 -55 c 0
 235 -80 220 -128 220 -180 c 0
 220 -285 289 -338 426 -338 c 0
 603 -338 728 -243 728 -92 c 0
 728 -58 709 -33 670 -18 c 0
 631 -3 565 4 474 4 c 2
 306 4 l 1
EndSplineSet
Validated: 1
EndChar

StartChar: gdotaccent
Encoding: 289 289 210
Width: 1004
VWidth: 0
Flags: W
HStem: -468 130<265.344 575.25> 4 178<383.285 668.152> 366 94<468.781 649.016> 996 90<524.199 708.427> 1192 286<598 804>
VStem: -6 226<-290.989 -113.424> 134 206<140 261.561> 220 200<509.93 827.513> 556 292<1235.62 1437.88> 728 216<-164.047 60.5> 744 180<604.508 902.123>
LayerCount: 2
Fore
SplineSet
420 668 m 0xf920
 420 548 477 460 550 460 c 0
 661 460 744 597 744 800 c 0
 744 923 701 996 632 996 c 0
 512 996 420 852 420 668 c 0xf920
646 182 m 2
 845 182 944 121 944 0 c 0
 944 -107 889 -210 805 -284 c 0
 721 -358 614 -418 505 -446 c 0
 450 -461 399 -468 350 -468 c 0
 225 -468 118 -442 47 -372 c 0
 12 -337 -6 -295 -6 -244 c 0xfc40
 -6 -135 72 -47 228 22 c 1
 228 32 l 1
 159 68 137 104 134 176 c 1xfa
 134 244 268 357 372 396 c 1
 374 406 l 1
 306 425 220 544 220 665 c 0
 220 809 325 952 465 1029 c 0
 534 1067 603 1086 672 1086 c 0
 753 1086 816 1061 862 1010 c 1
 1118 1028 l 1
 1138 1000 l 1
 1072 866 l 1
 1052 866 l 1
 908 914 l 1
 906 894 l 1
 918 853 924 810 924 764 c 0
 924 624 820 489 692 419 c 0
 627 384 565 366 504 366 c 0
 472 366 444 370 420 378 c 1xf920
 419 377 401 359 398 356 c 0
 394 352 378 336 374 329 c 0
 372 326 369 321 364 315 c 0
 359 308 356 303 354 298 c 0
 352 293 350 287 347 280 c 0
 342 267 340 253 340 240 c 0xfa
 340 215 354 199 382 192 c 0
 409 185 462 182 540 182 c 2
 646 182 l 2
306 4 m 1
 304 3 301 1 297 -2 c 0
 289 -8 265 -33 250 -58 c 0
 235 -83 220 -131 220 -180 c 0
 220 -285 289 -338 426 -338 c 0
 603 -338 728 -243 728 -92 c 0
 728 -58 709 -33 670 -18 c 0
 631 -3 565 4 474 4 c 2
 306 4 l 1
848 1340 m 0xf880
 848 1259 780 1192 700 1192 c 0
 620 1192 556 1258 556 1341 c 0
 556 1418 623 1478 700 1478 c 0
 781 1478 848 1417 848 1340 c 0xf880
EndSplineSet
Validated: 1
EndChar

StartChar: germandbls
Encoding: 223 223 211
Width: 1186
VWidth: 0
Flags: W
HStem: -42 108<772.429 978.722> 0 92<81 134.76> 950 82<235 281.918> 1426 132<697.676 913.954>
VStem: 541 148<167.632 213.347> 661 186<695.981 892.999> 939 196<1163.66 1401.92> 1029 176<146.135 314.542>
DStem2: 203.441 -42 398.348 -42 0.156434 0.987688<176.169 1004.12>
LayerCount: 2
Fore
SplineSet
1078 1147 m 0x76
 1044 1103 1001 1064 961 1025 c 0
 920 986 884 949 863 901 c 0
 852 876 847 851 847 824 c 0x76
 847 741 904 666 974 608 c 0
 1044 550 1119 495 1168 419 c 0
 1193 380 1205 339 1205 296 c 0
 1205 196 1147 103 1068 48 c 0
 989 -8 894 -42 813 -42 c 0
 645 -42 541 44 541 148 c 0
 541 227 596 291 689 300 c 1
 729 135 786 66 861 66 c 0
 945 66 1029 124 1029 220 c 0xb9
 1029 277 971 337 899 393 c 0
 827 449 750 505 699 597 c 0
 674 642 661 691 661 744 c 0
 661 817 704 903 759 975 c 0
 786 1010 814 1045 841 1080 c 0
 896 1149 939 1227 939 1290 c 0
 939 1381 901 1426 801 1426 c 0
 677 1426 615 1351 585 1158 c 2
 405 0 l 1
 61 0 l 1
 81 92 l 1
 231 132 l 1
 359 950 l 1
 215 950 l 1
 235 1032 l 1
 379 1076 l 1
 415 1245 528 1405 663 1493 c 0
 730 1536 796 1558 859 1558 c 0
 959 1558 1036 1526 1077 1476 c 0
 1117 1426 1135 1370 1135 1310 c 0
 1135 1247 1112 1190 1078 1147 c 0x76
EndSplineSet
Validated: 1
EndChar

StartChar: grave
Encoding: 96 96 212
Width: 767
VWidth: 0
Flags: W
HStem: 1610 446
VStem: 198 300
LayerCount: 2
Fore
SplineSet
198 2010 m 1
 338 2056 l 1
 498 1652 l 1
 428 1610 l 1
 198 2010 l 1
EndSplineSet
Validated: 1
EndChar

StartChar: greater
Encoding: 62 62 213
Width: 899
VWidth: 0
Flags: W
LayerCount: 2
Fore
SplineSet
918 518 m 1
 148 -100 l 1
 86 -16 l 1
 636 550 l 1
 284 1092 l 1
 366 1177 l 1
 922 552 l 1
 918 518 l 1
EndSplineSet
Validated: 1
EndChar

StartChar: greaterequal
Encoding: 8805 8805 214
Width: 909
VWidth: 0
Flags: W
HStem: -324 126<75 777>
LayerCount: 2
Fore
SplineSet
75 -198 m 1
 817 -190 l 1
 777 -316 l 1
 35 -324 l 1
 75 -198 l 1
921 518 m 1
 151 -100 l 1
 89 -16 l 1
 639 550 l 1
 287 1092 l 1
 369 1177 l 1
 925 552 l 1
 921 518 l 1
EndSplineSet
Validated: 1
EndChar

StartChar: guillemotleft
Encoding: 171 171 215
Width: 789
VWidth: 0
Flags: W
LayerCount: 2
Fore
SplineSet
414 568 m 1
 806 994 l 1
 850 922 l 1
 592 558 l 1
 734 170 l 1
 658 94 l 1
 414 544 l 1
 414 568 l 1
114 568 m 1
 506 994 l 1
 550 922 l 1
 292 558 l 1
 434 170 l 1
 358 94 l 1
 114 544 l 1
 114 568 l 1
EndSplineSet
Validated: 1
EndChar

StartChar: guillemotright
Encoding: 187 187 216
Width: 789
VWidth: 0
Flags: W
LayerCount: 2
Fore
SplineSet
552 568 m 1
 548 544 l 1
 160 94 l 1
 108 170 l 1
 374 558 l 1
 232 922 l 1
 296 994 l 1
 552 568 l 1
852 568 m 1
 848 544 l 1
 460 94 l 1
 408 170 l 1
 674 558 l 1
 532 922 l 1
 596 994 l 1
 852 568 l 1
EndSplineSet
Validated: 1
EndChar

StartChar: guilsinglleft
Encoding: 8249 8249 217
Width: 489
VWidth: 0
Flags: W
VStem: 116 434
LayerCount: 2
Fore
SplineSet
116 568 m 1
 506 994 l 1
 550 922 l 1
 292 558 l 1
 434 170 l 1
 358 94 l 1
 114 544 l 1
 116 568 l 1
EndSplineSet
Validated: 1
EndChar

StartChar: guilsinglright
Encoding: 8250 8250 218
Width: 489
VWidth: 0
Flags: W
VStem: 108 446
LayerCount: 2
Fore
SplineSet
554 568 m 1
 548 544 l 1
 160 94 l 1
 108 170 l 1
 374 558 l 1
 232 922 l 1
 296 994 l 1
 554 568 l 1
EndSplineSet
Validated: 1
EndChar

StartChar: h
Encoding: 104 104 219
Width: 1087
VWidth: 0
Flags: W
HStem: 0 90<59 96.7264 500.008 523 1030.55 1053> 902 180<702.905 920.5> 1412 92<255 325.944> 1514 20G<365.667 605.571>
VStem: 837 202<527.781 879.788>
DStem2: 184.41 0 377.36 0 0.156434 0.987688<155.73 894.371 913.078 1401.47> 725 0 909.677 0 0.156434 0.987688<152.411 755.008>
LayerCount: 2
Fore
SplineSet
929 122 m 1
 1079 88 l 1
 1053 0 l 1
 725 0 l 1
 827 636 l 2
 834 683 837 720 837 748 c 0
 837 851 802 902 731 902 c 0
 660 902 592 873 560 849 c 0
 543 836 525 821 505 802 c 1
 397 124 l 1
 545 86 l 1
 523 0 l 1
 33 0 l 1
 59 90 l 1
 205 130 l 1
 405 1384 l 1
 243 1412 l 1
 255 1504 l 1
 587 1534 l 1
 613 1506 l 1
 537 1024 l 1
 503 874 l 1
 517 874 l 1
 600 983 729 1082 861 1082 c 0
 980 1082 1039 1009 1039 864 c 0
 1039 821 1036 781 1029 742 c 2
 929 122 l 1
EndSplineSet
Validated: 1
EndChar

StartChar: hbar
Encoding: 295 295 220
Width: 1087
VWidth: 0
Flags: W
HStem: 0 90<59 96.7264 500.008 523 1030.55 1053> 902 180<702.905 920.5> 1144 110<231 367 573 813> 1412 92<255 325.944> 1514 20G<365.667 605.571>
VStem: 837 202<661.197 877.383>
DStem2: 184.41 0 377.36 0 0.156434 0.987688<155.73 894.371 913.078 1158.48 1299.35 1401.47> 725 0 909.677 0 0.156434 0.987688<152.411 755.008>
LayerCount: 2
Fore
SplineSet
206 1144 m 1
 231 1254 l 1
 384 1254 l 1
 405 1384 l 1
 243 1412 l 1
 255 1504 l 1
 587 1534 l 1
 613 1506 l 1
 573 1254 l 1
 838 1254 l 1
 813 1144 l 1
 556 1144 l 1
 537 1024 l 1
 503 874 l 1
 517 874 l 1
 600 983 729 1082 861 1082 c 0
 980 1082 1039 1009 1039 864 c 0
 1039 821 1036 781 1029 742 c 2
 929 122 l 1
 1079 88 l 1
 1053 0 l 1
 725 0 l 1
 827 636 l 2
 834 683 837 720 837 748 c 0
 837 851 802 902 731 902 c 0
 660 902 592 873 560 849 c 0
 543 836 525 821 505 802 c 1
 397 124 l 1
 545 86 l 1
 523 0 l 1
 33 0 l 1
 59 90 l 1
 205 130 l 1
 367 1144 l 1
 206 1144 l 1
EndSplineSet
Validated: 1
EndChar

StartChar: hungarumlaut
Encoding: 733 733 221
Width: 941
VWidth: 0
Flags: W
HStem: 1646 312
VStem: 150 642
LayerCount: 2
Fore
SplineSet
792 1848 m 1
 440 1646 l 1
 406 1706 l 1
 704 1948 l 1
 792 1848 l 1
548 1854 m 1
 184 1646 l 1
 150 1706 l 1
 458 1958 l 1
 548 1854 l 1
EndSplineSet
Validated: 1
EndChar

StartChar: hyphen
Encoding: 45 45 222
Width: 731
VWidth: 0
Flags: W
HStem: 482 122<213 520.908> 504 122<385.092 693>
VStem: 199 508
LayerCount: 2
Fore
SplineSet
213 604 m 1xa0
 707 626 l 1
 693 504 l 1x60
 199 482 l 1
 213 604 l 1xa0
EndSplineSet
Validated: 1
EndChar

StartChar: i
Encoding: 105 105 223
Width: 602
VWidth: 0
Flags: W
HStem: 0 88<96 141.643 535.915 568> 930 92<220 295.119> 1300 285<435.125 640>
VStem: 392 292<1343.88 1545.38>
DStem2: 223.727 0 416.36 0 0.156434 0.987688<155.68 915.127>
LayerCount: 2
Fore
SplineSet
684 1448 m 0
 684 1367 616 1300 536 1300 c 0
 456 1300 392 1367 392 1450 c 0
 392 1526 459 1585 536 1585 c 0
 617 1585 684 1525 684 1448 c 0
244 128 m 1
 366 904 l 1
 208 930 l 1
 220 1022 l 1
 552 1052 l 1
 576 1024 l 1
 436 124 l 1
 588 86 l 1
 568 0 l 1
 74 0 l 1
 96 88 l 1
 244 128 l 1
EndSplineSet
Validated: 1
EndChar

StartChar: iacute
Encoding: 237 237 224
Width: 602
VWidth: 0
Flags: W
HStem: 0 88<96 141.643 535.915 568> 930 92<220 295.119>
VStem: 74 675
DStem2: 223.727 0 416.36 0 0.156434 0.987688<155.68 915.127>
LayerCount: 2
Fore
SplineSet
244 128 m 1
 366 904 l 1
 208 930 l 1
 220 1022 l 1
 552 1052 l 1
 576 1024 l 1
 436 124 l 1
 588 86 l 1
 568 0 l 1
 74 0 l 1
 96 88 l 1
 244 128 l 1
749 1590 m 1
 527 1206 l 1
 465 1244 l 1
 613 1638 l 1
 749 1590 l 1
EndSplineSet
Validated: 1
EndChar

StartChar: icaron
Encoding: 464 464 225
Width: 602
VWidth: 0
Flags: W
HStem: 0 88<96 141.643 535.915 568> 930 92<220 295.119>
VStem: 74 673
DStem2: 223.727 0 416.36 0 0.156434 0.987688<155.68 915.127> 353 1468 255 1394 0.736873 -0.676031<0 250.267> 545 1294 539 1210 0.690318 0.723506<0 226.544>
LayerCount: 2
Fore
SplineSet
244 128 m 1
 366 904 l 1
 208 930 l 1
 220 1022 l 1
 552 1052 l 1
 576 1024 l 1
 436 124 l 1
 588 86 l 1
 568 0 l 1
 74 0 l 1
 96 88 l 1
 244 128 l 1
473 1194 m 1
 255 1394 l 1
 353 1468 l 1
 533 1294 l 1
 545 1294 l 1
 695 1464 l 1
 747 1428 l 1
 539 1210 l 1
 473 1194 l 1
EndSplineSet
Validated: 1
EndChar

StartChar: icircumflex
Encoding: 238 238 226
Width: 602
VWidth: 0
Flags: W
HStem: 0 88<96 141.643 535.915 568> 930 92<220 295.119>
DStem2: 223.727 0 416.36 0 0.156434 0.987688<155.68 915.127>
LayerCount: 2
Fore
SplineSet
244 128 m 1
 366 904 l 1
 208 930 l 1
 220 1022 l 1
 552 1052 l 1
 576 1024 l 1
 436 124 l 1
 588 86 l 1
 568 0 l 1
 74 0 l 1
 96 88 l 1
 244 128 l 1
564 1486 m 1
 780 1262 l 1
 720 1218 l 1
 522 1350 l 1
 510 1350 l 1
 340 1216 l 1
 294 1252 l 1
 498 1470 l 1
 564 1486 l 1
EndSplineSet
Validated: 1
EndChar

StartChar: idieresis
Encoding: 239 239 227
Width: 602
VWidth: 0
Flags: W
HStem: 0 88<96 141.643 535.915 568> 930 92<220 295.119> 1248 192<288.897 461.259 612.896 786.67>
VStem: 272 206<1265.28 1423.52> 596 208<1266.62 1422.23>
DStem2: 223.727 0 416.36 0 0.156434 0.987688<155.68 915.127>
LayerCount: 2
Fore
SplineSet
244 128 m 1
 366 904 l 1
 208 930 l 1
 220 1022 l 1
 552 1052 l 1
 576 1024 l 1
 436 124 l 1
 588 86 l 1
 568 0 l 1
 74 0 l 1
 96 88 l 1
 244 128 l 1
804 1346 m 0
 804 1289 754 1248 698 1248 c 0
 643 1248 596 1289 596 1346 c 0
 596 1402 645 1440 698 1440 c 0
 754 1440 804 1401 804 1346 c 0
478 1346 m 0
 478 1289 430 1248 374 1248 c 0
 319 1248 272 1289 272 1346 c 0
 272 1402 321 1440 374 1440 c 0
 430 1440 478 1401 478 1346 c 0
EndSplineSet
Validated: 1
EndChar

StartChar: igrave
Encoding: 236 236 228
Width: 601
VWidth: 0
Flags: W
HStem: 0 88<95 140.643 534.915 567> 930 92<219 294.119>
VStem: 73 514
DStem2: 222.727 0 415.36 0 0.156434 0.987688<155.68 915.127>
LayerCount: 2
Fore
SplineSet
243 128 m 1
 365 904 l 1
 207 930 l 1
 219 1022 l 1
 551 1052 l 1
 575 1024 l 1
 435 124 l 1
 587 86 l 1
 567 0 l 1
 73 0 l 1
 95 88 l 1
 243 128 l 1
226 1582 m 1
 366 1628 l 1
 525 1224 l 1
 456 1182 l 1
 226 1582 l 1
EndSplineSet
Validated: 1
EndChar

StartChar: imacron
Encoding: 299 299 229
Width: 602
VWidth: 0
Flags: W
HStem: 0 88<96 141.643 535.915 568> 930 92<220 295.119> 1242 122<222 740>
DStem2: 223.727 0 416.36 0 0.156434 0.987688<155.68 915.127>
LayerCount: 2
Fore
SplineSet
244 128 m 1
 366 904 l 1
 208 930 l 1
 220 1022 l 1
 552 1052 l 1
 576 1024 l 1
 436 124 l 1
 588 86 l 1
 568 0 l 1
 74 0 l 1
 96 88 l 1
 244 128 l 1
222 1364 m 1
 756 1364 l 1
 740 1242 l 1
 206 1242 l 1
 222 1364 l 1
EndSplineSet
Validated: 1
EndChar

StartChar: infinity
Encoding: 8734 8734 230
Width: 1709
VWidth: 0
Flags: W
HStem: 246 192<430.249 736.753 1257.89 1473.62> 874 184<425.746 665.913 1199.23 1466.03>
VStem: 206 108<542.495 795.21> 1608 100<513.745 752.531>
LayerCount: 2
Fore
SplineSet
314 654 m 0
 314 534 447 438 590 438 c 0
 710 438 844 495 896 562 c 1
 824 665 785 716 724 781 c 0
 663 845 606 874 546 874 c 0
 394 874 314 789 314 654 c 0
596 1058 m 0
 747 1058 859 992 966 820 c 1
 978 822 l 1
 1093 975 1223 1052 1370 1052 c 0
 1567 1052 1708 895 1708 668 c 0
 1708 440 1522 248 1298 248 c 0
 1159 248 1043 329 948 492 c 1
 938 492 l 1
 834 328 709 246 564 246 c 0
 343 246 206 386 206 602 c 0
 206 866 380 1058 596 1058 c 0
1608 636 m 0
 1608 767 1470 860 1322 860 c 0
 1242 860 1179 846 1128 817 c 0
 1077 788 1060 773 1020 736 c 1
 1127 549 1274 438 1415 438 c 0
 1522 438 1608 531 1608 636 c 0
EndSplineSet
Validated: 1
EndChar

StartChar: integral
Encoding: 8747 8747 231
Width: 1030
VWidth: 0
Flags: W
HStem: -466 128<-12.5 234.799> 1452 128<916.973 1154>
DStem2: 303.913 -466 507.702 -466 0.156434 0.987688<352.398 1712.69>
LayerCount: 2
Fore
SplineSet
1162 1304 m 1
 1114 1380 1042 1452 974 1452 c 0
 875 1452 809 1384 772 1188 c 1
 604 142 l 2
 575 -37 506 -185 427 -274 c 0
 348 -363 249 -424 168 -448 c 0
 127 -460 89 -466 52 -466 c 0
 -77 -466 -154 -423 -154 -344 c 0
 -154 -273 -81 -213 -22 -190 c 1
 26 -266 98 -338 166 -338 c 0
 265 -338 330 -270 366 -74 c 1
 534 952 l 2
 558 1099 610 1230 673 1319 c 0
 736 1408 809 1479 885 1520 c 0
 960 1560 1028 1580 1088 1580 c 0
 1220 1580 1298 1537 1298 1456 c 0
 1298 1401 1214 1324 1162 1304 c 1
EndSplineSet
Validated: 1
EndChar

